{
  "accessors": [
    {
      "bufferView": 2,
      "componentType": 5126,
      "count": 65532,
      "max": [
        53.645698547363281,
        33.764900207519531,
        80.487197875976562
      ],
      "min": [
        -45.866500854492188,
        -31.372400283813477,
        0.001129999989643693
      ],
      "type": "VEC3"
    },
    {
      "bufferView": 2,
      "byteOffset": 786384,
      "componentType": 5126,
      "count": 65532,
      "max": [
        1,
        1,
        0.8873288631439209
      ],
      "min": [
        -0.9999963641166687,
        -0.99993383884429932,
        -1
      ],
      "type": "VEC3"
    },
    {
      "bufferView": 3,
      "componentType": 5126,
      "count": 65532,
      "max": [
        1,
        0.95312386751174927,
        1,
        1
      ],
      "min": [
        -0.99999958276748657,
        -0.99953508377075195,
        -0.99996781349182129,
        1
      ],
      "type": "VEC4"
    },
    {
      "bufferView": 1,
      "componentType": 5126,
      "count": 65532,
      "max": [
        0.96504700183868408,
        1
      ],
      "min": [
        0,
        0.05936799943447113
      ],
      "type": "VEC2"
    },
    {
      "bufferView": 0,
      "componentType": 5125,
      "count": 340929,
      "max": [
        65531
      ],
      "min": [
        0
      ],
      "type": "SCALAR"
    },
    {
      "bufferView": 2,
      "byteOffset": 1572768,
      "componentType": 5126,
      "count": 65532,
      "max": [
        26.266799926757812,
        6.156829833984375,
        77.87969970703125
      ],
      "min": [
        -33.706100463867188,
        -30.104400634765625,
        0.11449000239372253
      ],
      "type": "VEC3"
    },
    {
      "bufferView": 2,
      "byteOffset": 2359152,
      "componentType": 5126,
      "count": 65532,
      "max": [
        0.99999094009399414,
        0.99999982118606567,
        0.86847800016403198
      ],
      "min": [
        -0.99892574548721313,
        -0.99997609853744507,
        -0.98962819576263428
      ],
      "type": "VEC3"
    },
    {
      "bufferView": 3,
      "byteOffset": 1048512,
      "componentType": 5126,
      "count": 65532,
      "max": [
        1,
        0.99399888515472412,
        1,
        1
      ],
      "min": [
        -1,
        -0.99805974960327148,
        -0.9999997615814209,
        1
      ],
      "type": "VEC4"
    },
    {
      "bufferView": 1,
      "byteOffset": 524256,
      "componentType": 5126,
      "count": 65532,
      "max": [
        0.93582499027252197,
        1
      ],
      "min": [
        0,
        0.071199998259544373
      ],
      "type": "VEC2"
    },
    {
      "bufferView": 0,
      "byteOffset": 1363716,
      "componentType": 5125,
      "count": 306438,
      "max": [
        65531
      ],
      "min": [
        0
      ],
      "type": "SCALAR"
    },
    {
      "bufferView": 2,
      "byteOffset": 3145536,
      "componentType": 5126,
      "count": 65532,
      "max": [
        61.839298248291016,
        27.113100051879883,
        86.356101989746094
      ],
      "min": [
        -42.33489990234375,
        -31.332000732421875,
        0.001129999989643693
      ],
      "type": "VEC3"
    },
    {
      "bufferView": 2,
      "byteOffset": 3931920,
      "componentType": 5126,
      "count": 65532,
      "max": [
        1,
        1,
        1
      ],
      "min": [
        -1,
        -0.99999994039535522,
        -1
      ],
      "type": "VEC3"
    },
    {
      "bufferView": 3,
      "byteOffset": 2097024,
      "componentType": 5126,
      "count": 65532,
      "max": [
        1,
        0.9986732006072998,
        1,
        1
      ],
      "min": [
        -1,
        -0.99763590097427368,
        -0.99997013807296753,
        1
      ],
      "type": "VEC4"
    },
    {
      "bufferView": 1,
      "byteOffset": 1048512,
      "componentType": 5126,
      "count": 65532,
      "max": [
        0.97169798612594604,
        1
      ],
      "min": [
        0,
        0.026926999911665916
      ],
      "type": "VEC2"
    },
    {
      "bufferView": 0,
      "byteOffset": 2589468,
      "componentType": 5125,
      "count": 273834,
      "max": [
        65531
      ],
      "min": [
        0
      ],
      "type": "SCALAR"
    },
    {
      "bufferView": 2,
      "byteOffset": 4718304,
      "componentType": 5126,
      "count": 65532,
      "max": [
        61.88800048828125,
        9.8149499893188477,
        77.820396423339844
      ],
      "min": [
        8.0141496658325195,
        -31.792800903320312,
        0.001129999989643693
      ],
      "type": "VEC3"
    },
    {
      "bufferView": 2,
      "byteOffset": 5504688,
      "componentType": 5126,
      "count": 65532,
      "max": [
        1,
        1,
        1
      ],
      "min": [
        -0.99997669458389282,
        -1,
        -1
      ],
      "type": "VEC3"
    },
    {
      "bufferView": 3,
      "byteOffset": 3145536,
      "componentType": 5126,
      "count": 65532,
      "max": [
        1,
        0.99997609853744507,
        1,
        1
      ],
      "min": [
        -1,
        -0.95989346504211426,
        -0.99414235353469849,
        1
      ],
      "type": "VEC4"
    },
    {
      "bufferView": 1,
      "byteOffset": 1572768,
      "componentType": 5126,
      "count": 65532,
      "max": [
        0.97108697891235352,
        1
      ],
      "min": [
        0,
        0.16032500565052032
      ],
      "type": "VEC2"
    },
    {
      "bufferView": 0,
      "byteOffset": 3684804,
      "componentType": 5125,
      "count": 298452,
      "max": [
        65531
      ],
      "min": [
        0
      ],
      "type": "SCALAR"
    },
    {
      "bufferView": 2,
      "byteOffset": 6291072,
      "componentType": 5126,
      "count": 35236,
      "max": [
        55.380599975585938,
        4.8530697822570801,
        83.393997192382812
      ],
      "min": [
        8.0141496658325195,
        -30.348400115966797,
        42.678199768066406
      ],
      "type": "VEC3"
    },
    {
      "bufferView": 2,
      "byteOffset": 6713904,
      "componentType": 5126,
      "count": 35236,
      "max": [
        1,
        0.9999997615814209,
        1
      ],
      "min": [
        -0.97911351919174194,
        -1,
        -0.99851489067077637
      ],
      "type": "VEC3"
    },
    {
      "bufferView": 3,
      "byteOffset": 4194048,
      "componentType": 5126,
      "count": 35236,
      "max": [
        1,
        0.997844398021698,
        1,
        1
      ],
      "min": [
        -1,
        -0.99336808919906616,
        -0.98202657699584961,
        1
      ],
      "type": "VEC4"
    },
    {
      "bufferView": 1,
      "byteOffset": 2097024,
      "componentType": 5126,
      "count": 35236,
      "max": [
        0.85164499282836914,
        1
      ],
      "min": [
        0,
        0.030760999768972397
      ],
      "type": "VEC2"
    },
    {
      "bufferView": 0,
      "byteOffset": 4878612,
      "componentType": 5125,
      "count": 147687,
      "max": [
        35235
      ],
      "min": [
        0
      ],
      "type": "SCALAR"
    }
  ],
  "asset": {
    "extras": {
      "author": "XRchaeology Team (https://sketchfab.com/KayeleighS)",
      "license": "CC-BY-4.0 (http://creativecommons.org/licenses/by/4.0/)",
      "source": "https://sketchfab.com/3d-models/gallinazo-owl-b197-f3501ad03c1d497ca8902e6d799936e2",
      "title": "Gallinazo Owl (B197)"
    },
    "generator": "Sketchfab-7.13.0",
    "version": "2.0"
  },
  "bufferViews": [
    {
      "buffer": 0,
      "byteLength": 5469360,
      "byteOffset": 0,
      "name": "floatBufferViews",
      "target": 34963
    },
    {
      "buffer": 0,
      "byteLength": 2378912,
      "byteOffset": 5469360,
      "byteStride": 8,
      "name": "floatBufferViews",
      "target": 34962
    },
    {
      "buffer": 0,
      "byteLength": 7136736,
      "byteOffset": 7848272,
      "byteStride": 12,
      "name": "floatBufferViews",
      "target": 34962
    },
    {
      "buffer": 0,
      "byteLength": 4757824,
      "byteOffset": 14985008,
      "byteStride": 16,
      "name": "floatBufferViews",
      "target": 34962
    }
  ],
  "buffers": [
    {
      "byteLength": 19742832,
      "uri": "scene.bin"
    }
  ],
  "extensionsUsed": [
    "KHR_materials_unlit"
  ],
  "images": [
    {
      "uri": "textures/Material_baseColor.jpeg"
    }
  ],
  "materials": [
    {
      "doubleSided": true,
      "emissiveFactor": [
        0,
        0,
        0
      ],
      "extensions": {
        "KHR_materials_unlit": {}
      },
      "name": "Material",
      "pbrMetallicRoughness": {
        "baseColorFactor": [
          1,
          1,
          1,
          1
        ],
        "baseColorTexture": {
          "index": 0,
          "texCoord": 0
        },
        "metallicFactor": 0,
        "roughnessFactor": 1
      }
    }
  ],
  "meshes": [
    {
      "primitives": [
        {
          "attributes": {
            "NORMAL": 1,
            "POSITION": 0,
            "TANGENT": 2,
            "TEXCOORD_0": 3
          },
          "indices": 4,
          "material": 0,
          "mode": 4
        }
      ]
    },
    {
      "primitives": [
        {
          "attributes": {
            "NORMAL": 6,
            "POSITION": 5,
            "TANGENT": 7,
            "TEXCOORD_0": 8
          },
          "indices": 9,
          "material": 0,
          "mode": 4
        }
      ]
    },
    {
      "primitives": [
        {
          "attributes": {
            "NORMAL": 11,
            "POSITION": 10,
            "TANGENT": 12,
            "TEXCOORD_0": 13
          },
          "indices": 14,
          "material": 0,
          "mode": 4
        }
      ]
    },
    {
      "primitives": [
        {
          "attributes": {
            "NORMAL": 16,
            "POSITION": 15,
            "TANGENT": 17,
            "TEXCOORD_0": 18
          },
          "indices": 19,
          "material": 0,
          "mode": 4
        }
      ]
    },
    {
      "primitives": [
        {
          "attributes": {
            "NORMAL": 21,
            "POSITION": 20,
            "TANGENT": 22,
            "TEXCOORD_0": 23
          },
          "indices": 24,
          "material": 0,
          "mode": 4
        }
      ]
    }
  ],
  "nodes": [
    {
      "children": [
        1
      ],
      "name": "RootNode (gltf orientation matrix)",
      "rotation": [
        -0.70710678118654746,
        -0,
        -0,
        0.70710678118654757
      ]
    },
    {
      "children": [
        2
      ],
      "matrix": [
        0.98877018690109253,
        -0.1103525310754776,
        0.10077603161334991,
        0,
        0.11060850322246552,
        0.99385935068130493,
        0.0030612885020673275,
        0,
        -0.10049502551555634,
        0.0081197749823331833,
        0.99490439891815186,
        0,
        7.8057827949523926,
        1.7844198942184448,
        -3.1573357582092285,
        1
      ],
      "name": "RootNode (model correction matrix)"
    },
    {
      "children": [
        3,
        4,
        5,
        6,
        7
      ],
      "name": "C_B197-Gallinazo-Face 4_owl.obj.cleaner.materialmerger.gles"
    },
    {
      "mesh": 0,
      "name": ""
    },
    {
      "mesh": 1,
      "name": ""
    },
    {
      "mesh": 2,
      "name": ""
    },
    {
      "mesh": 3,
      "name": ""
    },
    {
      "mesh": 4,
      "name": ""
    }
  ],
  "samplers": [
    {
      "magFilter": 9729,
      "minFilter": 9987,
      "wrapS": 10497,
      "wrapT": 10497
    }
  ],
  "scene": 0,
  "scenes": [
    {
      "name": "OSG_Scene",
      "nodes": [
        0
      ]
    }
  ],
  "textures": [
    {
      "sampler": 0,
      "source": 0
    }
  ]
}

