{
  "accessors": [
    {
      "bufferView": 2,
      "componentType": 5126,
      "count": 65533,
      "max": [
        17.956499099731445,
        5.6563901901245117,
        45.816699981689453
      ],
      "min": [
        -17.991899490356445,
        -17.316600799560547,
        10.501399993896484
      ],
      "type": "VEC3"
    },
    {
      "bufferView": 2,
      "byteOffset": 786396,
      "componentType": 5126,
      "count": 65533,
      "max": [
        1,
        1,
        1
      ],
      "min": [
        -0.99994426965713501,
        -1,
        -1
      ],
      "type": "VEC3"
    },
    {
      "bufferView": 3,
      "componentType": 5126,
      "count": 65533,
      "max": [
        1,
        0.93347227573394775,
        1,
        1
      ],
      "min": [
        -0.96535533666610718,
        -0.98070073127746582,
        -0.99567317962646484,
        1
      ],
      "type": "VEC4"
    },
    {
      "bufferView": 1,
      "componentType": 5126,
      "count": 65533,
      "max": [
        0.90871298313140869,
        1
      ],
      "min": [
        0,
        0.11162199825048447
      ],
      "type": "VEC2"
    },
    {
      "bufferView": 0,
      "componentType": 5125,
      "count": 322707,
      "max": [
        65532
      ],
      "min": [
        0
      ],
      "type": "SCALAR"
    },
    {
      "bufferView": 2,
      "byteOffset": 1572792,
      "componentType": 5126,
      "count": 65532,
      "max": [
        14.320300102233887,
        -0.7884100079536438,
        52.758598327636719
      ],
      "min": [
        -16.422199249267578,
        -17.559000015258789,
        17.553400039672852
      ],
      "type": "VEC3"
    },
    {
      "bufferView": 2,
      "byteOffset": 2359176,
      "componentType": 5126,
      "count": 65532,
      "max": [
        0.99861449003219604,
        0.9999997615814209,
        1
      ],
      "min": [
        -1,
        -1,
        -1
      ],
      "type": "VEC3"
    },
    {
      "bufferView": 3,
      "byteOffset": 1048528,
      "componentType": 5126,
      "count": 65532,
      "max": [
        1,
        0.95710724592208862,
        1,
        1
      ],
      "min": [
        -0.99311995506286621,
        -0.92222797870635986,
        -0.99986916780471802,
        1
      ],
      "type": "VEC4"
    },
    {
      "bufferView": 1,
      "byteOffset": 524264,
      "componentType": 5126,
      "count": 65532,
      "max": [
        0.88366997241973877,
        1
      ],
      "min": [
        0,
        0.13403600454330444
      ],
      "type": "VEC2"
    },
    {
      "bufferView": 0,
      "byteOffset": 1290828,
      "componentType": 5125,
      "count": 312942,
      "max": [
        65531
      ],
      "min": [
        0
      ],
      "type": "SCALAR"
    },
    {
      "bufferView": 2,
      "byteOffset": 3145560,
      "componentType": 5126,
      "count": 65532,
      "max": [
        27.295200347900391,
        9.2089996337890625,
        63.832500457763672
      ],
      "min": [
        -5.8441400527954102,
        -15.776100158691406,
        11.743300437927246
      ],
      "type": "VEC3"
    },
    {
      "bufferView": 2,
      "byteOffset": 3931944,
      "componentType": 5126,
      "count": 65532,
      "max": [
        0.99990165233612061,
        0.99999940395355225,
        0.89279627799987793
      ],
      "min": [
        -0.99181830883026123,
        -0.99998146295547485,
        -0.9791187047958374
      ],
      "type": "VEC3"
    },
    {
      "bufferView": 3,
      "byteOffset": 2097040,
      "componentType": 5126,
      "count": 65532,
      "max": [
        0.99999541044235229,
        0.94143640995025635,
        1,
        1
      ],
      "min": [
        -0.96228033304214478,
        -0.93544936180114746,
        -0.96589219570159912,
        1
      ],
      "type": "VEC4"
    },
    {
      "bufferView": 1,
      "byteOffset": 1048520,
      "componentType": 5126,
      "count": 65532,
      "max": [
        0.94261598587036133,
        1
      ],
      "min": [
        0,
        0.056159999221563339
      ],
      "type": "VEC2"
    },
    {
      "bufferView": 0,
      "byteOffset": 2542596,
      "componentType": 5125,
      "count": 304602,
      "max": [
        65531
      ],
      "min": [
        0
      ],
      "type": "SCALAR"
    },
    {
      "bufferView": 2,
      "byteOffset": 4718328,
      "componentType": 5126,
      "count": 65532,
      "max": [
        27.440900802612305,
        9.2089996337890625,
        64.106597900390625
      ],
      "min": [
        4.7339301109313965,
        -15.002699851989746,
        12.074600219726562
      ],
      "type": "VEC3"
    },
    {
      "bufferView": 2,
      "byteOffset": 5504712,
      "componentType": 5126,
      "count": 65532,
      "max": [
        1,
        0.99999809265136719,
        1
      ],
      "min": [
        -0.99168670177459717,
        -0.99947923421859741,
        -1
      ],
      "type": "VEC3"
    },
    {
      "bufferView": 3,
      "byteOffset": 3145552,
      "componentType": 5126,
      "count": 65532,
      "max": [
        0.99999845027923584,
        0.90401065349578857,
        1,
        1
      ],
      "min": [
        -0.97598773241043091,
        -0.94411808252334595,
        -0.96491599082946777,
        1
      ],
      "type": "VEC4"
    },
    {
      "bufferView": 1,
      "byteOffset": 1572776,
      "componentType": 5126,
      "count": 65532,
      "max": [
        0.92336899042129517,
        1
      ],
      "min": [
        0,
        0.055220000445842743
      ],
      "type": "VEC2"
    },
    {
      "bufferView": 0,
      "byteOffset": 3761004,
      "componentType": 5125,
      "count": 272826,
      "max": [
        65531
      ],
      "min": [
        0
      ],
      "type": "SCALAR"
    },
    {
      "bufferView": 2,
      "byteOffset": 6291096,
      "componentType": 5126,
      "count": 31087,
      "max": [
        24.657699584960938,
        -4.094059944152832,
        66.573402404785156
      ],
      "min": [
        4.7339301109313965,
        -14.003000259399414,
        38.709598541259766
      ],
      "type": "VEC3"
    },
    {
      "bufferView": 2,
      "byteOffset": 6664140,
      "componentType": 5126,
      "count": 31087,
      "max": [
        1,
        0.99995607137680054,
        1
      ],
      "min": [
        -1,
        -0.99995303153991699,
        -1
      ],
      "type": "VEC3"
    },
    {
      "bufferView": 3,
      "byteOffset": 4194064,
      "componentType": 5126,
      "count": 31087,
      "max": [
        0.9999992847442627,
        0.93243217468261719,
        1,
        1
      ],
      "min": [
        -0.99607473611831665,
        -0.82010453939437866,
        -0.9597129225730896,
        1
      ],
      "type": "VEC4"
    },
    {
      "bufferView": 1,
      "byteOffset": 2097032,
      "componentType": 5126,
      "count": 31087,
      "max": [
        0.94443398714065552,
        1
      ],
      "min": [
        0,
        0.059592999517917633
      ],
      "type": "VEC2"
    },
    {
      "bufferView": 0,
      "byteOffset": 4852308,
      "componentType": 5125,
      "count": 126543,
      "max": [
        31086
      ],
      "min": [
        0
      ],
      "type": "SCALAR"
    }
  ],
  "asset": {
    "extras": {
      "author": "XRchaeology Team (https://sketchfab.com/KayeleighS)",
      "license": "CC-BY-4.0 (http://creativecommons.org/licenses/by/4.0/)",
      "source": "https://sketchfab.com/3d-models/c-b184-face1-5809851ff3f3427daa66ba06cdb6e780",
      "title": "C B184- Face1"
    },
    "generator": "Sketchfab-6.43.0",
    "version": "2.0"
  },
  "bufferViews": [
    {
      "buffer": 0,
      "byteLength": 5358480,
      "byteOffset": 0,
      "name": "floatBufferViews",
      "target": 34963
    },
    {
      "buffer": 0,
      "byteLength": 2345728,
      "byteOffset": 5358480,
      "byteStride": 8,
      "name": "floatBufferViews",
      "target": 34962
    },
    {
      "buffer": 0,
      "byteLength": 7037184,
      "byteOffset": 7704208,
      "byteStride": 12,
      "name": "floatBufferViews",
      "target": 34962
    },
    {
      "buffer": 0,
      "byteLength": 4691456,
      "byteOffset": 14741392,
      "byteStride": 16,
      "name": "floatBufferViews",
      "target": 34962
    }
  ],
  "buffers": [
    {
      "byteLength": 19432848,
      "uri": "scene.bin"
    }
  ],
  "extensionsUsed": [
    "KHR_materials_unlit"
  ],
  "images": [
    {
      "uri": "textures/Material_baseColor.jpeg"
    }
  ],
  "materials": [
    {
      "doubleSided": true,
      "emissiveFactor": [
        0,
        0,
        0
      ],
      "extensions": {
        "KHR_materials_unlit": {}
      },
      "name": "Material",
      "pbrMetallicRoughness": {
        "baseColorFactor": [
          1,
          1,
          1,
          1
        ],
        "baseColorTexture": {
          "index": 0,
          "texCoord": 0
        },
        "metallicFactor": 0,
        "roughnessFactor": 1
      }
    }
  ],
  "meshes": [
    {
      "primitives": [
        {
          "attributes": {
            "NORMAL": 1,
            "POSITION": 0,
            "TANGENT": 2,
            "TEXCOORD_0": 3
          },
          "indices": 4,
          "material": 0,
          "mode": 4
        }
      ]
    },
    {
      "primitives": [
        {
          "attributes": {
            "NORMAL": 6,
            "POSITION": 5,
            "TANGENT": 7,
            "TEXCOORD_0": 8
          },
          "indices": 9,
          "material": 0,
          "mode": 4
        }
      ]
    },
    {
      "primitives": [
        {
          "attributes": {
            "NORMAL": 11,
            "POSITION": 10,
            "TANGENT": 12,
            "TEXCOORD_0": 13
          },
          "indices": 14,
          "material": 0,
          "mode": 4
        }
      ]
    },
    {
      "primitives": [
        {
          "attributes": {
            "NORMAL": 16,
            "POSITION": 15,
            "TANGENT": 17,
            "TEXCOORD_0": 18
          },
          "indices": 19,
          "material": 0,
          "mode": 4
        }
      ]
    },
    {
      "primitives": [
        {
          "attributes": {
            "NORMAL": 21,
            "POSITION": 20,
            "TANGENT": 22,
            "TEXCOORD_0": 23
          },
          "indices": 24,
          "material": 0,
          "mode": 4
        }
      ]
    }
  ],
  "nodes": [
    {
      "children": [
        1
      ],
      "name": "RootNode (gltf orientation matrix)",
      "rotation": [
        -0.70710678118654746,
        -0,
        -0,
        0.70710678118654757
      ]
    },
    {
      "children": [
        2
      ],
      "name": "RootNode (model correction matrix)"
    },
    {
      "children": [
        3,
        4,
        5,
        6,
        7
      ],
      "name": "C_B184-Face1.obj.cleaner.materialmerger.gles"
    },
    {
      "mesh": 0,
      "name": ""
    },
    {
      "mesh": 1,
      "name": ""
    },
    {
      "mesh": 2,
      "name": ""
    },
    {
      "mesh": 3,
      "name": ""
    },
    {
      "mesh": 4,
      "name": ""
    }
  ],
  "samplers": [
    {
      "magFilter": 9729,
      "minFilter": 9987,
      "wrapS": 10497,
      "wrapT": 10497
    }
  ],
  "scene": 0,
  "scenes": [
    {
      "name": "OSG_Scene",
      "nodes": [
        0
      ]
    }
  ],
  "textures": [
    {
      "sampler": 0,
      "source": 0
    }
  ]
}

