{
  "accessors": [
    {
      "bufferView": 1,
      "componentType": 5126,
      "count": 8722,
      "max": [
        106089.3046875,
        16851.01953125,
        73360.6953125
      ],
      "min": [
        67471.875,
        350.29428100585938,
        40979.0625
      ],
      "type": "VEC3"
    },
    {
      "bufferView": 1,
      "byteOffset": 104664,
      "componentType": 5126,
      "count": 8722,
      "max": [
        0.99977952241897583,
        1,
        0.99971085786819458
      ],
      "min": [
        -1,
        -1,
        -0.99955469369888306
      ],
      "type": "VEC3"
    },
    {
      "bufferView": 1,
      "byteOffset": 209328,
      "componentType": 5126,
      "count": 8722,
      "max": [
        0.55686277151107788,
        0.66666668653488159,
        0.3490196168422699
      ],
      "min": [
        0.50980395078659058,
        0.43137255311012268,
        0.28235295414924622
      ],
      "type": "VEC3"
    },
    {
      "bufferView": 0,
      "componentType": 5125,
      "count": 48096,
      "max": [
        8721
      ],
      "min": [
        0
      ],
      "type": "SCALAR"
    },
    {
      "bufferView": 1,
      "byteOffset": 313992,
      "componentType": 5126,
      "count": 8668,
      "max": [
        112365.09375,
        16851.01953125,
        78313.6484375
      ],
      "min": [
        65650.328125,
        118.59036254882812,
        42979.0625
      ],
      "type": "VEC3"
    },
    {
      "bufferView": 1,
      "byteOffset": 418008,
      "componentType": 5126,
      "count": 8668,
      "max": [
        0.99977952241897583,
        1,
        0.99971085786819458
      ],
      "min": [
        -1,
        -1,
        -0.99956023693084717
      ],
      "type": "VEC3"
    },
    {
      "bufferView": 1,
      "byteOffset": 522024,
      "componentType": 5126,
      "count": 8668,
      "max": [
        0.55686277151107788,
        0.66666668653488159,
        0.3490196168422699
      ],
      "min": [
        0.50980395078659058,
        0.43137255311012268,
        0.28235295414924622
      ],
      "type": "VEC3"
    },
    {
      "bufferView": 0,
      "byteOffset": 192384,
      "componentType": 5125,
      "count": 47706,
      "max": [
        8667
      ],
      "min": [
        0
      ],
      "type": "SCALAR"
    },
    {
      "bufferView": 1,
      "byteOffset": 626040,
      "componentType": 5126,
      "count": 5524,
      "max": [
        134710.375,
        24652.048828125,
        187070.65625
      ],
      "min": [
        63499.81640625,
        0,
        69589.53125
      ],
      "type": "VEC3"
    },
    {
      "bufferView": 1,
      "byteOffset": 692328,
      "componentType": 5126,
      "count": 5524,
      "max": [
        1,
        1,
        0.9994315505027771
      ],
      "min": [
        -1,
        -1,
        -0.99874657392501831
      ],
      "type": "VEC3"
    },
    {
      "bufferView": 1,
      "byteOffset": 758616,
      "componentType": 5126,
      "count": 5524,
      "max": [
        0.62745100259780884,
        0.66666668653488159,
        0.62745100259780884
      ],
      "min": [
        0.50980395078659058,
        0.43137255311012268,
        0.28235295414924622
      ],
      "type": "VEC3"
    },
    {
      "bufferView": 0,
      "byteOffset": 383208,
      "componentType": 5125,
      "count": 27924,
      "max": [
        5523
      ],
      "min": [
        0
      ],
      "type": "SCALAR"
    },
    {
      "bufferView": 1,
      "byteOffset": 824904,
      "componentType": 5126,
      "count": 18944,
      "max": [
        69361.7578125,
        14941.12109375,
        137258.84375
      ],
      "min": [
        67371.21875,
        114.96194458007812,
        135268.3125
      ],
      "type": "VEC3"
    },
    {
      "bufferView": 1,
      "byteOffset": 1052232,
      "componentType": 5126,
      "count": 18944,
      "max": [
        0.9999995231628418,
        1,
        0.99999552965164185
      ],
      "min": [
        -0.99995589256286621,
        -1,
        -0.99999749660491943
      ],
      "type": "VEC3"
    },
    {
      "bufferView": 1,
      "byteOffset": 1279560,
      "componentType": 5126,
      "count": 18944,
      "max": [
        0.62745100259780884,
        0.62745100259780884,
        0.62745100259780884
      ],
      "min": [
        0.62745100259780884,
        0.62745100259780884,
        0.62745100259780884
      ],
      "type": "VEC3"
    },
    {
      "bufferView": 0,
      "byteOffset": 494904,
      "componentType": 5125,
      "count": 109446,
      "max": [
        18943
      ],
      "min": [
        0
      ],
      "type": "SCALAR"
    },
    {
      "bufferView": 1,
      "byteOffset": 1506888,
      "componentType": 5126,
      "count": 116,
      "max": [
        29739.6953125,
        5230.193359375,
        134924.3125
      ],
      "min": [
        0,
        374.72921752929688,
        112709.75
      ],
      "type": "VEC3"
    },
    {
      "bufferView": 1,
      "byteOffset": 1508280,
      "componentType": 5126,
      "count": 116,
      "max": [
        1,
        1,
        1
      ],
      "min": [
        -1,
        -1,
        -1
      ],
      "type": "VEC3"
    },
    {
      "bufferView": 1,
      "byteOffset": 1509672,
      "componentType": 5126,
      "count": 116,
      "max": [
        0.62745100259780884,
        0.62745100259780884,
        0.62745100259780884
      ],
      "min": [
        0.62745100259780884,
        0.62745100259780884,
        0.62745100259780884
      ],
      "type": "VEC3"
    },
    {
      "bufferView": 0,
      "byteOffset": 932688,
      "componentType": 5125,
      "count": 216,
      "max": [
        115
      ],
      "min": [
        0
      ],
      "type": "SCALAR"
    },
    {
      "bufferView": 1,
      "byteOffset": 1511064,
      "componentType": 5126,
      "count": 56095,
      "max": [
        30738.1875,
        8549.6650390625,
        107323.71875
      ],
      "min": [
        3242.6171875,
        374.72927856445312,
        84861.8125
      ],
      "type": "VEC3"
    },
    {
      "bufferView": 1,
      "byteOffset": 2184204,
      "componentType": 5126,
      "count": 56095,
      "max": [
        1,
        1,
        1
      ],
      "min": [
        -1,
        -1,
        -1
      ],
      "type": "VEC3"
    },
    {
      "bufferView": 1,
      "byteOffset": 2857344,
      "componentType": 5126,
      "count": 56095,
      "max": [
        0.62745100259780884,
        0.62745100259780884,
        0.62745100259780884
      ],
      "min": [
        0.62745100259780884,
        0.62745100259780884,
        0.62745100259780884
      ],
      "type": "VEC3"
    },
    {
      "bufferView": 0,
      "byteOffset": 933552,
      "componentType": 5125,
      "count": 328797,
      "max": [
        56094
      ],
      "min": [
        0
      ],
      "type": "SCALAR"
    },
    {
      "bufferView": 1,
      "byteOffset": 3530484,
      "componentType": 5126,
      "count": 3422,
      "max": [
        182553.125,
        24652.048828125,
        176077.984375
      ],
      "min": [
        46200.25390625,
        374.72927856445312,
        0
      ],
      "type": "VEC3"
    },
    {
      "bufferView": 1,
      "byteOffset": 3571548,
      "componentType": 5126,
      "count": 3422,
      "max": [
        1,
        1,
        1
      ],
      "min": [
        -1,
        -1,
        -1
      ],
      "type": "VEC3"
    },
    {
      "bufferView": 1,
      "byteOffset": 3612612,
      "componentType": 5126,
      "count": 3422,
      "max": [
        0.62745100259780884,
        0.66666668653488159,
        0.62745100259780884
      ],
      "min": [
        0.50980395078659058,
        0.62745100259780884,
        0.3490196168422699
      ],
      "type": "VEC3"
    },
    {
      "bufferView": 0,
      "byteOffset": 2248740,
      "componentType": 5125,
      "count": 7638,
      "max": [
        3421
      ],
      "min": [
        0
      ],
      "type": "SCALAR"
    },
    {
      "bufferView": 1,
      "byteOffset": 3653676,
      "componentType": 5126,
      "count": 27842,
      "max": [
        205898.859375,
        779.351318359375,
        184731.625
      ],
      "min": [
        21705.1796875,
        374.72927856445312,
        15668.3125
      ],
      "type": "VEC3"
    },
    {
      "bufferView": 1,
      "byteOffset": 3987780,
      "componentType": 5126,
      "count": 27842,
      "max": [
        1,
        1,
        1
      ],
      "min": [
        -1,
        -1,
        -1
      ],
      "type": "VEC3"
    },
    {
      "bufferView": 1,
      "byteOffset": 4321884,
      "componentType": 5126,
      "count": 27842,
      "max": [
        0.62745100259780884,
        0.62745100259780884,
        0.62745100259780884
      ],
      "min": [
        0.62745100259780884,
        0.62745100259780884,
        0.62745100259780884
      ],
      "type": "VEC3"
    },
    {
      "bufferView": 0,
      "byteOffset": 2279292,
      "componentType": 5125,
      "count": 124590,
      "max": [
        27841
      ],
      "min": [
        0
      ],
      "type": "SCALAR"
    },
    {
      "bufferView": 1,
      "byteOffset": 4655988,
      "componentType": 5126,
      "count": 8778,
      "max": [
        200548.09375,
        24652.048828125,
        180064.671875
      ],
      "min": [
        76650.328125,
        350.29428100585938,
        44427.5625
      ],
      "type": "VEC3"
    },
    {
      "bufferView": 1,
      "byteOffset": 4761324,
      "componentType": 5126,
      "count": 8778,
      "max": [
        1,
        1,
        1
      ],
      "min": [
        -1,
        -1,
        -1
      ],
      "type": "VEC3"
    },
    {
      "bufferView": 1,
      "byteOffset": 4866660,
      "componentType": 5126,
      "count": 8778,
      "max": [
        0.62745100259780884,
        0.66666668653488159,
        0.62745100259780884
      ],
      "min": [
        0.50980395078659058,
        0.43137255311012268,
        0.28235295414924622
      ],
      "type": "VEC3"
    },
    {
      "bufferView": 0,
      "byteOffset": 2777652,
      "componentType": 5125,
      "count": 46539,
      "max": [
        8777
      ],
      "min": [
        0
      ],
      "type": "SCALAR"
    },
    {
      "bufferView": 1,
      "byteOffset": 4971996,
      "componentType": 5126,
      "count": 273,
      "max": [
        85073.015625,
        6175.08349609375,
        73644.15625
      ],
      "min": [
        81966.328125,
        350.29428100585938,
        72423.3671875
      ],
      "type": "VEC3"
    },
    {
      "bufferView": 1,
      "byteOffset": 4975272,
      "componentType": 5126,
      "count": 273,
      "max": [
        0.99500918388366699,
        0.10285891592502594,
        0.94398117065429688
      ],
      "min": [
        -0.33012959361076355,
        -1,
        -0.99874645471572876
      ],
      "type": "VEC3"
    },
    {
      "bufferView": 1,
      "byteOffset": 4978548,
      "componentType": 5126,
      "count": 273,
      "max": [
        0.55686277151107788,
        0.43137255311012268,
        0.28235295414924622
      ],
      "min": [
        0.55686277151107788,
        0.43137255311012268,
        0.28235295414924622
      ],
      "type": "VEC3"
    },
    {
      "bufferView": 0,
      "byteOffset": 2963808,
      "componentType": 5125,
      "count": 1557,
      "max": [
        272
      ],
      "min": [
        0
      ],
      "type": "SCALAR"
    },
    {
      "bufferView": 1,
      "byteOffset": 4981824,
      "componentType": 5126,
      "count": 10262,
      "max": [
        129726.6875,
        9276.4130859375,
        75664.3203125
      ],
      "min": [
        114158.4765625,
        374.72927856445312,
        57646.3984375
      ],
      "type": "VEC3"
    },
    {
      "bufferView": 1,
      "byteOffset": 5104968,
      "componentType": 5126,
      "count": 10262,
      "max": [
        1,
        1,
        1
      ],
      "min": [
        -1,
        -1,
        -1
      ],
      "type": "VEC3"
    },
    {
      "bufferView": 1,
      "byteOffset": 5228112,
      "componentType": 5126,
      "count": 10262,
      "max": [
        0.62745100259780884,
        0.62745100259780884,
        0.62745100259780884
      ],
      "min": [
        0.62745100259780884,
        0.62745100259780884,
        0.62745100259780884
      ],
      "type": "VEC3"
    },
    {
      "bufferView": 0,
      "byteOffset": 2970036,
      "componentType": 5125,
      "count": 57798,
      "max": [
        10261
      ],
      "min": [
        0
      ],
      "type": "SCALAR"
    },
    {
      "bufferView": 1,
      "byteOffset": 5351256,
      "componentType": 5126,
      "count": 118,
      "max": [
        84713.0390625,
        5215.68994140625,
        73644.15625
      ],
      "min": [
        83914.265625,
        350.29428100585938,
        72485.5078125
      ],
      "type": "VEC3"
    },
    {
      "bufferView": 1,
      "byteOffset": 5352672,
      "componentType": 5126,
      "count": 118,
      "max": [
        -0.030712131410837173,
        0.072217032313346863,
        0.99943441152572632
      ],
      "min": [
        -0.99947154521942139,
        0.013503322377800941,
        -0.72893625497817993
      ],
      "type": "VEC3"
    },
    {
      "bufferView": 1,
      "byteOffset": 5354088,
      "componentType": 5126,
      "count": 118,
      "max": [
        0.55686277151107788,
        0.43137255311012268,
        0.28235295414924622
      ],
      "min": [
        0.55686277151107788,
        0.43137255311012268,
        0.28235295414924622
      ],
      "type": "VEC3"
    },
    {
      "bufferView": 0,
      "byteOffset": 3201228,
      "componentType": 5125,
      "count": 642,
      "max": [
        117
      ],
      "min": [
        0
      ],
      "type": "SCALAR"
    }
  ],
  "asset": {
    "extras": {
      "author": "XRchaeology Team (https://sketchfab.com/XRchaeology)",
      "license": "CC-BY-4.0 (http://creativecommons.org/licenses/by/4.0/)",
      "source": "https://sketchfab.com/3d-models/siu-map-v10-61dd916e70464dbeb89e32849a0a4921",
      "title": "SIU Map V10"
    },
    "generator": "Sketchfab-10.31.0",
    "version": "2.0"
  },
  "bufferViews": [
    {
      "buffer": 0,
      "byteLength": 3203796,
      "byteOffset": 0,
      "name": "floatBufferViews",
      "target": 34963
    },
    {
      "buffer": 0,
      "byteLength": 5355504,
      "byteOffset": 3203796,
      "byteStride": 12,
      "name": "floatBufferViews",
      "target": 34962
    }
  ],
  "buffers": [
    {
      "byteLength": 8559300,
      "uri": "scene.bin"
    }
  ],
  "materials": [
    {
      "doubleSided": true,
      "name": "Scene_-_Root",
      "pbrMetallicRoughness": {
        "baseColorFactor": [
          1,
          1,
          1,
          1
        ],
        "metallicFactor": 0,
        "roughnessFactor": 0.59999999999999998
      }
    }
  ],
  "meshes": [
    {
      "primitives": [
        {
          "attributes": {
            "COLOR_0": 2,
            "NORMAL": 1,
            "POSITION": 0
          },
          "indices": 3,
          "material": 0,
          "mode": 4
        }
      ]
    },
    {
      "primitives": [
        {
          "attributes": {
            "COLOR_0": 6,
            "NORMAL": 5,
            "POSITION": 4
          },
          "indices": 7,
          "material": 0,
          "mode": 4
        }
      ]
    },
    {
      "primitives": [
        {
          "attributes": {
            "COLOR_0": 10,
            "NORMAL": 9,
            "POSITION": 8
          },
          "indices": 11,
          "material": 0,
          "mode": 4
        }
      ]
    },
    {
      "primitives": [
        {
          "attributes": {
            "COLOR_0": 14,
            "NORMAL": 13,
            "POSITION": 12
          },
          "indices": 15,
          "material": 0,
          "mode": 4
        }
      ]
    },
    {
      "primitives": [
        {
          "attributes": {
            "COLOR_0": 18,
            "NORMAL": 17,
            "POSITION": 16
          },
          "indices": 19,
          "material": 0,
          "mode": 4
        }
      ]
    },
    {
      "primitives": [
        {
          "attributes": {
            "COLOR_0": 22,
            "NORMAL": 21,
            "POSITION": 20
          },
          "indices": 23,
          "material": 0,
          "mode": 4
        }
      ]
    },
    {
      "primitives": [
        {
          "attributes": {
            "COLOR_0": 26,
            "NORMAL": 25,
            "POSITION": 24
          },
          "indices": 27,
          "material": 0,
          "mode": 4
        }
      ]
    },
    {
      "primitives": [
        {
          "attributes": {
            "COLOR_0": 30,
            "NORMAL": 29,
            "POSITION": 28
          },
          "indices": 31,
          "material": 0,
          "mode": 4
        }
      ]
    },
    {
      "primitives": [
        {
          "attributes": {
            "COLOR_0": 34,
            "NORMAL": 33,
            "POSITION": 32
          },
          "indices": 35,
          "material": 0,
          "mode": 4
        }
      ]
    },
    {
      "primitives": [
        {
          "attributes": {
            "COLOR_0": 38,
            "NORMAL": 37,
            "POSITION": 36
          },
          "indices": 39,
          "material": 0,
          "mode": 4
        }
      ]
    },
    {
      "primitives": [
        {
          "attributes": {
            "COLOR_0": 42,
            "NORMAL": 41,
            "POSITION": 40
          },
          "indices": 43,
          "material": 0,
          "mode": 4
        }
      ]
    },
    {
      "primitives": [
        {
          "attributes": {
            "COLOR_0": 46,
            "NORMAL": 45,
            "POSITION": 44
          },
          "indices": 47,
          "material": 0,
          "mode": 4
        }
      ]
    }
  ],
  "nodes": [
    {
      "children": [
        1
      ],
      "name": "RootNode (gltf orientation matrix)",
      "rotation": [
        -0.70710678118654746,
        -0,
        -0,
        0.70710678118654757
      ]
    },
    {
      "children": [
        2
      ],
      "name": "RootNode (model correction matrix)"
    },
    {
      "children": [
        3,
        4,
        5,
        6,
        7,
        8,
        9,
        10,
        11,
        12,
        13,
        14
      ],
      "matrix": [
        1,
        0,
        0,
        0,
        0,
        1,
        0,
        0,
        0,
        0,
        1,
        0,
        -109977.5859375,
        -374.72927856445312,
        -159351.1875,
        1
      ],
      "name": "skfb_offset"
    },
    {
      "mesh": 0,
      "name": ""
    },
    {
      "mesh": 1,
      "name": ""
    },
    {
      "mesh": 2,
      "name": ""
    },
    {
      "mesh": 3,
      "name": ""
    },
    {
      "mesh": 4,
      "name": ""
    },
    {
      "mesh": 5,
      "name": ""
    },
    {
      "mesh": 6,
      "name": ""
    },
    {
      "mesh": 7,
      "name": ""
    },
    {
      "mesh": 8,
      "name": ""
    },
    {
      "mesh": 9,
      "name": ""
    },
    {
      "mesh": 10,
      "name": ""
    },
    {
      "mesh": 11,
      "name": ""
    }
  ],
  "scene": 0,
  "scenes": [
    {
      "name": "OSG_Scene",
      "nodes": [
        0
      ]
    }
  ]
}

