{
  "accessors": [
    {
      "bufferView": 2,
      "componentType": 5126,
      "count": 65532,
      "max": [
        19.676700592041016,
        21.098300933837891,
        60.422100067138672
      ],
      "min": [
        -28.245800018310547,
        -11.674200057983398,
        12.750100135803223
      ],
      "type": "VEC3"
    },
    {
      "bufferView": 2,
      "byteOffset": 786384,
      "componentType": 5126,
      "count": 65532,
      "max": [
        0.99985796213150024,
        0.99999994039535522,
        1
      ],
      "min": [
        -1,
        -0.9999924898147583,
        -1
      ],
      "type": "VEC3"
    },
    {
      "bufferView": 3,
      "componentType": 5126,
      "count": 65532,
      "max": [
        1,
        0.97116768360137939,
        1,
        1
      ],
      "min": [
        -0.89954882860183716,
        -0.99993544816970825,
        -0.99989807605743408,
        -1
      ],
      "type": "VEC4"
    },
    {
      "bufferView": 1,
      "componentType": 5126,
      "count": 65532,
      "max": [
        0.88066500425338745,
        1
      ],
      "min": [
        0,
        0.1855510026216507
      ],
      "type": "VEC2"
    },
    {
      "bufferView": 0,
      "componentType": 5125,
      "count": 313152,
      "max": [
        65531
      ],
      "min": [
        0
      ],
      "type": "SCALAR"
    },
    {
      "bufferView": 2,
      "byteOffset": 1572768,
      "componentType": 5126,
      "count": 65532,
      "max": [
        13.475000381469727,
        21.014699935913086,
        74.84429931640625
      ],
      "min": [
        -28.729099273681641,
        -15.308099746704102,
        20.768499374389648
      ],
      "type": "VEC3"
    },
    {
      "bufferView": 2,
      "byteOffset": 2359152,
      "componentType": 5126,
      "count": 65532,
      "max": [
        0.99581247568130493,
        0.99994093179702759,
        0.99997574090957642
      ],
      "min": [
        -0.99997502565383911,
        -0.99996674060821533,
        -0.98903530836105347
      ],
      "type": "VEC3"
    },
    {
      "bufferView": 3,
      "byteOffset": 1048512,
      "componentType": 5126,
      "count": 65532,
      "max": [
        0.99999988079071045,
        0.99208813905715942,
        1,
        1
      ],
      "min": [
        -0.97409510612487793,
        -0.98606199026107788,
        -0.94917154312133789,
        -1
      ],
      "type": "VEC4"
    },
    {
      "bufferView": 1,
      "byteOffset": 524256,
      "componentType": 5126,
      "count": 65532,
      "max": [
        0.92959100008010864,
        1
      ],
      "min": [
        0,
        0.12009000033140182
      ],
      "type": "VEC2"
    },
    {
      "bufferView": 0,
      "byteOffset": 1252608,
      "componentType": 5125,
      "count": 301989,
      "max": [
        65531
      ],
      "min": [
        0
      ],
      "type": "SCALAR"
    },
    {
      "bufferView": 2,
      "byteOffset": 3145536,
      "componentType": 5126,
      "count": 65532,
      "max": [
        27.945699691772461,
        18.455299377441406,
        76.889396667480469
      ],
      "min": [
        -22.983699798583984,
        -11.890399932861328,
        14.01710033416748
      ],
      "type": "VEC3"
    },
    {
      "bufferView": 2,
      "byteOffset": 3931920,
      "componentType": 5126,
      "count": 65532,
      "max": [
        0.99937885999679565,
        0.99992901086807251,
        0.99999994039535522
      ],
      "min": [
        -1,
        -1,
        -0.96130102872848511
      ],
      "type": "VEC3"
    },
    {
      "bufferView": 3,
      "byteOffset": 2097024,
      "componentType": 5126,
      "count": 65532,
      "max": [
        1,
        0.95322412252426147,
        1,
        1
      ],
      "min": [
        -0.98192042112350464,
        -0.96721804141998291,
        -0.99769121408462524,
        1
      ],
      "type": "VEC4"
    },
    {
      "bufferView": 1,
      "byteOffset": 1048512,
      "componentType": 5126,
      "count": 65532,
      "max": [
        0.94585198163986206,
        1
      ],
      "min": [
        0,
        0.13428600132465363
      ],
      "type": "VEC2"
    },
    {
      "bufferView": 0,
      "byteOffset": 2460564,
      "componentType": 5125,
      "count": 273102,
      "max": [
        65531
      ],
      "min": [
        0
      ],
      "type": "SCALAR"
    },
    {
      "bufferView": 2,
      "byteOffset": 4718304,
      "componentType": 5126,
      "count": 65532,
      "max": [
        31.446199417114258,
        17.059799194335938,
        72.073799133300781
      ],
      "min": [
        1.4473700523376465,
        -13.968400001525879,
        12.750100135803223
      ],
      "type": "VEC3"
    },
    {
      "bufferView": 2,
      "byteOffset": 5504688,
      "componentType": 5126,
      "count": 65532,
      "max": [
        1,
        1,
        1
      ],
      "min": [
        -1,
        -1,
        -1
      ],
      "type": "VEC3"
    },
    {
      "bufferView": 3,
      "byteOffset": 3145536,
      "componentType": 5126,
      "count": 65532,
      "max": [
        1,
        0.90183031558990479,
        1,
        1
      ],
      "min": [
        -0.98989391326904297,
        -0.96248579025268555,
        -0.9573783278465271,
        1
      ],
      "type": "VEC4"
    },
    {
      "bufferView": 1,
      "byteOffset": 1572768,
      "componentType": 5126,
      "count": 65532,
      "max": [
        0.93547201156616211,
        1
      ],
      "min": [
        0,
        0.060926999896764755
      ],
      "type": "VEC2"
    },
    {
      "bufferView": 0,
      "byteOffset": 3552972,
      "componentType": 5125,
      "count": 269754,
      "max": [
        65531
      ],
      "min": [
        0
      ],
      "type": "SCALAR"
    },
    {
      "bufferView": 2,
      "byteOffset": 6291072,
      "componentType": 5126,
      "count": 37690,
      "max": [
        31.510099411010742,
        17.510200500488281,
        75.140998840332031
      ],
      "min": [
        1.4473700523376465,
        -9.6434001922607422,
        44.823799133300781
      ],
      "type": "VEC3"
    },
    {
      "bufferView": 2,
      "byteOffset": 6743352,
      "componentType": 5126,
      "count": 37690,
      "max": [
        1,
        1,
        1
      ],
      "min": [
        -0.95652377605438232,
        -0.99999147653579712,
        -1
      ],
      "type": "VEC3"
    },
    {
      "bufferView": 3,
      "byteOffset": 4194048,
      "componentType": 5126,
      "count": 37690,
      "max": [
        1,
        0.89719361066818237,
        1,
        1
      ],
      "min": [
        -0.96624171733856201,
        -0.94537436962127686,
        -0.99051088094711304,
        1
      ],
      "type": "VEC4"
    },
    {
      "bufferView": 1,
      "byteOffset": 2097024,
      "componentType": 5126,
      "count": 37690,
      "max": [
        0.93807899951934814,
        1
      ],
      "min": [
        0,
        0.056255001574754715
      ],
      "type": "VEC2"
    },
    {
      "bufferView": 0,
      "byteOffset": 4631988,
      "componentType": 5125,
      "count": 133107,
      "max": [
        37689
      ],
      "min": [
        0
      ],
      "type": "SCALAR"
    }
  ],
  "asset": {
    "extras": {
      "author": "KayeleighS (https://sketchfab.com/KayeleighS)",
      "license": "CC-BY-4.0 (http://creativecommons.org/licenses/by/4.0/)",
      "source": "https://sketchfab.com/3d-models/c-b183-face-molded2-d18210c8760e43848a25dc035bca6b04",
      "title": "C B183- Face Molded2"
    },
    "generator": "Sketchfab-6.21.0",
    "version": "2.0"
  },
  "bufferViews": [
    {
      "buffer": 0,
      "byteLength": 5164416,
      "byteOffset": 0,
      "name": "floatBufferViews",
      "target": 34963
    },
    {
      "buffer": 0,
      "byteLength": 2398544,
      "byteOffset": 5164416,
      "byteStride": 8,
      "name": "floatBufferViews",
      "target": 34962
    },
    {
      "buffer": 0,
      "byteLength": 7195632,
      "byteOffset": 7562960,
      "byteStride": 12,
      "name": "floatBufferViews",
      "target": 34962
    },
    {
      "buffer": 0,
      "byteLength": 4797088,
      "byteOffset": 14758592,
      "byteStride": 16,
      "name": "floatBufferViews",
      "target": 34962
    }
  ],
  "buffers": [
    {
      "byteLength": 19555680,
      "uri": "scene.bin"
    }
  ],
  "images": [
    {
      "uri": "textures/Material_baseColor.jpeg"
    }
  ],
  "materials": [
    {
      "doubleSided": true,
      "emissiveFactor": [
        0,
        0,
        0
      ],
      "name": "Material",
      "pbrMetallicRoughness": {
        "baseColorFactor": [
          1,
          1,
          1,
          1
        ],
        "baseColorTexture": {
          "index": 0,
          "texCoord": 0
        },
        "metallicFactor": 0,
        "roughnessFactor": 0.97659652680679288
      }
    }
  ],
  "meshes": [
    {
      "primitives": [
        {
          "attributes": {
            "NORMAL": 1,
            "POSITION": 0,
            "TANGENT": 2,
            "TEXCOORD_0": 3
          },
          "indices": 4,
          "material": 0,
          "mode": 4
        }
      ]
    },
    {
      "primitives": [
        {
          "attributes": {
            "NORMAL": 6,
            "POSITION": 5,
            "TANGENT": 7,
            "TEXCOORD_0": 8
          },
          "indices": 9,
          "material": 0,
          "mode": 4
        }
      ]
    },
    {
      "primitives": [
        {
          "attributes": {
            "NORMAL": 11,
            "POSITION": 10,
            "TANGENT": 12,
            "TEXCOORD_0": 13
          },
          "indices": 14,
          "material": 0,
          "mode": 4
        }
      ]
    },
    {
      "primitives": [
        {
          "attributes": {
            "NORMAL": 16,
            "POSITION": 15,
            "TANGENT": 17,
            "TEXCOORD_0": 18
          },
          "indices": 19,
          "material": 0,
          "mode": 4
        }
      ]
    },
    {
      "primitives": [
        {
          "attributes": {
            "NORMAL": 21,
            "POSITION": 20,
            "TANGENT": 22,
            "TEXCOORD_0": 23
          },
          "indices": 24,
          "material": 0,
          "mode": 4
        }
      ]
    }
  ],
  "nodes": [
    {
      "children": [
        1
      ],
      "name": "RootNode (gltf orientation matrix)",
      "rotation": [
        -0.70710678118654746,
        -0,
        -0,
        0.70710678118654757
      ]
    },
    {
      "children": [
        2
      ],
      "matrix": [
        0.99770283699035645,
        0,
        0.06774265319108963,
        0,
        0,
        1,
        0,
        0,
        -0.06774265319108963,
        0,
        0.99770283699035645,
        0,
        3.0394027233123779,
        0,
        0.0087633440271019936,
        1
      ],
      "name": "RootNode (model correction matrix)"
    },
    {
      "children": [
        3,
        4,
        5,
        6,
        7
      ],
      "name": "C_B183-Face _molded2.obj.cleaner.materialmerger.gles"
    },
    {
      "mesh": 0,
      "name": ""
    },
    {
      "mesh": 1,
      "name": ""
    },
    {
      "mesh": 2,
      "name": ""
    },
    {
      "mesh": 3,
      "name": ""
    },
    {
      "mesh": 4,
      "name": ""
    }
  ],
  "samplers": [
    {
      "magFilter": 9729,
      "minFilter": 9987,
      "wrapS": 10497,
      "wrapT": 10497
    }
  ],
  "scene": 0,
  "scenes": [
    {
      "name": "OSG_Scene",
      "nodes": [
        0
      ]
    }
  ],
  "textures": [
    {
      "sampler": 0,
      "source": 0
    }
  ]
}

