{
  "accessors": [
    {
      "bufferView": 2,
      "componentType": 5126,
      "count": 65533,
      "max": [
        37.903728485107422,
        33.91510009765625,
        -43.950210571289062
      ],
      "min": [
        -37.875408172607422,
        -33.91510009765625,
        -73.784713745117188
      ],
      "type": "VEC3"
    },
    {
      "bufferView": 2,
      "byteOffset": 786396,
      "componentType": 5126,
      "count": 65533,
      "max": [
        0.99871230125427246,
        0.99998694658279419,
        0.99957191944122314
      ],
      "min": [
        -0.99967557191848755,
        -0.99938434362411499,
        -1
      ],
      "type": "VEC3"
    },
    {
      "bufferView": 3,
      "componentType": 5126,
      "count": 65533,
      "max": [
        0.99530768394470215,
        0.9979596734046936,
        0.98040956258773804,
        1
      ],
      "min": [
        -0.99990063905715942,
        -0.9997592568397522,
        -0.99963003396987915,
        -1
      ],
      "type": "VEC4"
    },
    {
      "bufferView": 1,
      "componentType": 5126,
      "count": 65533,
      "max": [
        0.4587399959564209,
        0.9997599720954895
      ],
      "min": [
        0.0013800000306218863,
        0.85825002193450928
      ],
      "type": "VEC2"
    },
    {
      "bufferView": 0,
      "componentType": 5125,
      "count": 167445,
      "max": [
        65532
      ],
      "min": [
        0
      ],
      "type": "SCALAR"
    },
    {
      "bufferView": 2,
      "byteOffset": 1572792,
      "componentType": 5126,
      "count": 41516,
      "max": [
        36.488929748535156,
        32.539039611816406,
        -31.848770141601562
      ],
      "min": [
        -37.903728485107422,
        -26.754880905151367,
        -60.784420013427734
      ],
      "type": "VEC3"
    },
    {
      "bufferView": 2,
      "byteOffset": 2070984,
      "componentType": 5126,
      "count": 41516,
      "max": [
        0.99825495481491089,
        0.99803614616394043,
        0.99971288442611694
      ],
      "min": [
        -0.99985188245773315,
        -0.99996620416641235,
        -0.99983209371566772
      ],
      "type": "VEC3"
    },
    {
      "bufferView": 3,
      "byteOffset": 1048528,
      "componentType": 5126,
      "count": 41516,
      "max": [
        0.99354511499404907,
        0.99553984403610229,
        0.99275195598602295,
        1
      ],
      "min": [
        -0.99999040365219116,
        -0.99947059154510498,
        -0.99039763212203979,
        -1
      ],
      "type": "VEC4"
    },
    {
      "bufferView": 1,
      "byteOffset": 524264,
      "componentType": 5126,
      "count": 41516,
      "max": [
        0.4587399959564209,
        0.99795997142791748
      ],
      "min": [
        0.0021599999163299799,
        0.85819000005722046
      ],
      "type": "VEC2"
    },
    {
      "bufferView": 0,
      "byteOffset": 669780,
      "componentType": 5125,
      "count": 111423,
      "max": [
        41515
      ],
      "min": [
        0
      ],
      "type": "SCALAR"
    }
  ],
  "asset": {
    "extras": {
      "author": "XRchaeology Team (https://sketchfab.com/KayeleighS)",
      "license": "CC-BY-4.0 (http://creativecommons.org/licenses/by/4.0/)",
      "source": "https://sketchfab.com/3d-models/sgy-fnj-closedeye-smile-2409c7780f094bf0b1c1576ef8b65b96",
      "title": "Sgy_FNJ_closedeye-smile"
    },
    "generator": "Sketchfab-6.72.0",
    "version": "2.0"
  },
  "bufferViews": [
    {
      "buffer": 0,
      "byteLength": 1115472,
      "byteOffset": 0,
      "name": "floatBufferViews",
      "target": 34963
    },
    {
      "buffer": 0,
      "byteLength": 856392,
      "byteOffset": 1115472,
      "byteStride": 8,
      "name": "floatBufferViews",
      "target": 34962
    },
    {
      "buffer": 0,
      "byteLength": 2569176,
      "byteOffset": 1971864,
      "byteStride": 12,
      "name": "floatBufferViews",
      "target": 34962
    },
    {
      "buffer": 0,
      "byteLength": 1712784,
      "byteOffset": 4541040,
      "byteStride": 16,
      "name": "floatBufferViews",
      "target": 34962
    }
  ],
  "buffers": [
    {
      "byteLength": 6253824,
      "uri": "scene.bin"
    }
  ],
  "extensionsUsed": [
    "KHR_materials_unlit"
  ],
  "images": [
    {
      "uri": "textures/material0_baseColor.jpeg"
    }
  ],
  "materials": [
    {
      "doubleSided": true,
      "emissiveFactor": [
        0,
        0,
        0
      ],
      "emissiveTexture": {
        "index": 0,
        "texCoord": 0
      },
      "extensions": {
        "KHR_materials_unlit": {}
      },
      "name": "material0",
      "pbrMetallicRoughness": {
        "baseColorFactor": [
          1,
          1,
          1,
          1
        ],
        "baseColorTexture": {
          "index": 0,
          "texCoord": 0
        },
        "metallicFactor": 0,
        "roughnessFactor": 1
      }
    }
  ],
  "meshes": [
    {
      "primitives": [
        {
          "attributes": {
            "NORMAL": 1,
            "POSITION": 0,
            "TANGENT": 2,
            "TEXCOORD_0": 3
          },
          "indices": 4,
          "material": 0,
          "mode": 4
        }
      ]
    },
    {
      "primitives": [
        {
          "attributes": {
            "NORMAL": 6,
            "POSITION": 5,
            "TANGENT": 7,
            "TEXCOORD_0": 8
          },
          "indices": 9,
          "material": 0,
          "mode": 4
        }
      ]
    }
  ],
  "nodes": [
    {
      "children": [
        1
      ],
      "name": "RootNode (gltf orientation matrix)",
      "rotation": [
        -0.70710678118654746,
        -0,
        -0,
        0.70710678118654757
      ]
    },
    {
      "children": [
        2
      ],
      "name": "RootNode (model correction matrix)"
    },
    {
      "children": [
        3,
        4
      ],
      "name": "model_New Qlone_20191017_174753878.obj.cleaner.materialmerger.gles"
    },
    {
      "mesh": 0,
      "name": ""
    },
    {
      "mesh": 1,
      "name": ""
    }
  ],
  "samplers": [
    {
      "magFilter": 9729,
      "minFilter": 9987,
      "wrapS": 10497,
      "wrapT": 10497
    }
  ],
  "scene": 0,
  "scenes": [
    {
      "name": "OSG_Scene",
      "nodes": [
        0
      ]
    }
  ],
  "textures": [
    {
      "sampler": 0,
      "source": 0
    }
  ]
}

