<?xml version="1.0" standalone="no"?>
<!DOCTYPE svg PUBLIC "-//W3C//DTD SVG 1.1//EN" "http://www.w3.org/Graphics/SVG/1.1/DTD/svg11.dtd" >
<svg xmlns="http://www.w3.org/2000/svg" xmlns:xlink="http://www.w3.org/1999/xlink" version="1.1">
<metadata>
Created by FontForge 20170924 at Wed Aug 27 14:22:34 2003
 By www-data
Copyright (c) Typographer Mediengestaltung, 2000. All rights reserved.
</metadata>
<defs>
<font id="Chelsea" horiz-adv-x="514" >
  <font-face 
    font-family="Chelsea"
    font-weight="400"
    font-stretch="normal"
    units-per-em="1000"
    panose-1="2 0 5 3 2 0 0 2 0 3"
    ascent="800"
    descent="-200"
    x-height="436"
    cap-height="670"
    bbox="-30.125 -235.281 1426 869.053"
    underline-thickness="50"
    underline-position="-116"
    unicode-range="U+0008-E001"
  />
<missing-glyph horiz-adv-x="500" 
d="M63 0h375v772h-375v-772zM125 63v647h250v-647h-250z" />
    <glyph glyph-name=".notdef" horiz-adv-x="500" 
d="M63 0h375v772h-375v-772zM125 63v647h250v-647h-250z" />
    <glyph glyph-name="ring" horiz-adv-x="174" 
d="M59 513q0 -22 16 -37.5t39 -15.5q22 0 37.5 16t15.5 39q0 22 -16 37t-39 15q-22 0 -37.5 -15.5t-15.5 -38.5zM113 481q-33 0 -33 33q0 32 33 32q32 0 32 -32q0 -33 -32 -33z" />
    <glyph glyph-name="dotlessi" unicode="&#xd;" horiz-adv-x="302" 
d="M103 0h146q32 0 36 1q19 4 19 21q0 19 -20 24q-18 4 -27.5 6.5t-11.5 3.5q-20 11 -20 47v278q0 15 3 32.5t3 20.5q0 13 -11 19q-10 4 -22 0q-32 -18 -66 -19q-8 -1 -19 -0.5t-26 1.5q-33 1 -33 -21t29 -27q22 -3 30 -9q13 -10 13 -35v-240q0 -36 -20 -47
q-2 -1 -11.5 -3.5t-26.5 -6.5q-20 -5 -20 -24q0 -17 19 -21q4 -1 36 -1z" />
    <glyph glyph-name="fraction" horiz-adv-x="505" 
d="M515 768l-390 -748q-8 -14 -25 -14q-18 0 -35 12t-17 27q0 5 3 10l391 749q6 11 22 11q9 0 18 -3.5t17 -8.5t13 -12t5 -14q0 -3 -2 -9z" />
    <glyph glyph-name="fi" horiz-adv-x="583" 
d="M383 577q0 -27 18.5 -45t44.5 -18q27 0 45.5 19t18.5 45q0 27 -18.5 45t-45.5 18q-26 0 -44.5 -18t-18.5 -46zM383 0h146q32 0 36 1q19 4 19 21q0 19 -20 24q-36 7 -39 9q-20 11 -20 48v278q0 15 3 32.5t3 20.5q0 13 -11 19q-10 4 -22 0q-32 -18 -66 -19q-8 -1 -19 -0.5
t-26 1.5q-26 2 -32 -15q-3 1 -70 1h-40v164q0 90 22 106q23 18 48 8q10 -4 35 -28q27 -24 39 -27t23.5 1t19 11.5t11.5 18t1 22.5q-8 34 -60 53q-26 9 -54 9q-57 0 -103 -35q-50 -39 -69 -114q-12 -51 -12 -137v-52h-49q-32 0 -32 -24t33 -24h48v-482q0 -30 -13 -49
q-8 -11 -30 -30q-14 -11 -1 -25q11 -14 28 -4l154 82q19 9 20 21q2 17 -7 22t-22 1q-30 -9 -30 34v430h55q16 0 33 -2t20 -2q13 0 19 20q10 -2 19 -4.5t18 -4.5q17 -8 17 -37v-240q0 -36 -20 -48q-3 -1 -38 -9q-20 -5 -20 -24q0 -17 19 -21q4 -1 36 -1z" />
    <glyph glyph-name="fl" horiz-adv-x="599" 
d="M423 603v-500q0 -36 -20 -47q-3 -3 -36 -10q-20 -5 -20 -24q0 -17 19 -21q4 -1 36 -1h143q31 0 35 1q19 4 19 21q0 19 -20 24q-34 7 -37 9q-20 12 -20 48v552q0 29 13 48q4 5 11.5 13t18.5 18q5 5 5 12q1 7 -4 12q-11 14 -28 5l-115 -61q-11 30 -59 48q-26 9 -54 9
q-57 0 -103 -35q-50 -39 -69 -114q-12 -51 -12 -137v-52h-49q-32 0 -32 -24t33 -24h48v-482q0 -30 -13 -49q-8 -11 -30 -30q-14 -11 -1 -25q11 -14 28 -4l154 82q19 9 20 21q2 17 -7 22t-22 1q-30 -9 -30 34v430h55q16 0 33 -2t20 -2q6 0 10.5 5t7 11.5t3.5 13.5t-1 12
q-4 8 -24 10h-64h-40v164q0 90 22 106q23 18 48 8q9 -5 34 -28q26 -23 38 -26q2 -5 5 -7q11 -5 21 -2q3 1 9 1q21 0 21 -34z" />
    <glyph glyph-name="Lslash" horiz-adv-x="523" 
d="M278 215q52 19 52 36q0 20 -22 20q-8 0 -47 -14l-17 -6l-1 316q0 36 20 47q3 3 38 10q20 5 20 24q0 17 -19 21q-4 1 -35 1h-164q-32 0 -36 -1q-19 -4 -19 -21q0 -19 20 -24q17 -4 26.5 -6.5t11.5 -3.5q20 -11 20 -47v-359l-16 -6q-54 -20 -54 -36q0 -19 22 -19
q13 0 46 12l2 1v-57q0 -36 -20 -47q-2 -1 -11.5 -3.5t-26.5 -6.5q-20 -5 -20 -24q0 -17 19 -21q4 -1 36 -1h252q37 0 58 -0.5t26 -1.5q15 -5 16 -31q2 -18 22 -14q14 3 25 32l8 28t9 28l13 43q16 51 16 65q0 11 -8.5 18t-18.5 3q-25 -25 -39 -47q-23 -32 -48 -48
q-44 -30 -93 -30q-26 0 -48 11q-35 19 -45 66q-4 17 -4 81z" />
    <glyph glyph-name="lslash" horiz-adv-x="302" 
d="M255 243q52 18 52 36q0 19 -22 19q-11 0 -46 -13l-14 -5v375q0 29 13 48q4 5 11.5 13t18.5 18q5 5 5 12q1 7 -4 12q-11 14 -28 5l-154 -82q-18 -10 -19 -21q-3 -15 7 -21t21 -3q3 1 9 1q21 0 21 -34v-359l-39 -14q-53 -20 -53 -37q0 -19 21 -19q14 0 46 13l25 9v-93
q0 -36 -20 -47q-3 -3 -36 -10q-20 -5 -20 -24q0 -17 19 -21q4 -1 36 -1h143q31 0 35 1q19 4 19 21q0 19 -20 24q-34 7 -37 9q-20 12 -20 48v129z" />
    <glyph glyph-name="Zcaron" horiz-adv-x="495" 
d="M262 616h83l-258 -476q-38 -71 -38 -96q0 -32 37 -41q13 -3 62 -3h207q25 0 33 -8q2 -4 5 -20q3 -17 25 -16q10 0 17 13q0 3 10 27l31 86q20 58 20 66q0 24 -25 25q-11 0 -24 -15.5t-25 -30.5q-63 -71 -172 -71q-14 0 -32 1.5t-40 3.5l260 474q41 74 41 92q0 11 -5 19
q-11 19 -38 23q-5 1 -18 1h-35h-170q-33 0 -37 24q-5 24 -22 24q-15 0 -24 -16q-2 -2 -9 -27l-24 -72q-16 -45 -16 -65q0 -9 3 -13q5 -12 20 -10q12 0 19 12l14 24q30 42 57 55q21 10 68 10zM216 804q-8 2 -12 2q-13 0 -13 -8q0 -6 12 -15q40 -27 64 -40q16 -10 26 -10
q12 0 39 18q14 9 26.5 18t24.5 17q12 7 12 14q0 6 -10 6q-6 0 -15 -3q-56 -18 -78 -24z" />
    <glyph glyph-name="zcaron" horiz-adv-x="384" 
d="M330 105q-26 -42 -66 -53q-9 -2 -33.5 -3t-66.5 -2l173 247q8 11 16 22.5t16 22.5q18 28 18 45q0 38 -83 38h-130q-8 0 -15 16q-7 15 -19 17q-13 1 -25 -21q-9 -26 -18 -50.5t-18 -47.5q-8 -23 9 -29q13 -5 24 6q7 8 12 14t8 10q24 25 46 31q35 10 95 1l-169 -240
q-58 -82 -51 -104q6 -20 30 -24q5 -1 51 -1h85h51q10 -1 15 -14q9 -26 27 -24t25 24q23 62 34 94t12 35q2 23 -21 23q-12 0 -19 -12t-13 -21zM168 531q-8 2 -12 2q-13 0 -13 -8q0 -6 12 -15q40 -27 64 -40q17 -11 26 -11q11 0 40 20l50 34q11 8 11 14t-9 6q-6 0 -15 -3
q-28 -9 -47 -15t-30 -9z" />
    <glyph glyph-name="space" unicode=" " horiz-adv-x="421" 
 />
    <glyph glyph-name="exclam" unicode="!" horiz-adv-x="232" 
d="M136 683q-35 0 -60 -28q-19 -22 -19 -59q0 -23 14 -87q11 -48 19.5 -104t15.5 -122q0 -2 0.5 -16.5t1.5 -40.5q0 -29 8 -37q16 -14 32 -4q16 6 18 38q1 14 1.5 29t1.5 30q7 63 15 105q6 32 12 63t11 63q12 63 12 81q0 40 -22 63q-26 26 -61 26zM67 62q1 -28 21.5 -47
t49.5 -18q28 1 47.5 21.5t19.5 49.5q0 28 -21.5 47t-50.5 18q-28 -1 -47.5 -21.5t-18.5 -49.5z" />
    <glyph glyph-name="quotedbl" unicode="&#x22;" horiz-adv-x="276" 
d="M112 355l23 183q4 29 5.5 47.5t1.5 25.5q0 45 -19 57q-25 14 -44 2q-20 -12 -20 -57q0 -10 9 -77l24 -181h20zM228 355l23 183q4 29 5.5 47t1.5 25q0 46 -19 58q-25 15 -44 2q-20 -12 -20 -55q0 -2 2.5 -21.5t7.5 -57.5l23 -181h20z" />
    <glyph glyph-name="numbersign" unicode="#" horiz-adv-x="788" 
d="M388 703l-80 -228h-158l-23 -66h158l-52 -144h-158l-22 -66h156l-82 -231h84l83 231h138l-82 -231h85l81 231h159l24 66h-159l52 144h159l24 66h-160l80 228h-83l-81 -228h-138l80 228h-85zM317 265l51 144h140l-53 -144h-138z" />
    <glyph glyph-name="dollar" unicode="$" horiz-adv-x="382" 
d="M200 512v25t-1 25q-2 15 -10 18q-10 4 -18 -1q-11 -8 -12 -26v-48q-89 -23 -91 -115q-1 -40 27 -68q12 -13 62 -44v-141q-59 22 -77 33q-5 3 -8 3q-5 0 -19 -23q-13 -22 -8 -33q13 -27 112 -44q0 -60 3 -67q8 -14 27 -7q13 3 14 33v41h24v-41t1 -20q1 -10 9 -13
q6 -5 19 1q9 3 11 23v61q52 26 74 54t21 71q-1 42 -30 74q-20 22 -65 45v123q51 -16 60 -16q7 0 10 4q13 16 10 29t-38 27q-7 2 -17.5 5.5t-24.5 7.5q0 65 -7 71q-9 11 -21 2q-9 -4 -11 -20q-1 -4 -1 -49h-25zM201 352v116h24v-125zM129 413q0 26 30 43v-86q-30 16 -30 43z
M201 123v138l24 -11v-127h-24zM265 135v93q19 -14 23 -17q9 -11 9 -27q0 -22 -32 -49z" />
    <glyph glyph-name="percent" unicode="%" horiz-adv-x="562" 
d="M149 539q-28 -8 -34 -14q-57 -36 -62 -128q-5 -101 56 -144q22 -16 58 -16q82 0 106 104q5 23 5 45q0 78 -41 122q-37 38 -88 31zM109 390q0 94 38 120q20 8 36 -2q27 -16 34 -65q2 -14 3 -28t1 -30q0 -82 -28 -110q-16 -16 -34 -13q-22 4 -35 32q-15 31 -15 96zM424 299
l-21 -7t-14 -7q-57 -38 -62 -128q-5 -101 57 -144q23 -14 57 -14q22 0 34 4q56 23 72 98q5 25 5 48q0 79 -40 119q-38 38 -88 31zM399 245q7 14 23 25q18 7 35 -2q28 -16 35 -65q3 -26 3 -56q0 -84 -28 -112q-16 -16 -33 -13q-23 5 -36 32q-15 31 -15 96q0 64 16 95z
M451 494l-264 -474q-9 -15 -23 -15q-15 0 -15 16q0 10 8 26l264 475q4 10 16 10q19 0 19 -21q0 -7 -5 -17z" />
    <glyph glyph-name="ampersand" unicode="&#x26;" horiz-adv-x="710" 
d="M293 427q38 37 58 57t22 23q31 36 36 77q5 42 -24 71q-33 34 -91 34q-94 0 -133 -79q-18 -36 -18 -78q0 -61 37 -129q-128 -98 -128 -205q0 -27 6 -55q24 -110 133 -143q38 -11 77 -11q118 0 207 74q84 -77 87 -115q2 -29 -19 -52q-28 -31 -36 -56q-7 -22 7.5 -37.5
t39.5 -11.5q31 4 51 49q15 33 15 73q0 96 -84 224q49 92 49 188q0 23 -3 50q45 7 78 31q56 42 51 104q-3 41 -37 59q-32 19 -60 5q-26 -14 -26 -35q0 -26 18 -36l27 -5q16 -3 22 -21q5 -16 -9 -32t-54 -18q24 1 11.5 1.5t-61.5 0.5l-21 2q-84 8 -112 -20q-21 -21 -16 -45
q4 -23 25 -31q18 -6 31 3q5 3 20 20q7 9 21 7q19 -1 30 -23q5 -13 5 -31q0 -56 -33 -114q-17 27 -102 118q-83 89 -97 112zM334 569q-10 -39 -74 -94q-37 58 -37 100q0 54 50 62q26 5 43 -9q29 -23 18 -59zM165 255q4 52 50 90q21 -29 111 -117q82 -82 95 -108
q-46 -26 -112 -26q-57 0 -89 26q-63 52 -55 135z" />
    <glyph glyph-name="quotesingle" unicode="'" horiz-adv-x="175" 
d="M85 476q55 22 80 91q8 24 8 43q0 23 -11 40q-17 23 -48 23q-32 0 -45 -28q-13 -23 -2 -46q4 -9 9 -13q4 -4 16 -12q8 -5 15.5 -9.5t9.5 -13.5q4 -22 -37 -66q-5 -5 -4 -8t9 -1z" />
    <glyph glyph-name="parenleft" unicode="(" horiz-adv-x="320" 
d="M167 -4q14 -17 29 -33.5t31 -31.5q44 -39 63 -35q8 5 8 11q0 5 -13 21q-84 103 -120 245q-19 73 -19 170q0 65 10 114q13 63 32.5 116.5t47.5 98.5q17 24 30.5 41.5t23.5 28.5q10 7 5 22q-3 10 -19 1q-60 -32 -119 -108q-63 -78 -88 -159.5t-25 -163.5q0 -184 123 -338z
" />
    <glyph glyph-name="parenright" unicode=")" horiz-adv-x="320" 
d="M71 -104q19 -4 63 35q16 15 31 31.5t29 33.5q123 154 123 339q0 82 -25 163.5t-88 159.5q-60 75 -119 107q-16 9 -20 -1q-3 -13 6 -22q22 -26 35.5 -44t18.5 -26q26 -46 46 -99t34 -116q5 -25 8 -52t3 -58q0 -93 -21 -174q-36 -142 -120 -245q-12 -15 -12 -21t8 -11z" />
    <glyph glyph-name="asterisk" unicode="*" horiz-adv-x="489" 
d="M287 580q26 9 70 15q43 6 51 10q28 10 33 33q4 22 -15 46q-16 16 -41 11q-17 -5 -39 -33q-32 -41 -68 -67q2 30 18 70q17 43 18 49q3 28 -13 44q-21 16 -48 9q-33 -5 -33 -40q0 -9 14 -46q17 -41 21 -82q-63 63 -84 91q-23 18 -46 11q-22 -9 -31 -36q-7 -21 10 -41
q10 -14 48 -18q54 -8 93 -25q-26 -13 -70 -19q-47 -8 -51 -9q-27 -11 -32 -34t15 -45q16 -17 40 -13q17 3 40 32q33 42 68 67q-5 -30 -21 -70q-8 -20 -12 -32.5t-5 -16.5q-4 -28 13 -43.5t48 -10.5q32 8 32 41q0 8 -14 47q-16 40 -21 85q64 -61 84 -91q21 -17 46 -11
q25 10 31 37q8 20 -9 40q-11 13 -48 18q-52 8 -92 27z" />
    <glyph glyph-name="plus" unicode="+" horiz-adv-x="754" 
d="M340 658v-267h-265v-126h265v-265h124v265h261v126h-261v267h-124z" />
    <glyph glyph-name="comma" unicode="," horiz-adv-x="175" 
d="M82 -98q54 19 81 91q8 21 8 40q0 25 -12 42q-16 22 -48 22t-45 -27q-11 -22 -1 -46q6 -13 24 -25q9 -4 16.5 -8.5t9.5 -14.5q3 -21 -38 -66q-4 -4 -3 -7q1 -4 8 -1z" />
    <glyph glyph-name="hyphen" unicode="-" horiz-adv-x="354" 
d="M275 186h-164q-62 0 -62 22q0 17 23 22q4 1 14 1h27h161q35 0 40 -1q23 -5 23 -22q0 -22 -62 -22z" />
    <glyph glyph-name="period" unicode="." horiz-adv-x="175" 
d="M67 48q0 -21 15 -35.5t36 -14.5t36 14.5t15 35.5t-15 36t-36 15t-36 -15t-15 -36z" />
    <glyph glyph-name="slash" unicode="/" horiz-adv-x="390" 
d="M382 494l-264 -474q-8 -15 -28 -15q-15 0 -28 9.5t-13 21.5q0 6 3 11l263 475q7 12 24 12q16 0 30.5 -9.5t14.5 -21.5q0 -3 -2 -9z" />
    <glyph glyph-name="zero" unicode="0" 
d="M268 596q-49 0 -93 -29q-60 -40 -95 -123q-25 -63 -30 -131q-4 -74 17 -146q28 -92 97 -143q47 -32 119 -32q37 0 63 9q111 43 145 196q5 22 7.5 45.5t2.5 48.5q0 156 -82 241q-61 64 -151 64zM163 294q0 200 77 241q18 8 35 8t35 -8q54 -29 69 -134q4 -26 5.5 -54
t1.5 -59q0 -167 -56 -223q-24 -24 -54 -24q-54 0 -83.5 62.5t-29.5 190.5z" />
    <glyph glyph-name="one" unicode="1" 
d="M334 101l-1 463q0 38 -22 38q-8 0 -16 -5q-42 -26 -69 -32q-8 -2 -25.5 -2.5t-45.5 -1.5q-19 0 -25 -15q-5 -13 3 -22t29 -9q8 -2 15.5 -3t15.5 -3q23 -14 23 -64v-342q0 -36 -20 -47q-2 -1 -11.5 -3.5t-26.5 -6.5q-20 -5 -20 -24q0 -17 19 -21q4 -1 36 -1h164q31 0 35 1
q19 4 19 21q0 10 -5.5 16t-13.5 9.5t-18.5 5.5t-19.5 5q-20 11 -20 43z" />
    <glyph glyph-name="two" unicode="2" 
d="M180 105q20 65 84 122l65 57q64 57 85 84q31 43 30 97q-3 75 -70 115q-40 23 -102 23q-58 0 -96 -19q-31 -15 -52.5 -42.5t-24.5 -54.5q-5 -41 26 -66q22 -20 54 -9q40 13 40 54q0 30 -31 49q19 40 61 40q15 0 30 -6q54 -23 54 -99q0 -71 -75 -141l-35 -33
q-130 -121 -125 -236q2 -29 12 -35q4 -4 11 -4t14 4q20 15 33 19.5t37 4.5q25 0 70 -13l18 -5q41 -11 63 -11q36 0 62 24q33 31 33 114q0 14 -1 18q-4 24 -17 27q-4 1 -10 1q-10 0 -17 -13l-11 -22t-6 -10q-8 -12 -33 -14q-16 0 -43 10q-15 6 -45 4q-39 -3 -88 -34z" />
    <glyph glyph-name="three" unicode="3" 
d="M341 343q88 60 88 134q0 27 -16.5 55.5t-42.5 44.5q-39 24 -90 24q-48 0 -85 -19q-66 -31 -72 -91q-5 -38 21 -59q26 -20 51 -11q37 13 37 50q0 26 -27 44q23 35 56 35q30 0 51 -21.5t21 -52.5q0 -50 -54 -122h-33q-12 0 -16 -1q-65 -8 -84 -45q-8 -18 -1 -33
q10 -19 31 -17q27 10 43 21q22 13 44 15q37 3 59 -24q29 -35 29 -96q0 -52 -21 -89q-25 -46 -74 -46q-25 0 -44 16t-25 45q-3 14 -4.5 25t-2.5 18q-11 24 -43 27q-25 1 -40 -18q-20 -28 -5 -65q37 -96 162 -96q94 0 153 57q53 53 53 140q0 110 -119 155z" />
    <glyph glyph-name="four" unicode="4" 
d="M362 101v75q5 -2 14 -8.5t22 -17.5q25 -22 45 -25q21 -4 33 19q12 16 1 41q-26 53 -115 65v135q0 58 -6 60q-8 5 -20 -12q-8 -11 -51 -75l-22 -33v-79q-29 -5 -58 -17t-58 -29l167 268q44 71 44 90q0 26 -43 26h-100q-40 0 -44 -7q-12 -12 2 -26q9 -6 15.5 -10t11.5 -6
q17 -9 25.5 -24t8.5 -32q0 -31 -50 -113l-80 -130q-34 -55 -34 -77q0 -11 8.5 -20.5t19.5 -11.5q12 -2 36 11q11 5 22 11t22 11q25 11 46.5 17t38.5 8v-82q0 -36 -20 -47q-2 -1 -11.5 -3.5t-26.5 -6.5q-20 -5 -20 -24q0 -17 19 -21q4 -1 36 -1h145q31 0 35 1q19 4 19 21
q0 10 -5.5 16t-14 9.5t-18.5 5.5t-19 5q-20 11 -20 43z" />
    <glyph glyph-name="five" unicode="5" 
d="M227 485q31 11 60 11q24 0 63 -11t52 -11q10 0 19 3q17 5 32 53q5 19 8.5 33t4.5 24q2 18 -10 25.5t-21 2.5q-18 -14 -29 -28q-14 -12 -33 -12q-11 0 -36 5q-14 4 -23 5.5t-11 2.5q-43 7 -73 -2q-34 -11 -47 -38q-4 -6 -21 -61l-36 -118q-19 -60 -19 -73q0 -25 24 -25
q12 0 35 23q13 10 22 16.5t15 8.5q21 9 46 9q24 0 41 -9q57 -30 57 -106q0 -106 -50 -153q-28 -26 -66 -26q-6 0 -16 2q-19 5 -34 19q-21 17 -23 37q43 12 43 52q0 12 -4 20q-13 37 -56 37q-26 0 -46 -20q-29 -27 -21 -75q10 -69 81 -101q36 -16 86 -16q70 0 124 33
q48 30 75 84q22 46 24 90q3 107 -67 158q-50 36 -112 36q-42 0 -91 -17z" />
    <glyph glyph-name="six" unicode="6" 
d="M360 520q-21 -23 -21 -45q0 -14 8 -30q13 -27 51 -27q40 0 58 32q9 16 9 36q0 21 -10 40q-17 32 -56 50q-30 14 -67 16q-128 3 -207 -109q-65 -91 -65 -217q0 -72 24 -130q25 -62 74 -102q52 -42 117 -42q96 0 155 66q51 58 51 146q0 57 -28 98q-31 45 -84 56
q-20 4 -44 4q-63 0 -100 -33q-11 -8 -18 -18q-3 -5 -3 -8q0 -7 5.5 -11.5t11.5 -2.5q49 18 69 18q22 0 45 -15q43 -31 43 -103v-10t-1 -10q-10 -88 -65 -115q-18 -8 -35 -8q-21 0 -37 9q-67 37 -67 215q0 62 17 130q25 97 75 126q25 14 48 14q30 0 47 -20z" />
    <glyph glyph-name="seven" unicode="7" 
d="M386 483q-32 -69 -76 -120l-13 -15q-142 -163 -142 -261q0 -40 19 -66q21 -29 59 -29q27 0 46 13q29 23 29 62q0 12 -3 32l-3 16q-2 12 -3.5 24t-1.5 23q0 74 67 168l34 48q65 92 65 163q0 19 -6.5 34.5t-21.5 17.5q-2 1 -38 -10q-39 -11 -66 -11q-11 0 -20.5 1.5
t-19.5 3.5l-30 8q-44 12 -65 12q-23 0 -43 -17q-29 -26 -38 -130q0 -19 12 -23q20 -5 27 2q7 8 13 16t13 16q17 17 37 17q8 0 17 -3q44 -14 67 -14q31 0 85 22z" />
    <glyph glyph-name="eight" unicode="8" 
d="M341 351q48 34 70 60q27 32 29 72q1 54 -49 88q-35 23 -96 23q-46 0 -76 -12q-88 -36 -88 -130q0 -67 71 -129q-65 -53 -88 -87q-26 -39 -24 -92q1 -82 84 -130q40 -22 106 -22q57 0 95 18q90 46 95 141q1 55 -24 95q-23 36 -92 94zM363 475q-5 -41 -64 -90
q-81 61 -75 107q5 36 40 50q13 6 30 6q23 0 40 -12q33 -23 29 -61zM178 163q3 58 69 120q32 -24 55 -42.5t36 -32.5q47 -49 43 -90q-3 -35 -29 -58q-31 -25 -68 -25q-31 0 -54 16q-57 38 -52 112z" />
    <glyph glyph-name="nine" unicode="9" 
d="M192 62q21 22 21 45q0 13 -8 29q-17 29 -51 29q-28 0 -47.5 -22t-19.5 -50q0 -21 10 -38q16 -31 56 -49q31 -13 67 -15q125 -3 206 108q65 91 65 217q0 71 -23 129q-25 63 -74 103q-52 43 -117 43q-97 0 -155 -67q-51 -59 -51 -146q0 -57 28 -97q30 -44 84 -57
q24 -6 47 -6q58 0 99 35q19 16 19 29t-11 13q-2 0 -6 -2q-34 -22 -61 -22q-28 0 -54 19q-42 28 -42 103v10t1 10q11 87 65 115q16 9 35 9q21 0 37 -10q67 -37 67 -215q0 -32 -4.5 -64.5t-12.5 -66.5q-26 -96 -76 -126q-22 -13 -46 -13q-31 0 -48 20z" />
    <glyph glyph-name="colon" unicode=":" horiz-adv-x="175" 
d="M60 48q0 -21 15 -35.5t36 -14.5t36 14.5t15 35.5t-15 36t-36 15t-36 -15t-15 -36zM60 295q0 -21 15 -35.5t36 -14.5t36 14.5t15 35.5q0 22 -15 36.5t-36 14.5t-36 -14.5t-15 -36.5z" />
    <glyph glyph-name="semicolon" unicode=";" horiz-adv-x="175" 
d="M55 295q0 -21 14.5 -35.5t35.5 -14.5q22 0 36.5 14.5t14.5 35.5q0 22 -14.5 36.5t-36.5 14.5q-21 0 -35.5 -14.5t-14.5 -36.5zM75 -98q56 21 81 91q8 21 8 42q0 24 -11 40q-15 22 -48 22q-32 0 -45 -27q-12 -23 -2 -46q4 -12 25 -25q8 -4 15.5 -8.5t9.5 -14.5
q4 -20 -37 -66q-5 -4 -4 -7q1 -4 8 -1z" />
    <glyph glyph-name="less" unicode="&#x3c;" horiz-adv-x="525" 
d="M48 390v-116l474 -177v107l-363 128l363 127v107z" />
    <glyph glyph-name="equal" unicode="=" horiz-adv-x="924" 
d="M881 535h-788v-124h788v124zM881 245h-788v-125h788v125z" />
    <glyph glyph-name="greater" unicode="&#x3e;" horiz-adv-x="525" 
d="M522 274v116l-474 176v-107l362 -127l-362 -128v-107z" />
    <glyph glyph-name="question" unicode="?" horiz-adv-x="445" 
d="M151 582q25 46 75 46q12 0 24 -3q64 -15 64 -91q0 -57 -53 -119l-37 -43q-21 -24 -33.5 -39t-16.5 -21q-24 -35 -24 -63q0 -29 19.5 -51t47.5 -22q22 0 36 16t14 38q0 6 -1.5 15t-3 19t-3 19.5t-1.5 15.5q0 27 18 48q7 8 20.5 19t33.5 25l13 9q88 61 85 140
q-5 80 -74 120q-41 23 -101 23q-72 0 -120 -27q-78 -43 -84 -110q-4 -44 32 -73q29 -23 63 -10q42 16 42 57q0 27 -35 62zM149 62q1 -28 21.5 -47t49.5 -18q28 1 47.5 21.5t18.5 49.5q-1 28 -21.5 47t-49.5 18t-48 -21.5t-18 -49.5z" />
    <glyph glyph-name="at" unicode="@" horiz-adv-x="945" 
d="M579 164q10 -65 66 -87q22 -8 48 -8q73 0 131.5 45.5t88.5 130.5q24 70 24 143q0 11 -0.5 20.5t-1.5 18.5q-14 98 -56 155q-23 31 -57.5 57t-82.5 46q-83 36 -192 36q-182 0 -307 -89q-190 -136 -190 -365q0 -62 15.5 -119t45 -106t72.5 -89t98 -67q90 -44 204 -44
q196 0 371 112l-24 42q-172 -106 -341 -97q-91 5 -167 45q-93 47 -139 132q-40 73 -40 178q0 116 47 202q109 201 337 213q74 5 152 -21q103 -33 152 -102t49 -163q0 -69 -25 -129q-43 -106 -112 -118q-36 -7 -52 10q-9 10 -9 32q0 26 22 101l64 226h-122l-18 -61
q-36 85 -135 79q-57 -5 -108 -44q-54 -40 -85 -101q-36 -71 -36 -141q0 -56 24 -95q43 -72 132 -74q97 -1 157 96zM395 200q1 22 8.5 54.5t23.5 76.5q39 107 85 123q10 4 32 2q21 -1 32 -11q28 -22 22 -72t-32 -121q-34 -94 -78 -115q-32 -15 -60 0q-35 24 -33 63z" />
    <glyph glyph-name="A" unicode="A" horiz-adv-x="673" 
d="M259 250l76 204l76 -204h-152zM97 54q-11 -8 -37 -12q-20 -2 -20 -20q0 -24 59 -22h101h40q18 2 23 11q4 10 0 22q-5 9 -12 10q-2 1 -6 1q-3 0 -9 1q-16 0 -27 12t-2 39l28 89h199l10 -25q23 -58 23 -78q0 -27 -33 -37q-26 -8 -28 -10q-10 -10 -2 -23q7 -12 44 -12h136
q86 2 92 6q6 6 3 19q-2 9 -8 14q-2 1 -5.5 2.5t-8.5 3.5q-42 16 -59 39q-2 4 -8 18t-15 39l-172 480q-16 46 -31 67q-11 17 -25 17q-13 0 -33 -14q-29 -20 -33 -21q-12 -6 -26 -11.5t-25.5 -11t-20 -11t-9.5 -10.5q-4 -12 5 -21q7 -8 19 -7q11 1 16 1.5l5 0.5q22 -3 32 -16
q7 -7 23 -39l-150 -400q-29 -75 -53 -91z" />
    <glyph glyph-name="B" unicode="B" horiz-adv-x="578" 
d="M244 374v250q34 0 54 -0.5t27 -1.5q43 -7 66 -36.5t23 -74.5q0 -18 -5 -35q-15 -44 -56 -67q-14 -8 -34.5 -15t-48.5 -14zM244 186v131q38 20 78 20q36 0 62 -17q64 -40 58 -135q-2 -35 -18 -69q-20 -41 -52 -58q-17 -10 -40 -10q-26 0 -51 14q-27 16 -35 58
q-1 7 -1.5 23.5t-0.5 42.5zM103 0h247q128 0 190 89q31 46 31 110q0 36 -11 67q-20 52 -57 77q-31 20 -83 32q73 34 99 85q14 28 14 60q0 42 -20 77q-27 48 -77 63q-29 10 -90 10h-243q-32 0 -36 -1q-19 -4 -19 -21q0 -19 20 -24q17 -4 26.5 -6.5t11.5 -3.5q20 -11 20 -47
v-464q0 -36 -20 -47q-2 -1 -11.5 -3.5t-26.5 -6.5q-20 -5 -20 -24q0 -17 19 -21q4 -1 36 -1z" />
    <glyph glyph-name="C" unicode="C" horiz-adv-x="596" 
d="M482 655q-65 35 -128 35q-13 0 -25.5 -1.5t-26.5 -3.5q-162 -32 -223 -195q-28 -72 -28 -158q0 -133 68 -228q46 -66 129 -96q61 -22 121 -21q142 4 215 100q12 16 3 30q-8 17 -24 2q-22 -19 -69 -34q-29 -10 -79 -8q-129 4 -201 129q-44 77 -44 184q0 82 28 138
q55 109 162 109q81 0 134 -78q52 -76 59 -81q14 -9 26 8q4 5 4 14q0 7 -23 82l-28 88q-14 42 -28 49q-16 9 -25 -6q-6 -10 -4 -24q2 -8 3.5 -17t3.5 -17z" />
    <glyph glyph-name="D" unicode="D" horiz-adv-x="632" 
d="M244 196v418q70 0 112 -16q53 -20 89 -71q49 -67 49 -209q0 -79 -16 -126q-41 -119 -120 -144q-12 -4 -29 -4q-32 0 -54.5 17t-28.5 62q-1 8 -1.5 26t-0.5 47zM103 0h219q85 0 139 21q76 29 121 105.5t45 191.5q0 117 -46 196q-53 92 -137 128q-63 28 -167 28h-174
q-32 0 -36 -1q-19 -4 -19 -21q0 -19 20 -24q17 -4 26.5 -6.5t11.5 -3.5q20 -11 20 -47v-464q0 -36 -20 -47q-2 -1 -11.5 -3.5t-26.5 -6.5q-20 -5 -20 -24q0 -17 19 -21q4 -1 36 -1z" />
    <glyph glyph-name="E" unicode="E" horiz-adv-x="527" 
d="M103 0h252q37 0 58 -0.5t26 -1.5q15 -5 16 -31q2 -18 22 -14q15 3 25 31q4 14 8 28.5t9 28.5l13 43q16 51 16 65q0 11 -8.5 18t-18.5 3q-25 -25 -39 -47q-23 -32 -48 -48q-44 -30 -93 -30q-26 0 -48 11q-36 20 -45 70q-2 10 -3 30t-1 49v127h83q28 -2 45 -12
q8 -5 17.5 -14.5t20.5 -23.5q23 -28 26 -29q14 -5 24 7q5 5 5 15q0 7 -22 76l-9 29q-22 72 -38 80q-14 6 -23 -5q-5 -5 -5 -12q0 -3 1.5 -11t1.5 -12q0 -10 -4 -15q-11 -18 -80 -18h-43v229q14 1 25.5 1.5t21.5 0.5q99 0 142 -52q12 -15 17 -24t8 -14.5t6.5 -9t12.5 -6.5
q14 -2 21 10q3 4 3 13q0 19 -15 61l-36 99q-10 31 -32 23q-11 -5 -12 -18q0 -19 -6.5 -24.5t-28.5 -5.5h-268q-32 0 -36 -1q-19 -4 -19 -21q0 -19 20 -24q17 -4 26.5 -6.5t11.5 -3.5q20 -11 20 -47v-464q0 -36 -20 -47q-2 -1 -11.5 -3.5t-26.5 -6.5q-20 -5 -20 -24
q0 -17 19 -21q4 -1 36 -1z" />
    <glyph glyph-name="F" unicode="F" horiz-adv-x="482" 
d="M244 103v229h83q28 -2 45 -12q8 -5 17.5 -14.5t20.5 -23.5q23 -28 26 -29q14 -5 24 7q5 5 5 15q0 7 -22 76l-9 29q-22 72 -38 80q-14 6 -23 -5q-5 -5 -5 -12q0 -3 1.5 -11t1.5 -12q0 -10 -4 -15q-11 -18 -80 -18h-43v229q14 1 25.5 1.5t21.5 0.5q99 0 142 -52
q12 -14 17 -24l8 -16t6.5 -9.5t12.5 -4.5q15 0 21 10q3 4 3 13q0 20 -15 61l-36 99q-8 23 -32 23q-11 -5 -12 -18q0 -19 -6.5 -24.5t-28.5 -5.5h-268q-32 0 -36 -1q-19 -4 -19 -21q0 -19 20 -24q17 -4 26.5 -6.5t11.5 -3.5q20 -11 20 -47v-464q0 -36 -20 -47
q-2 -1 -11.5 -3.5t-26.5 -6.5q-20 -5 -20 -24q0 -17 19 -21q4 -1 36 -1h164q31 0 35 1q19 4 19 21q0 19 -20 24q-34 7 -37 9q-20 12 -20 48z" />
    <glyph glyph-name="G" unicode="G" horiz-adv-x="669" 
d="M507 56q17 -17 32 -33.5t29 -30.5q10 -8 23 -1q8 5 8 46v177q0 24 15 35q7 6 29 9q22 5 26 10q9 10 3 25q-5 13 -18 14q-5 1 -49 1h-123q-83 0 -90 -7t-7 -19q0 -16 30 -25q46 -14 48 -15q19 -7 28 -32q7 -15 7 -36q0 -34 -19 -59q-38 -53 -112 -49q-93 4 -153 111
q-43 76 -43 186q0 101 37 169q50 91 137 98q93 8 157 -77q7 -10 13 -20t12 -21q23 -34 30 -35q11 -3 23 9q4 4 4 16q0 15 -20 80l-29 90q-14 41 -28 44q-14 5 -22 -5q-5 -5 -5 -17q0 -15 10 -45q-10 0 -25 9t-23 12q-45 19 -96 19q-91 0 -168 -64q-69 -56 -101 -152
q-28 -78 -28 -170q0 -40 6 -71q13 -81 61 -144q49 -64 123 -88q34 -12 77 -12q111 0 191 68z" />
    <glyph glyph-name="H" unicode="H" horiz-adv-x="688" 
d="M492 326v-223q0 -36 -20 -47q-2 -1 -11.5 -3.5t-26.5 -6.5q-20 -5 -20 -24q0 -17 19 -21q4 -1 35 -1h165q31 0 35 1q18 4 18 21q0 19 -20 24q-35 8 -38 9q-20 12 -20 48v464q0 36 20 47q2 1 11.5 3.5t26.5 6.5q20 5 20 24q0 16 -18 21q-4 1 -35 1h-165q-31 0 -35 -1
q-19 -4 -19 -21q0 -19 20 -24q17 -4 26.5 -6.5t11.5 -3.5q20 -11 20 -47q1 -64 1 -108v-67h-249l-1 175q0 36 20 47q3 3 38 10q20 5 20 24q0 17 -19 21q-4 1 -35 1h-164q-32 0 -36 -1q-19 -4 -19 -21q0 -19 20 -24q17 -4 26.5 -6.5t11.5 -3.5q20 -11 20 -47v-464
q0 -36 -20 -47q-2 -1 -11.5 -3.5t-26.5 -6.5q-20 -5 -20 -24q0 -17 19 -21q4 -1 36 -1h164q31 0 35 1q19 4 19 21q0 19 -20 24q-35 8 -38 9q-20 12 -20 48q1 82 1 137v86h248z" />
    <glyph glyph-name="I" unicode="I" horiz-adv-x="322" 
d="M126 567v-464q0 -36 -20 -47q-2 -1 -11.5 -3.5t-26.5 -6.5q-20 -5 -20 -24q0 -17 19 -21q4 -1 36 -1h164q31 0 35 1q19 4 19 21q0 19 -20 24q-35 8 -38 9q-20 12 -20 48v464q0 36 20 47q2 1 11.5 3.5t26.5 6.5q20 5 20 24q0 17 -19 21q-4 1 -35 1h-164q-32 0 -36 -1
q-19 -4 -19 -21q0 -19 20 -24q17 -4 26.5 -6.5t11.5 -3.5q20 -11 20 -47z" />
    <glyph glyph-name="J" unicode="J" horiz-adv-x="322" 
d="M126 567v-533v-37t-1 -19q-3 -31 -15 -38q-15 -10 -47 11q-37 25 -51 25q-15 0 -28 -13t-14 -29q-2 -32 28 -51q16 -11 43 -11q48 0 88 22q73 39 98 108q17 48 17 131l-1 434q0 36 20 47q3 3 38 10q20 5 20 24q0 17 -19 21q-4 1 -35 1h-164q-32 0 -36 -1q-19 -4 -19 -21
q0 -19 20 -24q17 -4 26.5 -6.5t11.5 -3.5q20 -11 20 -47z" />
    <glyph glyph-name="K" unicode="K" horiz-adv-x="614" 
d="M244 103v215q10 -20 33 -21q39 -2 63 -12q62 -27 62 -140v-60q0 -49 5 -62q9 -23 48 -23h128q38 0 38 22q0 17 -23 22q-34 8 -42 17q-10 13 -21 43.5t-22 80.5l-8 35q-21 92 -66 122q-37 25 -125 24q20 66 60 106q29 31 87 58q51 25 104 49q23 12 23 21q0 4 -3 9
q-10 19 -18 35.5t-16 30.5q-7 10 -18 10q-8 0 -26 -7q-99 -37 -175 -139q-62 -83 -88 -174v202q0 36 20 47q2 2 37 10q20 5 20 24q0 17 -19 21q-4 1 -35 1h-164q-32 0 -36 -1q-19 -4 -19 -21q0 -19 20 -24q17 -4 26.5 -6.5t11.5 -3.5q20 -11 20 -47v-464q0 -36 -20 -47
q-2 -1 -11.5 -3.5t-26.5 -6.5q-20 -5 -20 -24q0 -17 19 -21q4 -1 36 -1h164q31 0 35 1q19 4 19 21q0 19 -20 24q-34 7 -37 9q-20 12 -20 48z" />
    <glyph glyph-name="L" unicode="L" horiz-adv-x="523" 
d="M267 670h-164q-32 0 -36 -1q-19 -4 -19 -21q0 -19 20 -24q17 -4 26.5 -6.5t11.5 -3.5q20 -11 20 -47v-464q0 -36 -20 -47q-2 -1 -11.5 -3.5t-26.5 -6.5q-20 -5 -20 -24q0 -17 19 -21q4 -1 36 -1h252q37 0 58 -0.5t26 -1.5q15 -5 16 -31q2 -18 22 -14q15 3 25 31
q4 14 8 28.5t9 28.5l13 43q16 51 16 65q0 11 -8.5 18t-18.5 3q-25 -25 -39 -47q-23 -32 -48 -48q-44 -30 -93 -30q-26 0 -48 11q-36 20 -45 67q-2 10 -3 30.5t-1 51.5l-1 362q0 36 20 47q3 3 38 10q20 5 20 24q0 17 -19 21q-4 1 -35 1z" />
    <glyph glyph-name="M" unicode="M" horiz-adv-x="847" 
d="M770 103l-86 452q13 6 27 6q22 0 45 -20q5 -7 11 -13t12 -13q9 -9 21 -9q22 0 27 23q1 10 -24 66q-8 16 -15 31t-15 30q-11 29 -57 29q-132 0 -264 -316q-25 57 -41.5 94t-26.5 56q-46 90 -94 132.5t-90 42.5q-14 0 -27 -8q-12 -9 -40 -66q-22 -45 -27 -59q-11 -21 0 -33
q11 -8 22 -4q8 2 13 8t10 13q18 24 36 24q20 0 39 -22l-100 -444q-7 -36 -29 -48l-8.5 -2t-25.5 -7t-15 -24q2 -17 20 -21q4 -1 35 -1h121q31 0 34 1q19 4 19 21q0 21 -40 28t-40 36q0 4 0.5 8t1.5 9l85 368q46 -98 78 -206q7 -23 12.5 -44.5t10.5 -43.5q3 -8 12 -50
q5 -26 15 -32q12 -7 25 0q6 3 10.5 11.5t8.5 20.5t7 26t6 27q49 195 110 283l75 -360q3 -12 3 -22q0 -26 -22 -33q-10 -1 -19.5 -2t-20.5 -3q-20 -3 -20 -21q0 -17 19 -21q4 -1 36 -1h165q30 0 34 1q19 4 19 21q1 18 -16 23q-33 8 -34 9q-21 12 -28 49z" />
    <glyph glyph-name="N" unicode="N" horiz-adv-x="673" 
d="M515 567v-218q-99 168 -219 260q-104 80 -188 77q-40 -1 -61 -42q-5 -9 -18 -54t-15 -56q-3 -19 18 -19q8 0 12 4l12 14t11 14q18 21 36 21q17 0 40 -18v-447q0 -36 -20 -47q-2 -1 -11.5 -3.5t-26.5 -6.5q-20 -5 -20 -24q0 -17 19 -21q4 -1 35 -1h126q30 0 34 1
q19 4 19 21q0 19 -20 24q-35 8 -38 9q-20 11 -20 48v391q35 -20 76.5 -67t92.5 -120q105 -155 114 -247q2 -20 3 -31t2 -13q4 -16 20 -16h38q21 0 24 13q2 10 2 70v484q0 36 20 48q3 1 38 9q20 5 20 24q0 17 -19 21q-4 1 -35 1h-125q-32 0 -36 -1q-19 -4 -19 -21
q0 -19 20 -24q18 -4 27.5 -6.5t11.5 -3.5q20 -11 20 -47z" />
    <glyph glyph-name="O" unicode="O" horiz-adv-x="773" 
d="M287 676q-114 -38 -175 -123q-62 -86 -62 -194q0 -74 28 -146q40 -106 139 -170q94 -59 204 -59q63 0 121 20q103 37 164 131q59 92 59 201q0 66 -23 129q-39 106 -134 168t-205 62q-62 0 -116 -19zM196 273q-18 61 -18 123q0 84 35 146q39 66 112 87q30 8 57 8
q82 0 148 -69q58 -61 86 -155q22 -69 22 -141q0 -184 -136 -221q-35 -9 -65 -9q-87 0 -152 68q-59 61 -89 163z" />
    <glyph glyph-name="P" unicode="P" horiz-adv-x="571" 
d="M244 246v376q121 0 163 -62q35 -53 35 -118q0 -40 -15 -70q-19 -37 -52 -58q-8 -5 -29.5 -13.5t-56.5 -21.5q-33 -14 -45 -33zM244 103q0 59 9 77q12 22 42 33q7 3 54 12l20 4q133 27 174 119q18 40 18 95q0 80 -36 136q-41 61 -105 81q-33 10 -115 10h-202q-32 0 -36 -1
q-19 -4 -19 -21q0 -19 20 -24q17 -4 26.5 -6.5t11.5 -3.5q20 -11 20 -47v-464q0 -36 -20 -47q-2 -1 -11.5 -3.5t-26.5 -6.5q-20 -5 -20 -24q0 -17 19 -21q4 -1 36 -1h164q31 0 35 1q19 4 19 21q0 19 -20 24q-34 7 -37 9q-20 12 -20 48z" />
    <glyph glyph-name="Q" unicode="Q" horiz-adv-x="773" 
d="M389 -17q73 -2 126 15q174 56 229 227q18 55 18 113q0 117 -72 215q-110 147 -302 140q-81 -3 -154 -43q-79 -43 -127 -118q-55 -83 -55 -198q0 -72 22 -129q32 -83 105 -143q69 -57 142 -70q-39 -54 -59 -72q-1 -1 -12.5 -12t-34.5 -34q-28 -27 -25 -41q4 -19 21 -22
q7 -1 25 5q25 9 26 9q24 6 51 6q52 0 100 -15l32 -10q66 -20 103 -20q40 0 63 19q13 10 41 71q25 52 27 62q3 16 -16 20q-3 1 -8 1q-9 0 -25 -19q-37 -43 -77 -43q-3 0 -79 17l-17 4q-67 16 -116 6zM567 95q-50 -44 -133 -51q62 109 62 189q0 47 -19 84q-20 42 -60 47
q-14 1 -25 -3.5t-18.5 -14t-10 -22.5t2.5 -28q12 -20 22.5 -36.5t19.5 -27.5q15 -28 14 -65q-2 -54 -50 -114q-177 68 -199 304q-1 8 -1.5 16.5t-0.5 17.5q0 133 77 196q54 45 133 45q32 0 55 -9q158 -59 198 -274q4 -20 6 -39t2 -37q0 -111 -75 -178z" />
    <glyph glyph-name="R" unicode="R" horiz-adv-x="604" 
d="M349 670h-246q-32 0 -36 -1q-19 -4 -19 -21q0 -19 20 -24q17 -4 26.5 -6.5t11.5 -3.5q20 -11 20 -47v-464q0 -36 -20 -47q-2 -1 -11.5 -3.5t-26.5 -6.5q-20 -5 -20 -24q0 -17 19 -21q4 -1 36 -1h164q31 0 35 1q19 4 19 21q0 19 -20 24q-34 7 -37 9q-20 12 -20 48v512
q19 3 41 3q53 0 85 -18q36 -20 56 -69q15 -39 14 -75q-1 -93 -73 -131q-16 -6 -28.5 -10t-20.5 -6q-47 -14 -47 -40q0 -19 51 -88l37 -50q35 -47 44 -66q7 -12 8 -20q1 -10 1.5 -16.5t0.5 -11.5q2 -15 21 -16q3 -1 51 -1h72h38q15 1 20 13q6 18 -7 25q-5 3 -37 14
q-20 7 -36 30q-17 23 -32 42t-27 35l-81 112q109 38 149 100q23 35 23 95q0 49 -15 84q-51 120 -203 120z" />
    <glyph glyph-name="S" unicode="S" horiz-adv-x="491" 
d="M153 95q34 19 34 57q0 26 -19 46t-46 20t-49 -17q-38 -32 -31 -81q11 -80 95 -116q46 -18 101 -18q85 0 146 41q105 73 97 205q-5 76 -42 120q-32 37 -122 84l-38 20q-98 52 -109 99q-7 32 16 57q29 29 78 22q41 -6 67 -31q21 -19 56 -76q13 -22 25 -24q24 -5 24 22
q0 12 -21 80l-19 60l-11 35q-7 16 -18 19q-10 3 -22 -6q-9 -11 0 -51q-63 29 -107 29q-45 0 -89 -25q-38 -21 -60 -63q-20 -38 -20 -76q0 -60 33 -97q24 -27 95 -68l56 -32q74 -43 99 -70q39 -40 34 -95q-7 -88 -91 -115q-21 -7 -43 -7q-59 0 -99 52z" />
    <glyph glyph-name="T" unicode="T" horiz-adv-x="523" 
d="M324 103v513q28 0 45 -0.5t22 -1.5q29 -4 40 -29q5 -20 7.5 -35.5t3.5 -26.5q4 -18 24 -10q11 2 20 29l26 75q20 58 20 77q0 15 -10 22q-8 7 -19 -1q-1 -1 -14 -26q-10 -19 -27 -19h-304q-33 0 -37 24q-5 24 -22 24q-15 0 -24 -16q-2 -3 -9 -27l-23 -72q-17 -54 -17 -66
q0 -24 23 -22q13 0 20 12l14 24q14 20 28 34t28 21q21 10 68 10v-513q0 -36 -20 -47q-2 -1 -11.5 -3.5t-26.5 -6.5q-20 -5 -20 -24q0 -17 19 -21q4 -1 36 -1h164q31 0 35 1q19 4 19 21q0 19 -20 24q-35 8 -38 9q-20 12 -20 48z" />
    <glyph glyph-name="U" unicode="U" horiz-adv-x="638" 
d="M560 201v366q0 36 20 47q2 1 11.5 3.5t26.5 6.5q20 5 20 24q0 17 -19 21q-4 1 -34 1h-123q-32 0 -36 -1q-19 -4 -19 -21q0 -19 20 -24q17 -4 26.5 -6.5t11.5 -3.5q20 -11 20 -47v-337q0 -61 -7 -88q-14 -52 -53 -75q-28 -17 -62 -17q-35 0 -61 16q-44 26 -54 71
q-4 17 -4 82v348q0 36 20 47q2 2 37 10q20 5 20 24q0 17 -19 21q-4 1 -35 1h-164q-32 0 -36 -1q-19 -4 -19 -21q0 -19 20 -24q17 -4 26.5 -6.5t11.5 -3.5q20 -11 20 -47v-366q0 -72 14 -108q21 -52 82 -86q50 -28 122 -28q70 0 118 27q60 33 83 91q15 37 15 104z" />
    <glyph glyph-name="V" unicode="V" horiz-adv-x="645" 
d="M405 197q-20 75 -38 131t-34 96q-22 55 -41 95.5t-35 66.5q-46 79 -96 100q-8 3 -15 3q-17 0 -37 -16q-19 -15 -88 -90q-6 -6 -3 -16q4 -9 9 -13q9 -6 36 4q15 5 24 5q36 0 68 -50q10 -15 26 -48t39 -85q52 -116 90 -288q4 -19 7 -37t7 -37q4 -18 17 -18h68q14 0 18 10
q5 17 10.5 34t10.5 34l163 478q19 56 19 73q0 39 -52 42h-39t-34 -1q-50 -3 -65 18q-2 4 -3 8t-3 8q-6 11 -18 13q-17 1 -27 -18q-10 -28 -18 -53.5t-16 -48.5q-3 -8 -3 -14q0 -18 34 -18h73q41 0 55 -15q4 -4 4 -14q0 -15 -15 -58z" />
    <glyph glyph-name="W" unicode="W" horiz-adv-x="923" 
d="M677 0q18 0 21 6q5 13 9 26t9 27l187 543q6 19 6 31q0 37 -77 37h-73q-39 0 -46 21q-6 22 -18 25q-16 4 -24 -11q-23 -60 -39 -111q-2 -8 -2 -11q0 -18 25 -18h107q33 0 33 -25q0 -9 -5 -26l-55 -163l-47 -149q-42 162 -69 234q-16 42 -33 78.5t-36 70.5
q-61 109 -109 109q-15 0 -38 -19q-84 -65 -86 -86q-2 -12 12 -20q9 -5 27 3q13 4 28 -1q49 -19 95 -109l-83 -258q-34 151 -68 232q-107 258 -178 258q-15 0 -38 -19q-84 -65 -86 -86q-2 -12 12 -20q9 -5 27 3q13 4 28 -1q46 -16 87 -95q14 -26 30 -64.5t35 -90.5
q20 -77 34 -138t24 -109q8 -31 11.5 -47.5t4.5 -18.5q5 -8 27 -8h39q23 0 27 10q1 2 6 21t14 54q25 100 46.5 171.5t39.5 116.5q7 -20 11.5 -33t6.5 -19q20 -77 34 -138t24 -109q8 -32 11.5 -48l3.5 -16q4 -10 19 -10h49z" />
    <glyph glyph-name="X" unicode="X" horiz-adv-x="671" 
d="M383 436l-90 152q-30 51 -31 52q-26 36 -47 39q-34 4 -119 -83q-18 -19 -15 -31q1 -9 14 -17q7 -3 14 0q7 4 14 7q14 6 26 5q23 -1 49 -38q8 -12 32 -56l65 -120l-120 -199q-14 -22 -25.5 -40t-21.5 -32q-14 -20 -33 -29q-12 -4 -22 -6t-17 -5t-9 -8t3 -15t13 -11
q3 -1 29 -1h148q30 0 38 9.5t1 20.5q-17 12 -26 15q-27 13 -27 35q0 26 43 93l67 106l65 -114q42 -74 42 -92q0 -21 -18 -27q-26 -8 -30 -12q-10 -13 -3 -23q8 -11 42 -11h189q40 0 45 8q8 13 4 23q-4 13 -22 16q-31 6 -35 9q-23 10 -40 39l-158 277l98 151q43 66 73 85
q10 4 19 7.5t19 7.5q19 9 12 28q-6 16 -24 18q-4 1 -69 1h-60h-45q-19 -2 -27 -13.5t-1 -21.5q4 -7 11 -9.5t14 -4.5q19 -13 23.5 -19t4.5 -15q0 -21 -48 -97z" />
    <glyph glyph-name="Y" unicode="Y" horiz-adv-x="591" 
d="M402 103v202l173 301q10 16 10 31q0 33 -56 33h-79q-32 0 -37 23q-4 23 -18 25q-19 1 -27 -13q-11 -29 -21 -56.5t-18 -53.5q-4 -8 -4 -15q0 -15 28 -15h80q33 0 33 -10q0 -7 -21 -43l-78 -137q-8 20 -16.5 41t-16.5 41q-32 78 -79 139q-61 79 -121 85q-28 3 -55 -35
q-5 -3 -30 -36q-29 -36 -27 -44q1 -22 25 -22q4 0 11.5 2.5t15 5.5t15 5.5t12.5 2.5q10 0 17 -4q52 -25 105 -118q46 -81 62 -156v-179q0 -36 -20 -47q-2 -1 -11.5 -3.5t-26.5 -6.5q-20 -5 -20 -24q0 -17 19 -21q4 -1 36 -1h164q31 0 35 1q19 4 19 21q0 19 -20 24
q-35 8 -38 9q-20 12 -20 48z" />
    <glyph glyph-name="Z" unicode="Z" horiz-adv-x="495" 
d="M262 616h83l-258 -476q-38 -71 -38 -96q0 -32 37 -41q13 -3 62 -3h207q25 0 33 -8q2 -4 5 -20q3 -17 25 -16q10 0 17 13q0 3 10 27l31 86q20 58 20 66q0 24 -25 25q-11 0 -24 -15.5t-25 -30.5q-63 -71 -172 -71q-14 0 -32 1.5t-40 3.5l260 474q41 74 41 92q0 11 -5 19
q-11 19 -38 23q-5 1 -18 1h-35h-170q-33 0 -37 24q-5 24 -22 24q-15 0 -24 -16q-2 -2 -9 -27l-24 -72q-16 -45 -16 -65q0 -9 3 -13q5 -12 20 -10q12 0 19 12l14 24q30 42 57 55q21 10 68 10z" />
    <glyph glyph-name="bracketleft" unicode="[" horiz-adv-x="285" 
d="M156 677h127v29h-235v-900h235v32h-127v839z" />
    <glyph glyph-name="backslash" unicode="\" horiz-adv-x="324" 
d="M225 -57v642q0 90 22 106q23 18 48 8q10 -4 35 -28q27 -24 39 -27t23.5 1t19 11.5t11.5 18t1 22.5q-8 34 -60 53q-26 9 -54 9q-57 0 -103 -35q-50 -39 -69 -114q-12 -51 -12 -137v-52h-49q-32 0 -32 -24t33 -24h48v-482q0 -30 -13 -49q-8 -11 -30 -30q-14 -11 -1 -25
q11 -14 28 -4l154 82q19 9 20 21q2 17 -7 22t-22 1q-30 -9 -30 34z" />
    <glyph glyph-name="bracketright" unicode="]" horiz-adv-x="285" 
d="M48 706v-29h127v-839h-127v-32h235v900h-235z" />
    <glyph glyph-name="asciicircum" unicode="^" horiz-adv-x="276" 
d="M237 470q8 -2 12 -2q13 0 13 8q0 6 -12 15q-40 27 -64 40q-16 10 -25 10q-10 0 -41 -21q-13 -8 -25.5 -17t-24.5 -17q-11 -8 -11 -14t9 -6q7 0 16 3l77 26z" />
    <glyph glyph-name="underscore" unicode="_" horiz-adv-x="535" 
d="M669 -137v38h-581v-38h581z" />
    <glyph glyph-name="grave" unicode="`" horiz-adv-x="199" 
d="M159 466q8 -5 14 -5q12 0 12 11q0 7 -9 18q-26 31 -43.5 50t-25.5 27q-20 19 -33 18q-17 -2 -21 -22q-5 -14 17 -30z" />
    <glyph glyph-name="a" unicode="a" horiz-adv-x="509" 
d="M346 53q0 -65 9 -69q8 -5 50 9q7 2 19 4t29 4q8 1 17 1.5t18 1.5q15 2 22 12t0 19q-3 6 -17 9q-20 5 -28 10q-17 10 -22 30q-1 5 -1 53v123q0 55 -6 79q-10 48 -50 77q-34 25 -97 25q-65 0 -111 -21q-84 -38 -90 -77q-5 -26 18 -43q16 -13 39 -5q16 6 33 26q7 8 13 16
t13 16q25 28 60 37q40 11 66 -14q23 -22 16 -51q-9 -35 -55 -57q-12 -6 -69 -24l-32 -10q-62 -20 -90 -43q-34 -27 -38 -76q-7 -73 59 -110q31 -16 68 -16q74 0 157 64zM295 212q31 11 52 31q0 -73 -4 -93q-12 -57 -56 -84q-23 -14 -52 -14q-23 0 -40 11q-32 21 -29 60
q1 33 37 53q12 7 77 29z" />
    <glyph glyph-name="b" unicode="b" horiz-adv-x="555" 
d="M225 196v129q55 46 102 46q19 0 37 -8q73 -34 85 -132q1 -6 1.5 -12.5t0.5 -14.5q0 -107 -66 -149q-24 -15 -62 -15q-28 0 -47 10q-38 21 -47 62q-4 16 -4 84zM225 392v263q0 29 13 48q4 5 11.5 13t18.5 18q5 5 5 12q1 7 -4 12q-11 14 -28 5l-154 -82q-18 -10 -19 -21
q-3 -15 7 -21t21 -3q3 1 9 1q21 0 21 -34v-486q0 -24 -3 -44.5t-6 -35.5t-6 -23l-3 -8q0 -17 22 -14q20 9 27 16q18 12 26 12q18 0 66 -17q37 -13 68 -15q42 -3 90 15q55 22 88 63q58 70 58 165q0 31 -8 61q-26 99 -117 135q-30 12 -62 12q-64 0 -141 -47z" />
    <glyph glyph-name="c" unicode="c" horiz-adv-x="424" 
d="M408 48q11 16 12.5 20.5t1.5 7.5q0 15 -15 15q-7 0 -15 -5q-27 -13 -49 -22.5t-44 -9.5q-42 0 -82 32q-74 61 -70 178q4 82 62 107q15 7 36 7q28 0 53 -17q21 -18 41.5 -36t43.5 -15q27 5 36 26q10 24 -5 47q-17 27 -62 40q-18 5 -37 8t-39 2q-126 -1 -194 -112
q-34 -55 -34 -122q0 -50 21 -93q59 -119 185 -119q99 0 154 61z" />
    <glyph glyph-name="d" unicode="d" horiz-adv-x="555" 
d="M300 386q38 -7 77 -32v-148q0 -58 -3 -73q-9 -40 -45 -64q-26 -17 -53 -17q-21 0 -40 9q-71 32 -88 121q-4 19 -4 43q0 82 48 129q37 35 80 35q13 0 28 -3zM476 103v552q0 43 43 79q12 10 1 24t-28 5l-154 -82q-18 -10 -19 -21q-3 -15 7 -21t21 -3q3 1 9 1q21 0 21 -34
v-195q-53 30 -107 30q-64 0 -117 -37q-115 -79 -105 -217q11 -135 121 -186q25 -12 57 -12q74 0 147 52q0 -53 6 -57q7 -5 16 -5q11 0 40 12q46 12 66 12q32 0 36 1q18 4 18 21q0 19 -20 24q-36 7 -39 9q-20 12 -20 48z" />
    <glyph glyph-name="e" unicode="e" horiz-adv-x="421" 
d="M233 432q-46 -4 -91 -37q-51 -38 -77 -109q-22 -57 -17 -109q12 -128 123 -177q36 -16 79 -16q67 0 128 41q36 25 41 52q3 16 -12 18q-7 0 -33 -14q-16 -9 -27 -14.5t-16 -7.5q-33 -11 -57 -11q-38 0 -66 25q-32 29 -29 59q3 28 35 46q15 9 60 24l39 13q53 18 70 29
q33 22 33 63q0 43 -27 75q-44 51 -128 51h-14t-14 -1zM199 225q-18 -8 -45 -33q-6 25 -6 58q0 69 26.5 101.5t71.5 30.5q36 -1 61 -37q12 -17 12 -33q0 -10 -4 -18q-10 -23 -44 -40q-14 -5 -27.5 -11t-27.5 -11z" />
    <glyph glyph-name="f" unicode="f" horiz-adv-x="324" 
d="M225 -57v430h55q16 0 33 -2t20 -2q6 0 10.5 5t7 11.5t3.5 13.5t-1 12q-4 8 -24 10h-64h-40v164q0 90 22 106q23 18 48 8q10 -4 35 -28q27 -24 39 -27t23.5 1t19 11.5t11.5 18t1 22.5q-8 34 -60 53q-26 9 -54 9q-57 0 -103 -35q-50 -39 -69 -114q-12 -51 -12 -137v-52h-49
q-32 0 -32 -24t33 -24h48v-482q0 -30 -13 -49q-8 -11 -30 -30q-14 -11 -1 -25q11 -14 28 -4l154 82q19 9 20 21q2 17 -7 22t-22 1q-30 -9 -30 34z" />
    <glyph glyph-name="g" unicode="g" horiz-adv-x="457" 
d="M271 439q0 61 9 73q16 22 54 14q25 -5 42 15q11 14 6 32q-10 34 -51 34q-34 0 -59 -19q-50 -36 -50 -149q-65 -11 -104 -40q-36 -26 -55 -68q-17 -39 -13 -72q6 -53 33 -85q24 -29 81 -54q-25 -29 -40.5 -47.5t-20.5 -26.5q-22 -31 -13 -50q9 -21 45 -25q2 -1 32 1
q33 3 49 3q27 0 35 -6q12 -11 5 -25q-11 -13 -21 -22.5t-20 -16.5q-29 -24 -38 -44q-6 -14 -6 -29q0 -24 11 -41q20 -29 53 -26q19 1 34.5 12.5t15.5 29.5q0 9 -11 31q-10 19 -10 32q0 18 18 36q10 10 67 41q45 24 57 50q6 12 5.5 24t-8.5 21.5t-24.5 15.5t-42.5 6
q-12 0 -26 -1.5t-13 -1.5l-24 -3q-42 -5 -59 2q-23 8 -15 32q4 15 16 22q48 -5 84 1q105 17 143 95q17 32 15 70q-2 39 -16 66q-49 91 -170 93zM233 395q59 8 97 -49q18 -26 25 -62q10 -45 -7 -83q-24 -48 -83 -48q-62 0 -100 62q-20 35 -20 77q0 29 10 50q21 47 78 53z" />
    <glyph glyph-name="h" unicode="h" horiz-adv-x="577" 
d="M225 375v280q0 32 13 48t30 31q5 4 5.5 11.5t-4.5 12.5q-6 8 -14 8t-14 -3l-154 -82q-10 -5 -14 -11t-5 -10q-2 -8 1 -14t6 -8q8 -4 13.5 -3.5t7.5 1.5q4 1 9 1.5t9.5 -2.5t8 -10.5t3.5 -21.5v-500q0 -21 -5.5 -32t-14 -15.5t-18.5 -6t-18.5 -3.5t-14 -7t-5.5 -17
q0 -10 5.5 -14.5t13.5 -6t18 -1.5h18h143h17q10 0 18 1.5t13.5 6t5.5 14.5q0 12 -5.5 17t-14.5 7t-18.5 3t-18.5 6t-14.5 16t-5.5 32v143q0 15 1 29.5t5.5 27.5t15 24.5t29.5 21.5q20 11 43.5 11.5t41.5 -9.5q19 -10 28.5 -26.5t13 -35t3.5 -38.5v-36v-112q0 -21 -5.5 -32
t-14 -15.5t-18.5 -6t-18.5 -3.5t-14 -7t-5.5 -17q0 -10 5.5 -14.5t13.5 -6t18 -1.5h18h143h17q10 0 18 1.5t13.5 6t5.5 14.5q0 12 -5.5 17t-14.5 7t-18.5 3t-18.5 6t-14.5 16t-5.5 32v182q0 19 -3.5 39t-12 38t-24 33.5t-39.5 26.5q-47 22 -100 12.5t-101 -59.5z" />
    <glyph glyph-name="i" unicode="i" horiz-adv-x="302" 
d="M103 577q0 -27 18.5 -45t44.5 -18q27 0 45.5 19t18.5 45q0 27 -18.5 45t-45.5 18q-26 0 -44.5 -18t-18.5 -46zM103 0h146q32 0 36 1q19 4 19 21q0 19 -20 24q-36 7 -39 9q-20 11 -20 48v278q0 15 3 32.5t3 20.5q0 13 -11 19q-10 4 -22 0q-32 -18 -66 -19q-8 -1 -19 -0.5
t-26 1.5q-33 1 -33 -21t29 -27q22 -3 30 -9q13 -10 13 -35v-240q0 -36 -20 -48q-3 -1 -38 -9q-20 -5 -20 -24q0 -17 19 -21q4 -1 36 -1z" />
    <glyph glyph-name="j" unicode="j" horiz-adv-x="302" 
d="M103 577q0 -27 18.5 -45t44.5 -18q27 0 45.5 19t18.5 45q0 27 -18.5 45t-45.5 18q-26 0 -44.5 -18t-18.5 -46zM225 47v334q0 15 3 32.5t3 20.5q0 13 -11 19q-10 4 -22 0q-32 -18 -66 -19q-8 -1 -19 -0.5t-26 1.5q-33 1 -33 -21t29 -27q22 -3 30 -9q13 -10 13 -35v-395
q0 -72 -8 -80t-20 -4q-8 7 -13 12.5t-7 10.5q-10 13 -31 13q-26 0 -40.5 -16t-10.5 -44q5 -29 38 -42q15 -5 29 -5q36 0 73 28q89 66 89 226z" />
    <glyph glyph-name="k" unicode="k" horiz-adv-x="527" 
d="M225 195l20 -23q22 -26 44 -51t44 -51q72 -75 112 -77q47 -2 87 52q8 14 1 24q-5 6 -12 6q-3 0 -13 -2.5t-16 -2.5q-33 0 -96 68q-23 25 -42 49t-35 48q146 102 149 154q2 23 -14 29q-9 4 -21 4h-96q-22 0 -23 -19q-2 -17 17 -20q29 -8 29 -31q0 -31 -135 -125v437
q0 29 13 48q4 5 11.5 13t18.5 18q5 5 5 12q1 7 -4 12q-11 14 -28 5l-154 -82q-18 -10 -19 -21q-3 -15 7 -22q6 -2 21 -2q3 1 9 1q21 0 21 -34v-509q0 -36 -20 -47q-3 -3 -36 -10q-20 -5 -20 -24q0 -17 18 -21q4 -1 35 -1h147q31 0 34 1q18 4 18 21q0 19 -20 24q-34 7 -37 9
q-20 12 -20 48v92z" />
    <glyph glyph-name="l" unicode="l" horiz-adv-x="302" 
d="M126 603v-500q0 -36 -20 -47q-3 -3 -36 -10q-20 -5 -20 -24q0 -17 19 -21q4 -1 36 -1h143q31 0 35 1q19 4 19 21q0 19 -20 24q-34 7 -37 9q-20 12 -20 48v552q0 29 13 48q4 5 11.5 13t18.5 18q5 5 5 12q1 7 -4 12q-11 14 -28 5l-154 -82q-18 -10 -19 -21q-3 -15 7 -21
t21 -3q3 1 9 1q21 0 21 -34z" />
    <glyph glyph-name="m" unicode="m" horiz-adv-x="830" 
d="M760 103v198q0 41 -16.5 74t-63.5 53q-45 18 -96.5 4.5t-102.5 -63.5q-18 25 -31 37.5t-31 21.5q-21 10 -45 10.5t-49.5 -6.5t-51 -20.5t-48.5 -31.5q0 29 4.5 43.5t-3.5 24.5q-11 13 -28 5q-9 -5 -28 -11.5t-38 -7.5q-14 -1 -24 -0.5t-21 1.5q-16 1 -24.5 -5t-8.5 -16
q0 -14 7.5 -19.5t21.5 -7.5q8 -1 16 -2.5t14 -6t9.5 -13t3.5 -22.5v-240q0 -32 -11.5 -41.5t-25 -12t-24.5 -6t-11 -21.5q0 -10 5.5 -14.5t13.5 -6t17 -1.5h18h135h17q10 0 18 1.5t13 6t5 14.5q0 18 -11 21t-24.5 6t-24.5 12.5t-11 41.5v115v41t4 39t14.5 35t30.5 28
q18 11 41 11q24 0 39 -9q18 -11 26.5 -25t11.5 -30t3 -33v-33v-139q0 -33 -9 -42.5t-19.5 -12t-19 -5t-8.5 -21.5q0 -10 5.5 -14.5t13.5 -6t18 -1.5h18h105h19q10 0 17.5 1.5t12.5 6t5 14.5q0 18 -9 20t-20 4t-20 12.5t-9 44.5v129v43t3 34t11.5 27t25.5 22q20 12 44 13.5
t39 -6.5q18 -10 27 -25.5t12.5 -34.5t3.5 -39v-39v-124q0 -23 -5 -34t-12 -16t-16 -5.5t-16 -2t-12 -6.5t-5 -17q0 -10 5.5 -14.5t13.5 -6t18 -1.5h18h118q21 0 37.5 1.5t16.5 20.5q0 17 -9.5 19.5t-21.5 5t-21.5 13t-9.5 43.5z" />
    <glyph glyph-name="n" unicode="n" horiz-adv-x="564" 
d="M495 299q0 45 -15 78t-61 51q-42 17 -94.5 2t-99.5 -50q0 29 4.5 43.5t-3.5 24.5q-11 13 -28 5q-9 -5 -28 -11.5t-38 -7.5q-14 -1 -24 -0.5t-21 1.5q-16 1 -24.5 -5t-8.5 -16q0 -14 7.5 -19.5t21.5 -7.5q8 -1 16 -2.5t14 -6t9.5 -13t3.5 -22.5v-240q0 -32 -11.5 -41.5
t-25 -12t-24.5 -6t-11 -21.5q0 -10 5.5 -14.5t13.5 -6t17 -1.5h18h135h17q10 0 18 1.5t13 6t5 14.5q0 18 -11 21t-24.5 6t-24.5 12.5t-11 41.5v115v42t4.5 39.5t14.5 34t30 27.5q18 11 41.5 10.5t38.5 -8.5q17 -9 25.5 -23t12 -30.5t3.5 -34.5v-33v-139q0 -33 -9 -42.5
t-19.5 -12t-19 -5t-8.5 -21.5q0 -10 5.5 -14.5t13.5 -6t18 -1.5h18h105h19q10 0 17.5 1.5t12.5 6t5 14.5q0 18 -9 20t-20 4.5t-20 13t-9 43.5v196z" />
    <glyph glyph-name="o" unicode="o" horiz-adv-x="520" 
d="M168 153q-17 51 -17 97q0 99 73 124q18 6 37 6q43 0 80 -31q40 -34 61 -94q14 -42 14 -83q0 -100 -69 -128q-21 -9 -43 -9q-43 0 -80.5 32t-55.5 86zM280 436q-101 0 -168 -67q-66 -66 -64 -163q2 -92 66 -155q67 -67 176 -67q97 0 164 65q66 66 65 165q-2 101 -68 161
q-65 61 -171 61z" />
    <glyph glyph-name="p" unicode="p" horiz-adv-x="548" 
d="M225 197v135q46 37 98 37q38 0 66 -20q75 -56 65 -169q-7 -92 -78 -127q-24 -11 -47 -11q-29 0 -51 15q-39 25 -49 65q-4 15 -4 75zM225 -104v126q55 -31 113 -31q57 0 107 32q55 37 84 108q24 59 19 116q-10 129 -115 176q-29 12 -60 12q-73 0 -148 -54q0 15 3 32.5
t3 20.5q0 13 -11 19q-10 4 -22 0q-32 -18 -66 -19q-8 -1 -19 -0.5t-26 1.5q-33 1 -33 -21t29 -27q22 -3 30 -9q13 -10 13 -35v-447q0 -36 -20 -47q-1 -1 -38 -9q-20 -5 -20 -24q0 -17 19 -21q4 -1 36 -1h147q31 0 35 1q19 4 19 21q0 19 -20 24q-36 7 -39 9q-20 11 -20 47z
" />
    <glyph glyph-name="q" unicode="q" horiz-adv-x="544" 
d="M210 366q29 20 55 20q48 0 80 -32q22 -29 26 -41v-203q-17 -25 -36 -35q-29 -17 -59 -17q-27 0 -49 12q-75 38 -82 137q-3 41 10 80q16 51 55 79zM370 34l1 -138q0 -36 -20 -47q-1 -1 -38 -9q-20 -5 -20 -24q0 -17 19 -21q4 -1 35 -1h148q30 0 34 1q19 4 19 21
q0 19 -20 24q-35 8 -38 9q-20 11 -20 47v416q0 39 6 77q2 17 3.5 25.5t1.5 9.5q-2 8 -8 9q-9 2 -17 -5q-26 -19 -37 -23q-15 -5 -39 2q-98 29 -127 29q-50 0 -97 -31q-55 -35 -83 -102q-24 -57 -23 -110q1 -131 102 -186q40 -20 79 -20q57 0 139 47z" />
    <glyph glyph-name="r" unicode="r" horiz-adv-x="400" 
d="M225 103v175q13 27 38 50t47 27q26 5 44 -16l3 -5.5l9 -16.5q7 -13 18 -13q21 0 21 21v66q0 41 -40 45q-64 6 -140 -91v36q0 15 3 32.5t3 20.5q0 13 -11 19q-10 4 -22 0q-32 -18 -66 -19q-8 -1 -19 -0.5t-26 1.5q-33 1 -33 -21t29 -27q22 -3 30 -9q13 -10 13 -35v-240
q0 -36 -20 -47q-2 -1 -11.5 -3.5t-26.5 -6.5q-20 -5 -20 -24q0 -17 19 -21q4 -1 36 -1h147q31 0 35 1q19 4 19 21q0 19 -20 24q-36 7 -39 9q-20 12 -20 48z" />
    <glyph glyph-name="s" unicode="s" horiz-adv-x="365" 
d="M273 291q11 -3 16.5 1.5t12.5 17.5q1 2 8.5 16t16 31t16 31t7.5 16q2 8 3.5 12t-4.5 11q-5 6 -10.5 7t-10.5 0q-5 -2 -8.5 -5.5l-5.5 -5.5q-8 -12 -19.5 -11.5t-19.5 3.5l-20 8q-35 13 -78.5 10t-76.5 -32q-29 -25 -39.5 -55.5t-5.5 -59.5q5 -27 15.5 -43t26 -26
t35.5 -17t44 -16l17 -6q20 -7 35 -12.5t25.5 -12t16.5 -17t6 -26.5q1 -19 -10 -38t-32 -29q-29 -14 -58.5 -6.5t-52.5 33.5q9 15 10.5 21.5t3.5 13.5q3 14 -1.5 23.5t-12.5 17.5q-10 9 -24 12t-28 0t-25.5 -13t-16.5 -23q-7 -18 -4 -35t13 -34t27.5 -28.5t36 -19t35.5 -11.5
t28 -4q19 -1 41 1t44 9.5t42 20.5t36 34q20 25 27 55t-1 56t-21 42.5t-30 27t-37 17t-40 12.5l-20 6q-29 8 -50.5 17.5t-29.5 32.5q-7 19 6 40q11 17 25.5 24.5t28.5 8.5q16 1 31.5 -3.5t27.5 -18.5q5 -6 8.5 -15t6.5 -21q2 -5 1.5 -14t-0.5 -20q0 -6 3.5 -7.5t8.5 -3.5z
" />
    <glyph glyph-name="t" unicode="t" horiz-adv-x="304" 
d="M238 422h-13v25q0 77 -8 87t-22 5q-8 -1 -19 -19q-4 -5 -7 -11t-7 -12q-20 -23 -40 -35.5t-40 -24.5q-28 -16 -31.5 -25t-1.5 -19q3 -12 9 -16q4 -3 26 -5t29 -10q13 -13 13 -50v-209q0 -36 -20 -47q-2 -1 -11.5 -3.5t-26.5 -6.5q-20 -5 -20 -24q0 -17 19 -21q4 -1 36 -1
h147q31 0 35 1q19 4 19 21q0 19 -20 24q-36 7 -39 9q-20 12 -20 48v271h28q17 0 35.5 -2.5t21.5 -2.5q12 0 15 16t-1 27q-4 8 -20 10h-66z" />
    <glyph glyph-name="u" unicode="u" horiz-adv-x="572" 
d="M200 -2q27 -13 61 -13q67 0 134 53q0 -53 6 -57q7 -5 15 -5q12 0 41 12q46 12 66 12q31 0 35 1q18 4 18 21q0 19 -20 24q-35 8 -38 9q-20 12 -20 48v278q0 15 3 32.5t3 20.5q0 13 -11 19q-10 4 -22 0q-32 -18 -66 -19q-8 -1 -19 -0.5t-26 1.5q-34 1 -34 -21t29 -27
q23 -3 32 -9q14 -11 14 -35v-151q0 -62 -4 -74q-8 -29 -45 -51q-23 -14 -46 -14q-22 0 -39 10q-30 17 -39 61q-3 18 -3 72v185q0 15 3 32.5t3 20.5q0 13 -11 19q-10 4 -22 0q-32 -18 -66 -19q-8 -1 -19 -0.5t-26 1.5q-33 1 -33 -21t29 -27q22 -3 30 -9q13 -10 13 -35v-178
q0 -74 7 -95q14 -48 67 -72z" />
    <glyph glyph-name="v" unicode="v" horiz-adv-x="496" 
d="M361 69l115 301q4 11 18 34q10 16 10 23q0 5 -4 9q-10 13 -28 5t-33 -13t-27 -6q-9 -1 -20 -0.5t-25 1.5q-33 3 -33 -21q0 -9 5 -15t13 -9.5t17 -5.5t17 -4q18 -8 18 -27q0 -9 -4 -18l-87 -228l-90 228q-7 15 -7 28q0 14 23 22t22 27q0 16 -19 20q-4 1 -12.5 1.5
t-22.5 0.5h-111q-25 0 -35 -2q-19 -4 -19 -20q0 -20 13.5 -24t28.5 -9q22 -12 35 -48l100 -254q17 -38 26 -56t18 -21q6 -2 32 -2q22 0 28 2q9 4 18 27q7 19 12 32.5t8 21.5z" />
    <glyph glyph-name="w" unicode="w" horiz-adv-x="708" 
d="M608 323l-83 -198l-73 195q-7 17 -7 28q0 15 20 24t20 28q0 15 -18 20q-4 1 -12.5 1.5t-22.5 0.5h-57q-25 0 -35 -2q-19 -4 -19 -20q0 -19 24 -29q24 -9 24 -28q0 -14 -7 -32l-63 -178l-75 190q-7 15 -7 28q0 14 23 22t22 27q0 16 -19 20q-4 1 -12.5 1.5t-22.5 0.5h-111
q-14 0 -22.5 -0.5t-12.5 -1.5q-19 -4 -19 -20q0 -20 13.5 -24t28.5 -9q22 -12 35 -48l100 -254q8 -19 14 -33t11 -24q10 -18 13 -20q4 -2 26 -2q12 0 18.5 0.5t10.5 3.5t6.5 8.5t5.5 16.5l63 190q76 -194 78 -198q8 -17 11 -19q6 -2 28 -2t27 3q6 3 15 26q8 21 13 34.5
t7 19.5l118 300q4 11 18 34q10 16 10 23q0 5 -4 9q-10 13 -28 5t-33 -13t-28 -6q-8 -1 -18.5 -0.5t-23.5 1.5q-33 3 -33 -21q0 -21 29 -26q39 -6 39 -32q0 -8 -5 -20z" />
    <glyph glyph-name="x" unicode="x" horiz-adv-x="498" 
d="M200 97q34 49 39 57l16 21l18 -26q49 -69 47 -87q-1 -13 -16 -16q-14 -3 -18 -12q-5 -14 3.5 -24t47.5 -10h119q34 0 42 14t-3 22q-4 6 -28 12q-23 8 -33 23l-98 154l85 126q18 27 36 33l21 3q10 7 7 23q-6 12 -25 12h-111q-25 0 -31 -7q-14 -15 0 -23q11 -4 23.5 -8
t12.5 -15q0 -9 -6 -19l-44 -75l-52 79q-52 79 -72 82q-19 3 -53 -25l-53 -42q-17 -12 -12 -24q2 -11 13 -16q2 -1 25 7q3 1 9 5q8 4 17 4q15 0 25 -16l70 -104l-89 -126q-22 -31 -47 -45q-8 -3 -15 -6t-14 -5q-10 -4 -10 -21q2 -17 20 -21q4 -1 37 -1h65q31 0 35 1
q19 4 19 21q0 15 -20 21q-19 7 -19 17q0 11 17 37z" />
    <glyph glyph-name="y" unicode="y" horiz-adv-x="504" 
d="M125 319l101 -186q31 -57 39 -69q-15 -32 -25.5 -55t-17.5 -38q-45 -99 -45 -138q0 -48 41 -57q31 -7 46.5 10.5t17.5 45.5q-1 -8 -1 5v44v13q0 82 59 197l143 279q0 2 19 33q8 16 8 23q0 6 -4 10q-10 13 -28 5t-33 -13t-27 -6q-9 -1 -20 -0.5t-24 1.5q-34 3 -34 -21
q0 -25 29 -27q35 -3 35 -23q0 -9 -7 -22l-82 -158l-86 151q-5 18 -5 27q0 17 22 24t21 26q0 16 -19 20q-4 1 -12 1.5t-22 0.5h-111q-26 0 -36 -2q-19 -4 -19 -20q0 -17 4 -17q1 0 4.5 1t7.5 1q25 0 61 -66z" />
    <glyph glyph-name="z" unicode="z" horiz-adv-x="384" 
d="M330 105q-26 -42 -66 -53q-9 -2 -33.5 -3t-66.5 -2l173 247q8 11 16 22.5t16 22.5q18 28 18 45q0 38 -83 38h-130q-8 0 -15 16q-7 15 -19 17q-13 1 -25 -21q-9 -26 -18 -50.5t-18 -47.5q-8 -23 9 -29q13 -5 24 6q7 8 12 14t8 10q24 25 46 31q35 10 95 1l-169 -240
q-58 -82 -51 -104q6 -20 30 -24q5 -1 51 -1h85h51q10 -1 15 -14q9 -26 27 -24t25 24q23 62 34 94t12 35q2 23 -21 23q-12 0 -19 -12t-13 -21z" />
    <glyph glyph-name="braceleft" unicode="{" horiz-adv-x="471" 
d="M466 724v39q-155 -11 -210 -72q-28 -32 -35 -70q-4 -19 -4 -76v-80q0 -54 -5 -74q-11 -42 -50 -68q-36 -26 -114 -36v-51q96 -14 129 -44q40 -37 40 -129v-70q0 -75 10 -105q17 -54 76.5 -88.5t165.5 -34.5v40q-96 11 -130 56q-28 38 -28 130v41q0 135 -63 182
q-47 37 -152 47q122 23 161 56q52 43 52 157v71q0 55 8 82q13 43 58 68q10 5 20.5 9t23.5 8q3 1 47 12z" />
    <glyph glyph-name="bar" unicode="|" horiz-adv-x="152" 
d="M126 -99v901h-48v-901h48z" />
    <glyph glyph-name="braceright" unicode="}" horiz-adv-x="471" 
d="M48 763v-39q34 -8 57 -15t35 -14q43 -24 57 -68q8 -27 8 -82v-71q0 -113 53 -157q39 -33 160 -56q-105 -12 -152 -47q-62 -47 -62 -182v-41q0 -92 -28 -130q-34 -45 -131 -56v-40q107 0 166 34.5t76 88.5q10 30 10 105v70q0 92 40 129q33 30 129 44v51q-77 11 -113 36
q-41 29 -51 68q-2 10 -3.5 28t-1.5 46v80q0 28 -1 47t-3 29q-8 40 -35 70q-56 61 -210 72z" />
    <glyph glyph-name="asciitilde" unicode="~" horiz-adv-x="296" 
d="M283 495q3 3 3 8q-2 5 -6 5q-2 0 -16 -7.5t-28 -7.5t-29 6l-13 5q-26 10 -52 10q-50 0 -83 -38q-4 -4 -2 -9q3 -4 8 -1q24 12 42 12q9 0 31 -5q31 -9 45 -12q5 -1 10 -1.5t10 -0.5q39 0 80 36z" />
    <glyph glyph-name="quotesinglbase" unicode="&#x201a;" horiz-adv-x="175" 
d="M84 -101q54 19 81 90q8 21 8 40q0 25 -12 42q-17 23 -48 23q-32 0 -45 -27q-12 -23 -2 -47q4 -11 25 -24q4 -2 8 -4.5t9 -4.5q7 -5 8 -14q4 -22 -37 -66q-5 -5 -4 -8t9 0z" />
    <glyph glyph-name="quotedblbase" unicode="&#x201e;" horiz-adv-x="376" 
d="M276 -101q55 21 81 90q8 21 8 42q0 23 -11 40q-17 23 -49 23q-31 0 -44 -27q-12 -23 -2 -47q4 -9 9 -13q2 -2 5.5 -4.5t10.5 -6.5q8 -4 15.5 -8.5t9.5 -14.5q4 -22 -37 -66q-6 -4 -4 -8q2 -3 8 0zM95 -101q55 20 80 90q8 21 8 42q0 23 -11 40q-17 23 -48 23
q-32 0 -45 -27q-12 -23 -2 -47q4 -9 9 -13q2 -2 5.5 -4.5t10.5 -6.5q8 -4 15.5 -8.5t9.5 -14.5q4 -22 -37 -66q-5 -5 -4 -8t9 0z" />
    <glyph glyph-name="ellipsis" unicode="&#x2026;" horiz-adv-x="525" 
d="M417 48q0 -21 15 -35.5t36 -14.5t36 14.5t15 35.5t-15 36t-36 15t-36 -15t-15 -36zM67 48q0 -21 15 -35.5t36 -14.5t36 14.5t15 35.5t-15 36t-36 15t-36 -15t-15 -36zM242 48q0 -21 15 -35.5t36 -14.5t36 14.5t15 35.5t-15 36t-36 15t-36 -15t-15 -36z" />
    <glyph glyph-name="dagger" unicode="&#x2020;" horiz-adv-x="324" 
d="M167 472l36 117l-40 41l-41 -41l37 -117l-119 35l-40 -41l40 -40l119 36l-37 -117l41 -243l40 243l-36 117l119 -36l41 40l-41 41z" />
    <glyph glyph-name="daggerdbl" unicode="&#x2021;" horiz-adv-x="324" 
d="M159 228l-119 36l-40 -41l40 -40l119 35l-37 -118l41 -41l40 41l-36 118l119 -35l41 40l-41 41l-119 -36l36 117l-36 117l119 -36l41 40l-41 41l-119 -35l36 117l-40 41l-41 -41l37 -117l-119 35l-40 -41l40 -40l119 36l-37 -117z" />
    <glyph glyph-name="circumflex" unicode="&#x2c6;" horiz-adv-x="421" 
d="M322 470q8 -2 12 -2q13 0 13 8q0 6 -12 15q-40 27 -64 40q-17 11 -26 11q-11 0 -40 -20l-50 -34q-11 -8 -11 -14t9 -6q6 0 15 3q28 9 47 15t30 9z" />
    <glyph glyph-name="perthousand" unicode="&#x2030;" horiz-adv-x="814" 
d="M149 539q-28 -8 -34 -14q-57 -36 -62 -128q-5 -101 56 -144q22 -16 58 -16q82 0 106 104q5 23 5 45q0 78 -41 122q-37 38 -88 31zM109 390q0 94 38 120q20 8 36 -2q27 -16 34 -65q2 -14 3 -28t1 -30q0 -82 -28 -110q-16 -16 -34 -13q-22 4 -35 32q-15 31 -15 96zM424 299
l-21 -7t-14 -7q-57 -38 -62 -128q-5 -101 57 -144q23 -14 57 -14q22 0 34 4q56 23 72 98q5 25 5 48q0 79 -40 119q-38 38 -88 31zM399 245q7 14 23 25q18 7 35 -2q28 -16 35 -65q3 -26 3 -56q0 -84 -28 -112q-16 -16 -33 -13q-23 5 -36 32q-15 31 -15 96q0 64 16 95z
M451 494l-264 -474q-9 -15 -23 -15q-15 0 -15 16q0 10 8 26l264 475q4 10 16 10q19 0 19 -21q0 -7 -5 -17zM677 299l-21 -7t-14 -7q-57 -38 -62 -128q-5 -101 57 -144q23 -14 57 -14q22 0 34 4q56 23 72 98q5 25 5 48q0 79 -40 119q-38 38 -88 31zM652 245q7 14 23 25
q18 7 35 -2q28 -16 35 -65q3 -26 3 -56q0 -84 -28 -112q-16 -16 -33 -13q-23 5 -36 32q-15 31 -15 96q0 64 16 95z" />
    <glyph glyph-name="Scaron" unicode="&#x160;" horiz-adv-x="491" 
d="M153 95q34 19 34 57q0 26 -19 46t-46 20t-49 -17q-38 -32 -31 -81q11 -80 95 -116q46 -18 101 -18q85 0 146 41q105 73 97 205q-5 76 -42 120q-32 37 -122 84l-38 20q-98 52 -109 99q-7 32 16 57q29 29 78 22q41 -6 67 -31q21 -19 56 -76q13 -22 25 -24q24 -5 24 22
q0 12 -21 80l-19 60l-11 35q-7 16 -18 19q-10 3 -22 -6q-9 -11 0 -51q-63 29 -107 29q-45 0 -89 -25q-38 -21 -60 -63q-20 -38 -20 -76q0 -60 33 -97q24 -27 95 -68l56 -32q74 -43 99 -70q39 -40 34 -95q-7 -88 -91 -115q-21 -7 -43 -7q-59 0 -99 52zM176 804q-8 2 -12 2
q-13 0 -13 -8q0 -6 12 -15q40 -27 64 -40q16 -10 26 -10q12 0 39 18q14 9 26.5 18t24.5 17q12 7 12 14q0 6 -10 6q-6 0 -15 -3q-56 -18 -78 -24z" />
    <glyph glyph-name="guilsinglleft" unicode="&#x2039;" horiz-adv-x="158" 
d="M142 338q4 9 4 17q0 13 -9 13q-12 0 -22 -19l-21 -39q-42 -80 -42 -89q0 -13 10 -32q8 -14 16 -28.5t16 -28.5l22 -41q7 -13 17 -13q15 0 8 25l-39 121z" />
    <glyph glyph-name="OE" unicode="&#x152;" horiz-adv-x="940" 
d="M209 535q44 68 112 90q33 11 63 11q58 0 111 -38q31 -23 39 -54q1 -5 1.5 -21t0.5 -44v-305q0 -53 -1 -56q-3 -30 -21 -45q-29 -23 -97 -23q-21 0 -34 3q-69 18 -109 57q-40 38 -70 114q-29 78 -29 168q0 91 34 143zM781 670h-173q-25 0 -44 1.5t-33 3.5l-27 5
q-61 11 -114 11q-105 0 -175 -41q-145 -86 -164 -273q-1 -8 -1.5 -16t-0.5 -16q0 -141 90 -240q103 -114 252 -114q22 0 45 3l50 6h279q37 0 58 -0.5t26 -1.5q15 -5 16 -31q2 -18 22 -14q15 3 25 31q4 14 8 28.5t9 28.5l13 43q16 51 16 65q0 11 -8.5 18t-18.5 3
q-25 -25 -39 -47q-23 -32 -48 -48q-44 -30 -93 -30q-26 0 -48 11q-36 20 -45 70q-2 10 -3 30t-1 49v127h83q28 -2 45 -12q8 -5 17.5 -14.5t20.5 -23.5q23 -28 26 -29q14 -5 24 7q5 5 5 15q0 7 -22 76l-9 29q-22 72 -38 80q-14 6 -23 -5q-5 -5 -5 -12q0 -3 1.5 -11t1.5 -12
q0 -10 -4 -15q-11 -18 -80 -18h-43v229q14 1 25.5 1.5t21.5 0.5q100 0 142 -52q12 -15 17 -24t8 -14.5t6.5 -9t12.5 -6.5q14 -2 21 10q3 4 3 13q0 19 -15 61l-36 99q-10 31 -32 23q-11 -5 -12 -18q0 -19 -6.5 -24.5t-28.5 -5.5z" />
    <glyph glyph-name="quoteleft" unicode="&#x2018;" horiz-adv-x="175" 
d="M152 691q-56 -23 -81 -91q-7 -18 -7 -41q0 -25 11 -42q16 -22 48 -22q30 0 44 27q12 23 2 46q-5 12 -24 26q-9 4 -16.5 8.5t-9.5 13.5q-4 19 37 67q5 4 4 7q-1 4 -8 1z" />
    <glyph glyph-name="quoteright" unicode="&#x2019;" horiz-adv-x="175" 
d="M84 495q54 19 81 90q8 21 8 41q0 25 -12 42q-17 23 -48 23q-32 0 -45 -27q-12 -23 -2 -47q4 -10 25 -25q4 -2 8 -4.5t9 -4.5q7 -5 8 -14q4 -22 -37 -66q-5 -5 -4 -8t9 0z" />
    <glyph glyph-name="quotedblleft" unicode="&#x201c;" horiz-adv-x="376" 
d="M162 691q-56 -23 -81 -91q-7 -18 -7 -41q0 -25 11 -42q16 -22 48 -22q30 0 44 27q12 23 2 46q-5 12 -24 26q-9 4 -16.5 8.5t-9.5 13.5q-4 19 37 67q5 4 4 7q-1 4 -8 1zM344 691q-56 -23 -81 -91q-8 -22 -8 -43q0 -24 11 -40q15 -22 49 -22q30 0 44 27q12 23 2 46
q-4 11 -25 26q-8 4 -15.5 8.5t-9.5 13.5q-4 21 37 67q5 4 4 7q-1 4 -8 1z" />
    <glyph glyph-name="quotedblright" unicode="&#x201d;" horiz-adv-x="376" 
d="M276 495q55 21 81 90q8 24 8 43q0 23 -11 40q-17 23 -49 23q-31 0 -44 -27q-12 -23 -2 -47q4 -9 9 -13q4 -4 16 -12q8 -4 15.5 -8.5t9.5 -14.5q4 -22 -37 -66q-6 -4 -4 -8q2 -3 8 0zM95 495q55 20 80 90q8 24 8 43q0 23 -11 40q-17 23 -48 23q-32 0 -45 -27
q-12 -23 -2 -47q4 -9 9 -13q4 -4 16 -12q8 -4 15.5 -8.5t9.5 -14.5q4 -22 -37 -66q-5 -5 -4 -8t9 0z" />
    <glyph glyph-name="bullet" unicode="&#x2022;" horiz-adv-x="328" 
d="M270 315q0 30 -10 55t-28 42.5t-42.5 27.5t-54.5 10t-54.5 -10t-42.5 -27.5t-28 -42.5t-10 -55t10 -55t28 -42.5t42.5 -27.5t54.5 -10t54.5 10t42.5 27.5t28 42.5t10 55z" />
    <glyph glyph-name="endash" unicode="&#x2013;" horiz-adv-x="272" 
d="M226 186h-141q-27 0 -27 23q0 22 27 22h141q28 0 28 -22q0 -23 -28 -23z" />
    <glyph glyph-name="emdash" unicode="&#x2014;" horiz-adv-x="354" 
d="M316 186h-231q-28 0 -28 23q0 22 28 22h231q28 0 28 -22q0 -23 -28 -23z" />
    <glyph glyph-name="tilde" unicode="&#x2dc;" horiz-adv-x="520" 
d="M399 505q3 3 3 8q0 6 -5 6q-6 0 -11 -4q-16 -10 -34 -10q-11 0 -28 5l-14 5q-26 10 -52 10q-50 0 -83 -38q-4 -4 -1 -9q2 -5 7 -1q24 12 42 12q9 0 31 -5q32 -9 44 -11.5t22 -2.5q39 0 79 35z" />
    <glyph glyph-name="scaron" unicode="&#x161;" horiz-adv-x="365" 
d="M273 291q16 -4 29 19q13 25 25 48.5t23 45.5q5 16 -2 24t-20 6q-11 -5 -14 -11q-13 -19 -39 -8l-20 8q-30 11 -60 11q-58 0 -95 -33q-47 -41 -47 -95q0 -5 0.5 -10t1.5 -10q9 -46 41 -69q15 -10 80 -33l17 -6q51 -18 61 -25q21 -13 22 -43q1 -46 -42 -67q-20 -9 -38 -9
q-42 0 -73 36q7 14 10 22.5t4 12.5q3 13 -2 24.5t-14.5 18.5t-23 10t-26.5 0q-32 -8 -42 -36q-5 -15 -5 -25q0 -21 14 -44q18 -29 63 -48q17 -7 33.5 -10t30.5 -4q108 -5 163 64q30 37 30 82q0 17 -4 29q-14 46 -51 69q-21 13 -77 30l-20 6q-39 12 -50 18q-22 10 -30 32
q-8 20 6 40q19 31 54 33q38 2 59 -22q7 -9 15 -36q1 -3 1 -34q0 -7 12 -11zM168 531q-8 2 -12 2q-13 0 -13 -8q0 -6 12 -15q40 -27 64 -40q17 -11 26 -11q11 0 40 20l50 34q11 8 11 14t-9 6q-6 0 -15 -3q-28 -9 -47 -15t-30 -9z" />
    <glyph glyph-name="guilsinglright" unicode="&#x203a;" horiz-adv-x="158" 
d="M55 107q-3 -11 -3 -17q0 -12 8 -12q11 0 22 18l21 39q43 79 43 90t-11 31q-8 14 -16 28.5t-16 28.5l-22 41q-8 14 -17 14q-16 0 -8 -26l39 -121z" />
    <glyph glyph-name="oe" unicode="&#x153;" horiz-adv-x="792" 
d="M470 355q-67 66 -152 80q-14 2 -26.5 3t-24.5 1q-107 0 -167 -76q-51 -65 -51 -152q0 -31 8 -58q34 -121 160 -159q27 -9 58 -9q99 0 187 73q60 -57 118 -68q10 -2 20 -3t21 -1q90 0 149 59q23 23 20 36t-15 14q-4 1 -43 -20q-20 -11 -43 -17q-10 -2 -20 -3.5t-21 -1.5
q-24 0 -43.5 7t-32 18t-18.5 26t-3 31q4 25 46 46q14 5 27 10.5t26 10.5l39 16q55 22 66 30q33 22 33 59q0 35 -18 62q-41 61 -127 65q-97 6 -173 -79zM168 153q-17 48 -17 94q0 100 73 127q16 6 36 6q43 0 80 -31q41 -35 62 -94q14 -42 14 -83q0 -100 -69 -128
q-21 -9 -43 -9q-43 0 -79.5 32t-56.5 86zM572 225q-19 -8 -46 -33q-2 13 -3.5 26.5t-1.5 29.5q0 72 26.5 104t71.5 30q36 -1 61 -37q12 -17 12 -33q0 -10 -4 -18q-10 -24 -44 -40q-14 -5 -27.5 -11t-27.5 -11z" />
    <glyph glyph-name="Ydieresis" unicode="&#x178;" horiz-adv-x="591" 
d="M402 103v202l173 301q10 16 10 31q0 33 -56 33h-79q-32 0 -37 23q-4 23 -18 25q-19 1 -27 -13q-11 -29 -21 -56.5t-18 -53.5q-4 -8 -4 -15q0 -15 28 -15h80q33 0 33 -10q0 -7 -21 -43l-78 -137q-8 20 -16.5 41t-16.5 41q-32 78 -79 139q-61 79 -121 85q-28 3 -55 -35
q-5 -3 -30 -36q-29 -36 -27 -44q1 -22 25 -22q4 0 11.5 2.5t15 5.5t15 5.5t12.5 2.5q10 0 17 -4q52 -25 105 -118q46 -81 62 -156v-179q0 -36 -20 -47q-2 -1 -11.5 -3.5t-26.5 -6.5q-20 -5 -20 -24q0 -17 19 -21q4 -1 36 -1h164q31 0 35 1q19 4 19 21q0 19 -20 24
q-35 8 -38 9q-20 12 -20 48zM251 779q0 -16 10.5 -27.5t26.5 -11.5t27.5 11t11.5 27t-10.5 27t-26.5 11t-27.5 -10.5t-11.5 -26.5zM387 779q0 -16 11 -27.5t27 -11.5q15 0 27 11.5t12 26.5q0 16 -11 27t-27 11t-27.5 -10.5t-11.5 -26.5z" />
    <glyph glyph-name="exclamdown" unicode="&#xa1;" horiz-adv-x="232" 
d="M140 -3q34 0 60 27q19 22 19 59q0 23 -14 87q-11 48 -19.5 104t-15.5 122v16q0 15 -1 41q-1 29 -9 37q-16 14 -32 4q-15 -6 -18 -37l-3 -60q-4 -31 -7 -57t-7 -48q-7 -32 -13 -63t-12 -63q-5 -32 -8 -52t-3 -29q0 -39 23.5 -63.5t59.5 -24.5zM209 617q-1 29 -21.5 48
t-49.5 18q-28 -1 -47.5 -22t-19.5 -50q0 -28 21.5 -47t50.5 -18q28 1 47.5 22t18.5 49z" />
    <glyph glyph-name="cent" unicode="&#xa2;" horiz-adv-x="437" 
d="M232 473v-304q-87 58 -87 190q0 80 62 107q15 7 25 7zM270 528v67q0 28 -18 28q-19 0 -19 -30v-68q-96 -17 -153 -109q-34 -55 -34 -121q0 -51 21 -93q52 -106 160 -119h5v-83q0 -30 19 -30t19 30v82q86 5 136 62q13 15 13.5 20t0.5 8q0 15 -15 15q-7 0 -15 -5
q-17 -10 -28.5 -16.5t-19.5 -8.5q-38 -12 -72 -4v315q12 0 26 -12q21 -18 42 -35.5t43 -15.5q25 0 36 27q9 23 -5 46q-33 50 -142 50z" />
    <glyph glyph-name="sterling" unicode="&#xa3;" horiz-adv-x="442" 
d="M350 526q-29 -30 -24 -53q6 -30 37 -40t53 12q27 26 18 64q-17 63 -92 84q-23 6 -48 6q-70 0 -114 -44q-56 -58 -56 -142q0 -50 19 -119h-39q-32 0 -39 -12q-9 -15 0 -27q11 -11 89 -11q4 -23 6 -35.5t2 -14.5q3 -32 -18 -70q-23 -45 -69 -79q-20 -16 -16 -29
q3 -11 18 -15q6 -1 48 13q34 8 45 8q37 4 91 -8l22 -5q43 -9 62 -9q28 0 47 19q9 11 22 53q7 19 10.5 33l5.5 22q2 9 -3.5 13.5t-13.5 3.5q-10 -2 -28 -17q-18 -16 -26 -19t-18 -3q-9 0 -29.5 4t-32.5 5q-34 2 -78 -14q16 19 27 34t16 28q13 31 12 82h55q24 1 30 2.5
t10 10.5q7 13 0 24q-6 11 -28 12q-7 1 -24 1h-45q-4 19 -7.5 34t-6.5 26q-18 78 -18 100q0 52 31 77q19 16 42 16q25 0 55 -21z" />
    <glyph glyph-name="currency" unicode="&#xa4;" horiz-adv-x="496" 
d="M466 328q0 97 -39 160l39 39l-41 41l-37 -38q-65 54 -151 63q-25 -18 -53.5 -37.5t-60.5 -41.5l-53 53l-40 -40l45 -45l-36 -24q-10 -59 -10 -125q0 -80 25 -136l-25 -25l41 -41l17 17q45 -51 177 -74q44 25 72 41l42 24l26 14l22 -22l39 40l-20 21q21 69 21 136z
M353 302q0 -59 -21 -152q-41 5 -59 10q-138 40 -138 209q0 67 16 128q4 1 11 1h18q87 0 132 -56q41 -53 41 -140z" />
    <glyph glyph-name="yen" unicode="&#xa5;" horiz-adv-x="663" 
d="M644 655q-50 18 -81 18q-95 0 -170 -84q-44 -50 -60 -124q-6 42 -12 61q-19 64 -76 107q-55 43 -122 43q-46 0 -103 -27q12 -48 12 -90q0 -8 -1.5 -17.5t-3.5 -22.5q4 -3 8 -6.5t8 -7.5q42 59 107 59q57 0 89 -57q11 -22 18.5 -49t9.5 -61l-168 -2q1 -3 1 -13
q-1 -5 -1 -10t-1 -10h169v-72h-156q1 -3 1 -16q0 -15 -1 -18h156v-103q0 -5 1 -6q5 -89 -60 -127q5 -8 9 -13.5t6 -9.5q23 4 48.5 6t52.5 2q48 0 92 -9q5 7 8.5 12t5.5 9q-46 34 -58 71q-3 13 -3 67v101h156q-1 3 -1 14q1 5 1 10t1 10h-158v71h168q-1 2 -1 13q0 5 3 22h-169
q6 56 28 91q46 75 123 75q52 0 79 -50q6 3 11.5 5.5t10.5 4.5q-1 5 -1 13v19q0 54 24 101z" />
    <glyph glyph-name="brokenbar" unicode="&#xa6;" horiz-adv-x="500" 
d="M308 324v343h-115v-343h115zM308 -164v317h-115v-317h115z" />
    <glyph glyph-name="section" unicode="&#xa7;" horiz-adv-x="359" 
d="M319 613q6 49 -39 73q-33 18 -87 18q-59 0 -100 -32q-43 -34 -43 -93q0 -78 82 -109q-81 -26 -81 -116q0 -74 59 -107q136 -40 126 -143q-4 -39 -30 -63.5t-64 -24.5q-22 0 -46 10q-15 6 -26 35h14q24 0 28 31q2 17 -8.5 29t-27.5 12q-35 0 -40 -41q-4 -33 20 -58t63 -30
q22 -3 42 -3q85 0 121 55q22 32 22 69q0 21 -7.5 39.5t-20 33.5t-30 25t-37.5 13q84 28 84 121q0 77 -55 105q-119 29 -119 120q0 46 25.5 76.5t67.5 29.5q61 -2 72 -45h-13q-25 0 -28 -31q-4 -40 35 -40q36 0 41 41zM237 353q0 -36 -17 -62q-20 -30 -55 -27q-63 4 -63 81
q0 38 19 66q21 33 56 33q30 0 47 -32q13 -25 13 -59z" />
    <glyph glyph-name="dieresis" unicode="&#xa8;" horiz-adv-x="279" 
d="M63 501q0 -16 10.5 -27.5t26.5 -11.5t27.5 11t11.5 27t-10.5 27t-26.5 11t-27.5 -10.5t-11.5 -26.5zM199 501q0 -16 10.5 -27.5t26.5 -11.5t27.5 11t11.5 27t-10.5 27t-26.5 11t-27.5 -10.5t-11.5 -26.5z" />
    <glyph glyph-name="copyright" unicode="&#xa9;" horiz-adv-x="776" 
d="M733 333q0 142 -100 243q-99 103 -240 103q-90 0 -161 -37q-44 -23 -79 -55.5t-59.5 -72t-37.5 -86t-13 -95.5q0 -145 100 -244t246 -99q143 0 243 100q101 101 101 243zM677 333q0 -121 -84 -208q-84 -86 -205 -86t-205 86q-84 87 -84 208q0 119 83 207q84 88 203 88
q120 0 206 -86t86 -209zM531 213l-10 10q-9 -5 -12 -8q-18 -12 -69 -12q-163 0 -163 142q0 18 3 42.5t8 56.5q43 21 106 21q51 0 119 -27q-1 32 -1.5 50t-0.5 23v13q-54 18 -113 18q-45 0 -87 -14q-31 -45 -57 -75t-46 -47v-9q-2 -12 -3 -26.5t-1 -31.5q0 -69 21 -109
q28 -59 84 -81q43 -17 115 -17l45 2q13 17 28 36.5t34 42.5z" />
    <glyph glyph-name="guillemotleft" unicode="&#xab;" horiz-adv-x="237" 
d="M218 338q4 9 4 18q0 12 -8 12q-12 0 -22 -19l-22 -39q-44 -77 -44 -89t11 -32l33 -57l23 -41q8 -14 17 -14q15 0 7 26l-39 121zM142 338q4 9 4 17q0 13 -9 13q-12 0 -22 -19l-21 -39q-42 -80 -42 -89q0 -13 10 -32q8 -14 16 -28.5t16 -28.5l22 -41q7 -13 17 -13
q15 0 8 25l-39 121z" />
    <glyph glyph-name="logicalnot" unicode="&#xac;" horiz-adv-x="455" 
d="M430 35l-315 544q-8 15 -11 16q-3 2 -11 -3l-37 -22q-10 -6 1 -26l315 -544q8 -13 12 -14q3 -1 10 3l37 20q11 6 -1 26z" />
    <glyph glyph-name="registered" unicode="&#xae;" horiz-adv-x="776" 
d="M733 333q0 81 -38 157q-44 87 -125 137q-82 52 -177 52q-90 0 -161 -37q-44 -23 -79 -55.5t-59.5 -72t-37.5 -86t-13 -95.5q0 -144 100 -244q100 -99 245 -99q144 0 245 99q100 100 100 244zM677 333q0 -123 -84 -208q-83 -86 -205 -86q-121 0 -205 86q-84 85 -84 208
q0 119 83 207q84 88 203 88q120 0 206 -86t86 -209zM573 194l-10 9q-11 -6 -16 -6q-27 0 -43 18q-8 9 -21 48q-20 63 -42 88q22 9 39 16t30 12q1 13 1.5 21t0.5 11q0 95 -60 122q-14 7 -32 10t-41 4l-53 -61v18q1 14 1 25q0 12 1 22q-22 -5 -43 -9t-41 -7v-7q5 -34 6.5 -78
t0.5 -99q-1 -70 0 -112q1 -61 -3 -106q16 1 26 1q11 0 17 1q8 -1 18 -1q11 0 24 -1l-2 8q-6 40 -6 128l1 196q18 7 43 7q39 0 53.5 -17t14.5 -60q0 -21 -7 -35q-7 4 -11.5 6.5t-7.5 4.5q-16 -11 -35.5 -22.5t-43.5 -24.5q37 -14 54 -32q12 -14 27 -57q8 -25 13.5 -40.5
t9.5 -21.5q14 -23 40 -33q10 -4 20.5 -6.5t21.5 -4.5q25 29 38.5 45.5t16.5 19.5z" />
    <glyph glyph-name="acute" unicode="&#xb4;" horiz-adv-x="201" 
d="M60 490q-9 -11 -9 -18q0 -11 12 -11q6 0 14 5l89 67q22 16 18 30q-6 20 -21 22q-14 2 -34 -18q-22 -23 -39 -42.5t-30 -34.5z" />
    <glyph glyph-name="paragraph" unicode="&#xb6;" horiz-adv-x="592" 
d="M506 631v14h-337q-147 0 -156 -126q-6 -79 45 -122q46 -40 127 -40h125v-415h39v689h71v-689h40v689h46zM310 373h-38q-61 0 -90 35q-25 32 -26 95q-2 55 30 91.5t86 36.5h38v-258z" />
    <glyph glyph-name="periodcentered" unicode="&#xb7;" horiz-adv-x="175" 
d="M59 295q1 -22 16.5 -36.5t36.5 -13.5t36 16.5t14 36.5t-17 35.5t-37 13.5t-35.5 -16t-13.5 -36z" />
    <glyph glyph-name="periodcentered" unicode="&#x2219;" horiz-adv-x="175" 
d="M59 295q1 -22 16.5 -36.5t36.5 -13.5t36 16.5t14 36.5t-17 35.5t-37 13.5t-35.5 -16t-13.5 -36z" />
    <glyph glyph-name="cedilla" unicode="&#xb8;" horiz-adv-x="353" 
d="M175 4h-29l-11 -45q-7 -28 1 -33q9 0 25 16q12 7 24 9q24 3 39 -16q22 -27 6 -75q-11 -33 -37 -37q-12 -3 -24 3q-16 3 -16 20l6 6t7 5q4 4 3 15q-2 13 -15 21q-12 6 -23 -2q-16 -12 -16 -32q0 -26 25 -42q22 -13 50 -13q25 0 40 7q46 21 54 74q8 47 -26 77
q-20 18 -46 18q-19 0 -47 -9z" />
    <glyph glyph-name="guillemotright" unicode="&#xbb;" horiz-adv-x="237" 
d="M78 349q-10 19 -22 19q-8 0 -8 -12q0 -9 4 -18l40 -114l-39 -121q-8 -26 7 -26q9 0 17 14l23 41l33 57q11 20 11 32t-44 89zM155 349q-10 19 -22 19q-9 0 -9 -13q0 -8 4 -17l40 -114l-39 -121q-7 -25 8 -25q10 0 17 13l22 41q8 14 16 28.5t16 28.5q10 19 10 32
q1 10 -42 89z" />
    <glyph glyph-name="questiondown" unicode="&#xbf;" horiz-adv-x="445" 
d="M326 97q-27 -46 -75 -46q-12 0 -24 3q-64 16 -64 91q0 57 53 119l37 43q21 25 33.5 40t16.5 20q24 34 24 64q0 28 -19.5 50t-47.5 22q-22 0 -36 -15.5t-14 -37.5q0 -6 1.5 -15.5t3 -19.5t3 -19.5t1.5 -15.5q0 -26 -18 -48q-7 -8 -20.5 -19t-33.5 -25l-13 -9
q-89 -62 -85 -140q3 -79 74 -120q40 -22 101 -22q70 0 120 26q78 43 84 110q4 46 -32 73q-29 23 -63 10q-43 -16 -43 -57q0 -28 36 -62zM328 617q-1 29 -21.5 48t-49.5 18q-28 -1 -47.5 -22t-18.5 -50q1 -28 21.5 -47t49.5 -18t48 21.5t18 49.5z" />
    <glyph glyph-name="Agrave" unicode="&#xc0;" horiz-adv-x="673" 
d="M261 250l76 204l76 -204h-152zM99 54q-11 -8 -37 -12q-20 -2 -20 -20q0 -24 59 -22h101h40q17 2 23 11q4 10 0 22q-5 9 -12 10q-2 1 -6 1q-3 0 -9 1q-16 0 -27 11t-2 40l28 89h198l10 -25q24 -60 24 -78q0 -27 -34 -37q-26 -8 -27 -10q-11 -11 -3 -23q7 -12 45 -12h135
q86 2 92 6q7 6 4 19q-2 9 -8 14q-2 1 -5.5 2.5t-8.5 3.5q-42 16 -59 39q-2 4 -8 18t-15 39l-172 480q-16 45 -28.5 64.5t-28.5 19.5q-12 0 -32 -14q-29 -20 -33 -21q-13 -5 -25.5 -11t-25.5 -11q-29 -12 -30 -22q-4 -11 3.5 -20t20.5 -8l15 1.5l5 0.5q23 -5 33 -16
q7 -7 23 -39l-150 -400q-29 -75 -53 -91zM322 745q8 -5 14 -5q12 0 12 11q0 7 -9 18q-26 31 -43.5 50t-25.5 27q-20 20 -34 18q-15 -1 -21 -22q-5 -14 18 -30z" />
    <glyph glyph-name="Aacute" unicode="&#xc1;" horiz-adv-x="673" 
d="M258 250l77 204l75 -204h-152zM96 54q-11 -8 -37 -12q-20 -2 -20 -20q0 -24 59 -22h101h40q18 2 23 11q4 10 0 22q-5 9 -12 10l-15 2q-16 0 -27 12t-2 39l29 89h198l10 -25q23 -58 23 -78q0 -27 -33 -37q-26 -8 -28 -10q-10 -10 -2 -23q7 -12 44 -12h136q86 2 92 6
q6 6 3 19q-2 9 -8 14q-2 1 -5.5 2.5t-8.5 3.5q-43 16 -58 39q-2 4 -8 18t-15 39l-173 480q-17 49 -30 67q-12 17 -26 17q-13 0 -33 -14q-29 -20 -33 -21q-12 -6 -26 -11.5t-25.5 -11t-20 -11t-9.5 -10.5q-4 -12 4 -20.5t21 -7.5l15 1.5l5 0.5q22 -3 32 -16q7 -7 23 -39
l-150 -400q-29 -75 -53 -91zM238 770q-9 -11 -9 -18q0 -11 12 -11q6 0 14 5l90 67q21 17 17 30q-6 20 -21 22q-14 2 -34 -18q-22 -23 -39 -42.5t-30 -34.5z" />
    <glyph glyph-name="Acircumflex" unicode="&#xc2;" horiz-adv-x="673" 
d="M258 250l77 204l75 -204h-152zM96 54q-11 -8 -37 -12q-20 -2 -20 -20q0 -24 59 -22h101h40q18 2 23 11q4 10 0 22q-5 9 -12 10l-15 2q-16 0 -27 12t-2 39l29 89h198l10 -25q23 -58 23 -78q0 -27 -33 -37q-26 -8 -28 -10q-10 -10 -2 -23q7 -12 44 -12h136q86 2 92 6
q6 6 3 19q-2 9 -8 14q-2 1 -5.5 2.5t-8.5 3.5q-43 16 -58 39q-2 4 -8 18t-15 39l-173 480q-17 49 -30 67q-12 17 -26 17q-13 0 -33 -14q-29 -20 -33 -21q-12 -6 -26 -11.5t-25.5 -11t-20 -11t-9.5 -10.5q-4 -12 4 -20.5t21 -7.5l15 1.5l5 0.5q22 -3 32 -16q7 -7 23 -39
l-150 -400q-29 -75 -53 -91zM405 743q25 -7 25 5q0 7 -13 16q-21 14 -36.5 23.5t-26.5 16.5q-17 11 -27 11q-11 0 -40 -20l-50 -34q-11 -8 -11 -14t10 -6q6 0 15 3q28 9 47 15t30 9z" />
    <glyph glyph-name="Atilde" unicode="&#xc3;" horiz-adv-x="673" 
d="M258 250l77 204l75 -204h-152zM96 54q-11 -8 -37 -12q-20 -2 -20 -20q0 -24 59 -22h101h40q18 2 23 11q4 10 0 22q-5 9 -12 10l-15 2q-16 0 -27 12t-2 39l29 89h198l10 -25q23 -58 23 -78q0 -27 -33 -37q-26 -8 -28 -10q-10 -10 -2 -23q7 -12 44 -12h136q86 2 92 6
q6 6 3 19q-2 9 -8 14q-2 1 -5.5 2.5t-8.5 3.5q-43 16 -58 39q-2 4 -8 18t-15 39l-173 480q-17 49 -30 67q-12 17 -26 17q-13 0 -33 -14q-29 -20 -33 -21q-12 -6 -26 -11.5t-25.5 -11t-20 -11t-9.5 -10.5q-4 -12 4 -20.5t21 -7.5l15 1.5l5 0.5q22 -3 32 -16q7 -7 23 -39
l-150 -400q-29 -75 -53 -91zM456 777q4 4 4 8q0 5 -5 5q2 0 -23 -9q-20 -8 -51 1l-14 4q-30 8 -53 8q-51 0 -81 -35q-5 -5 -2 -9q2 -5 7 -1q24 12 42 12q9 0 31 -5q32 -9 44 -11.5t22 -2.5q41 0 79 35z" />
    <glyph glyph-name="Adieresis" unicode="&#xc4;" horiz-adv-x="673" 
d="M257 250l78 204l75 -204h-153zM96 54q-11 -8 -37 -12q-20 -2 -20 -20q0 -24 59 -22h101h40q18 2 23 11q4 10 0 22q-5 9 -12 10l-15 2q-16 0 -27 12t-2 39l29 89h198l10 -25q23 -58 23 -78q0 -27 -33 -37q-26 -8 -28 -10q-10 -10 -2 -23q7 -12 44 -12h136q86 2 92 6
q6 6 3 19q-2 9 -8 14q-2 1 -5.5 2.5t-8.5 3.5q-43 16 -58 39q-2 4 -8 18t-15 39l-173 480q-17 49 -30 67q-12 17 -26 17q-13 0 -33 -14q-29 -20 -33 -21q-12 -6 -26 -11.5t-25.5 -11t-20 -11t-9.5 -10.5q-4 -12 4 -20.5t21 -7.5l15 1.5l5 0.5q22 -3 32 -16q7 -7 23 -39
l-150 -400q-29 -75 -53 -91zM230 780q0 -16 10.5 -27.5t26.5 -11.5t27.5 11t11.5 27t-10.5 27t-26.5 11t-27.5 -10.5t-11.5 -26.5zM366 780q0 -16 11 -27.5t27 -11.5t27.5 11t11.5 27t-11 27t-27 11q-15 0 -27 -11t-12 -26z" />
    <glyph glyph-name="Aring" unicode="&#xc5;" horiz-adv-x="673" 
d="M257 250l78 204l75 -204h-153zM96 54q-11 -8 -37 -12q-20 -2 -20 -20q0 -24 59 -22h101h40q18 2 23 11q4 10 0 22q-5 9 -12 10l-15 2q-16 0 -27 12t-2 39l29 89h198l10 -25q23 -58 23 -78q0 -27 -33 -37q-26 -8 -28 -10q-10 -10 -2 -23q7 -12 44 -12h136q86 2 92 6
q6 6 3 19q-2 9 -8 14q-2 1 -5.5 2.5t-8.5 3.5q-43 16 -58 39q-2 4 -8 18t-15 39l-173 480q-17 49 -30 67q-12 17 -26 17q-13 0 -33 -14q-29 -20 -33 -21q-12 -6 -26 -11.5t-25.5 -11t-20 -11t-9.5 -10.5q-4 -12 4 -20.5t21 -7.5l15 1.5l5 0.5q22 -3 32 -16q7 -7 23 -39
l-150 -400q-29 -75 -53 -91zM285 794q0 -22 16 -37.5t38 -15.5t38 16t16 39q0 21 -17 36.5t-39 15.5t-37 -16t-15 -38zM338 762q-33 0 -33 33q0 32 33 32t33 -32q0 -33 -33 -33z" />
    <glyph glyph-name="AE" unicode="&#xc6;" horiz-adv-x="823" 
d="M277 247l149 300v-300h-149zM235 166l10 19h177v-82q0 -36 -20 -47q-2 -1 -11.5 -3.5t-26.5 -6.5q-20 -5 -20 -24q0 -17 19 -21q4 -1 35 -1h252q38 0 58.5 -0.5t25.5 -1.5q15 -5 16 -31q2 -18 23 -14q14 3 25 32q2 4 6 18t11 38l12 43q16 54 16 66q0 10 -8.5 17t-18.5 3
q-25 -25 -39 -47q-23 -30 -48 -48q-44 -30 -93 -30q-26 0 -48 11q-35 18 -45 70q-4 20 -4 79v127h58q21 0 26 -1q30 -2 45 -11q17 -11 37 -38q23 -28 27 -29q13 -6 23 7q5 5 5 15q0 7 -22 76l-9 29q-22 72 -37 80q-12 6 -24 -5q-3 -3 -3 -10q0 -6 0.5 -13.5t0.5 -14.5
t-3 -12q-12 -18 -80 -18h-44v229q14 1 25.5 1.5t21.5 0.5q99 0 142 -52q12 -15 17 -24t8 -14.5t7 -9t13 -6.5q24 -5 24 22q0 18 -15 62l-37 99q-11 31 -31 23q-11 -5 -12 -28q-2 -20 -36 -20h-290q-78 0 -84 -6q-7 -10 -6 -19q1 -7 7 -13q1 -1 13 -6q15 -4 29.5 -8.5
t23.5 -22.5q2 -6 2 -12q0 -19 -34 -86l-179 -356q-16 -32 -30 -52.5t-25 -30.5q-7 -6 -36 -14q-18 -5 -18 -22q0 -24 59 -22h101h40q18 2 23 11q4 10 0 22q-6 10 -24 12q-17 2 -25 12t-8 25q0 25 30 84z" />
    <glyph glyph-name="Ccedilla" unicode="&#xc7;" horiz-adv-x="596" 
d="M321 -15q54 -4 88 2q49 9 99 32q56 28 76 66q5 14 0 23q-9 10 -21 10q-2 0 -44 -21q-21 -11 -42 -15q-23 -5 -44.5 -7t-40.5 0q-117 13 -182 142q-38 76 -38 166q0 89 39 157q52 90 138 95q90 4 150 -80q11 -16 18.5 -27t9.5 -18q23 -36 31 -39q14 -2 22 8q4 4 4 16
q0 15 -19 81l-25 87q-13 46 -26 51q-8 3 -14 2.5t-10 -6.5t-4.5 -19.5t3.5 -35.5q-85 38 -144 38q-77 0 -154 -58q-72 -53 -110 -147q-31 -77 -31 -165q0 -37 6 -68q19 -108 70 -171q55 -67 166 -99l-5 -19q0 -3 -4 -18q-6 -28 2 -33q8 0 24 16q12 8 25 9q23 3 38 -16
q9 -12 11 -38q0 -20 -5 -37q-10 -29 -37 -37q-12 -3 -24 3q-16 3 -16 20l6 6t7 5q4 4 3 15q-2 13 -15 21q-10 6 -23 -2q-15 -11 -15 -32q0 -26 25 -42q22 -14 49 -14q22 0 40 8q46 21 54 74q8 47 -26 77q-20 18 -46 18q-18 0 -46 -9z" />
    <glyph glyph-name="Egrave" unicode="&#xc8;" horiz-adv-x="527" 
d="M103 0h252q37 0 58 -0.5t26 -1.5q15 -5 16 -31q2 -18 22 -14q15 3 25 31q4 14 8 28.5t9 28.5l13 43q16 51 16 65q0 11 -8.5 18t-18.5 3q-25 -25 -39 -47q-23 -32 -48 -48q-44 -30 -93 -30q-26 0 -48 11q-36 20 -45 70q-2 10 -3 30t-1 49v127h83q28 -2 45 -12
q8 -5 17.5 -14.5t20.5 -23.5q23 -28 26 -29q14 -5 24 7q5 5 5 15q0 7 -22 76l-9 29q-22 72 -38 80q-14 6 -23 -5q-5 -5 -5 -12q0 -3 1.5 -11t1.5 -12q0 -10 -4 -15q-11 -18 -80 -18h-43v229q14 1 25.5 1.5t21.5 0.5q99 0 142 -52q12 -15 17 -24t8 -14.5t6.5 -9t12.5 -6.5
q14 -2 21 10q3 4 3 13q0 19 -15 61l-36 99q-10 31 -32 23q-11 -5 -12 -18q0 -19 -6.5 -24.5t-28.5 -5.5h-268q-32 0 -36 -1q-19 -4 -19 -21q0 -19 20 -24q17 -4 26.5 -6.5t11.5 -3.5q20 -11 20 -47v-464q0 -36 -20 -47q-2 -1 -11.5 -3.5t-26.5 -6.5q-20 -5 -20 -24
q0 -17 19 -21q4 -1 36 -1zM293 746q8 -5 14 -5q12 0 12 11q0 7 -9 18q-26 31 -43.5 50t-25.5 27q-20 20 -34 18q-15 -2 -21 -22q-5 -14 18 -30z" />
    <glyph glyph-name="Eacute" unicode="&#xc9;" horiz-adv-x="527" 
d="M103 0h252q37 0 58 -0.5t26 -1.5q15 -5 16 -31q2 -18 22 -14q15 3 25 31q4 14 8 28.5t9 28.5l13 43q16 51 16 65q0 11 -8.5 18t-18.5 3q-25 -25 -39 -47q-23 -32 -48 -48q-44 -30 -93 -30q-26 0 -48 11q-36 20 -45 70q-2 10 -3 30t-1 49v127h83q28 -2 45 -12
q8 -5 17.5 -14.5t20.5 -23.5q23 -28 26 -29q14 -5 24 7q5 5 5 15q0 7 -22 76l-9 29q-22 72 -38 80q-14 6 -23 -5q-5 -5 -5 -12q0 -3 1.5 -11t1.5 -12q0 -10 -4 -15q-11 -18 -80 -18h-43v229q14 1 25.5 1.5t21.5 0.5q99 0 142 -52q12 -15 17 -24t8 -14.5t6.5 -9t12.5 -6.5
q14 -2 21 10q3 4 3 13q0 19 -15 61l-36 99q-10 31 -32 23q-11 -5 -12 -18q0 -19 -6.5 -24.5t-28.5 -5.5h-268q-32 0 -36 -1q-19 -4 -19 -21q0 -19 20 -24q17 -4 26.5 -6.5t11.5 -3.5q20 -11 20 -47v-464q0 -36 -20 -47q-2 -1 -11.5 -3.5t-26.5 -6.5q-20 -5 -20 -24
q0 -17 19 -21q4 -1 36 -1zM214 768q-9 -11 -9 -18q0 -10 12 -10q6 0 14 5l89 66q22 16 17 30q-5 21 -21 22q-14 1 -33 -18q-22 -23 -39 -42.5t-30 -34.5z" />
    <glyph glyph-name="Ecircumflex" unicode="&#xca;" horiz-adv-x="527" 
d="M103 0h252q37 0 58 -0.5t26 -1.5q15 -5 16 -31q2 -18 22 -14q15 3 25 31q4 14 8 28.5t9 28.5l13 43q16 51 16 65q0 11 -8.5 18t-18.5 3q-25 -25 -39 -47q-23 -32 -48 -48q-44 -30 -93 -30q-26 0 -48 11q-36 20 -45 70q-2 10 -3 30t-1 49v127h83q28 -2 45 -12
q8 -5 17.5 -14.5t20.5 -23.5q23 -28 26 -29q14 -5 24 7q5 5 5 15q0 7 -22 76l-9 29q-22 72 -38 80q-14 6 -23 -5q-5 -5 -5 -12q0 -3 1.5 -11t1.5 -12q0 -10 -4 -15q-11 -18 -80 -18h-43v229q14 1 25.5 1.5t21.5 0.5q99 0 142 -52q12 -15 17 -24t8 -14.5t6.5 -9t12.5 -6.5
q14 -2 21 10q3 4 3 13q0 19 -15 61l-36 99q-10 31 -32 23q-11 -5 -12 -18q0 -19 -6.5 -24.5t-28.5 -5.5h-268q-32 0 -36 -1q-19 -4 -19 -21q0 -19 20 -24q17 -4 26.5 -6.5t11.5 -3.5q20 -11 20 -47v-464q0 -36 -20 -47q-2 -1 -11.5 -3.5t-26.5 -6.5q-20 -5 -20 -24
q0 -17 19 -21q4 -1 36 -1zM330 743q8 -2 12 -2q13 0 13 8q0 6 -12 15q-40 27 -64 40q-16 10 -26 10q-12 0 -39 -18q-14 -9 -26.5 -18t-24.5 -17t-12 -14t10 -6q6 0 15 3q55 18 78 24z" />
    <glyph glyph-name="Edieresis" unicode="&#xcb;" horiz-adv-x="527" 
d="M103 0h252q37 0 58 -0.5t26 -1.5q15 -5 16 -31q2 -18 22 -14q15 3 25 31q4 14 8 28.5t9 28.5l13 43q16 51 16 65q0 11 -8.5 18t-18.5 3q-25 -25 -39 -47q-23 -32 -48 -48q-44 -30 -93 -30q-26 0 -48 11q-36 20 -45 70q-2 10 -3 30t-1 49v127h83q28 -2 45 -12
q8 -5 17.5 -14.5t20.5 -23.5q23 -28 26 -29q14 -5 24 7q5 5 5 15q0 7 -22 76l-9 29q-22 72 -38 80q-14 6 -23 -5q-5 -5 -5 -12q0 -3 1.5 -11t1.5 -12q0 -10 -4 -15q-11 -18 -80 -18h-43v229q14 1 25.5 1.5t21.5 0.5q99 0 142 -52q12 -15 17 -24t8 -14.5t6.5 -9t12.5 -6.5
q14 -2 21 10q3 4 3 13q0 19 -15 61l-36 99q-10 31 -32 23q-11 -5 -12 -18q0 -19 -6.5 -24.5t-28.5 -5.5h-268q-32 0 -36 -1q-19 -4 -19 -21q0 -19 20 -24q17 -4 26.5 -6.5t11.5 -3.5q20 -11 20 -47v-464q0 -36 -20 -47q-2 -1 -11.5 -3.5t-26.5 -6.5q-20 -5 -20 -24
q0 -17 19 -21q4 -1 36 -1zM156 780q0 -16 11 -27.5t27 -11.5t27.5 11t11.5 27t-11 27t-27 11q-15 0 -27 -11t-12 -26zM293 780q0 -16 10.5 -27.5t26.5 -11.5t27.5 11t11.5 27t-10.5 27t-26.5 11t-27.5 -10.5t-11.5 -26.5z" />
    <glyph glyph-name="Igrave" unicode="&#xcc;" horiz-adv-x="338" 
d="M126 567v-464q0 -36 -20 -47q-2 -1 -11.5 -3.5t-26.5 -6.5q-20 -5 -20 -24q0 -17 19 -21q4 -1 36 -1h164q31 0 35 1q19 4 19 21q0 19 -20 24q-35 8 -38 9q-20 12 -20 48v464q0 36 20 47q2 1 11.5 3.5t26.5 6.5q20 5 20 24q0 17 -19 21q-4 1 -35 1h-164q-32 0 -36 -1
q-19 -4 -19 -21q0 -19 20 -24q17 -4 26.5 -6.5t11.5 -3.5q20 -11 20 -47zM224 746q8 -5 14 -5q12 0 12 11q0 7 -9 18q-26 31 -43.5 50t-25.5 27q-20 20 -34 18q-15 -2 -21 -22q-5 -14 18 -30z" />
    <glyph glyph-name="Iacute" unicode="&#xcd;" horiz-adv-x="338" 
d="M126 567v-464q0 -36 -20 -47q-2 -1 -11.5 -3.5t-26.5 -6.5q-20 -5 -20 -24q0 -17 19 -21q4 -1 36 -1h164q31 0 35 1q19 4 19 21q0 19 -20 24q-35 8 -38 9q-20 12 -20 48v464q0 36 20 47q2 1 11.5 3.5t26.5 6.5q20 5 20 24q0 17 -19 21q-4 1 -35 1h-164q-32 0 -36 -1
q-19 -4 -19 -21q0 -19 20 -24q17 -4 26.5 -6.5t11.5 -3.5q20 -11 20 -47zM148 769q-9 -11 -9 -18q0 -11 12 -11q6 0 14 5l90 67q21 17 17 30q-6 20 -21 22q-14 2 -34 -18q-22 -23 -39 -42.5t-30 -34.5z" />
    <glyph glyph-name="Icircumflex" unicode="&#xce;" horiz-adv-x="338" 
d="M126 567v-464q0 -36 -20 -47q-2 -1 -11.5 -3.5t-26.5 -6.5q-20 -5 -20 -24q0 -17 19 -21q4 -1 36 -1h164q31 0 35 1q19 4 19 21q0 19 -20 24q-35 8 -38 9q-20 12 -20 48v464q0 36 20 47q2 1 11.5 3.5t26.5 6.5q20 5 20 24q0 17 -19 21q-4 1 -35 1h-164q-32 0 -36 -1
q-19 -4 -19 -21q0 -19 20 -24q17 -4 26.5 -6.5t11.5 -3.5q20 -11 20 -47zM257 743q8 -2 12 -2q13 0 13 8q0 6 -12 15q-40 27 -64 40q-17 11 -26 11q-11 0 -39 -19q-14 -9 -26.5 -18t-24.5 -17t-12 -14t10 -6q7 0 16 3q28 9 47 15t30 9z" />
    <glyph glyph-name="Idieresis" unicode="&#xcf;" horiz-adv-x="338" 
d="M126 567v-464q0 -36 -20 -47q-2 -1 -11.5 -3.5t-26.5 -6.5q-20 -5 -20 -24q0 -17 19 -21q4 -1 36 -1h164q31 0 35 1q19 4 19 21q0 19 -20 24q-35 8 -38 9q-20 12 -20 48v464q0 36 20 47q2 1 11.5 3.5t26.5 6.5q20 5 20 24q0 17 -19 21q-4 1 -35 1h-164q-32 0 -36 -1
q-19 -4 -19 -21q0 -19 20 -24q17 -4 26.5 -6.5t11.5 -3.5q20 -11 20 -47zM80 783q0 -16 10.5 -27.5t26.5 -11.5t27.5 11t11.5 27t-10.5 27t-26.5 11t-27.5 -10.5t-11.5 -26.5zM216 783q0 -16 11 -27.5t27 -11.5t27.5 11t11.5 27t-11 27t-27 11q-15 0 -27 -11t-12 -26z" />
    <glyph glyph-name="Ntilde" unicode="&#xd1;" horiz-adv-x="673" 
d="M515 567v-218q-51 85 -104.5 149.5t-113.5 110.5q-104 80 -188 77q-40 -1 -61 -42q-5 -9 -18 -54t-15 -56q-3 -19 18 -19q8 0 12 4l12 14t11 14q18 21 36 21q17 0 40 -18v-447q0 -36 -20 -47q-2 -1 -11.5 -3.5t-27.5 -6.5q-20 -5 -20 -24q0 -17 19 -21q4 -1 36 -1h125
q31 0 35 1q19 4 19 21q0 19 -20 24q-35 8 -38 9q-20 11 -20 48v391q35 -20 76.5 -67t92.5 -120q105 -155 114 -247q2 -20 3 -31t2 -13q4 -16 20 -16h38q20 0 24 13q1 5 1.5 22t0.5 48v484q0 36 20 48q3 1 38 9q20 5 20 24q0 17 -19 21q-4 1 -35 1h-125q-32 0 -36 -1
q-19 -4 -19 -21q0 -19 20 -24q17 -4 26.5 -6.5t11.5 -3.5q20 -11 20 -47zM474 776q5 3 3 8q0 5 -5 5q-3 0 -16 -6.5t-27 -6.5q-13 0 -31 5l-13 4q-29 9 -53 9q-51 0 -82 -36q-4 -4 -2 -9t7 -1q25 12 43 12q9 0 31 -5q32 -9 44 -11.5t22 -2.5q41 0 79 35z" />
    <glyph glyph-name="Ograve" unicode="&#xd2;" horiz-adv-x="773" 
d="M288 676q-114 -38 -175 -123q-62 -86 -62 -194q0 -74 28 -146q40 -106 139 -170q94 -59 204 -59q63 0 121 20q103 37 164 131q59 92 59 201q0 66 -23 129q-39 106 -134 168t-205 62q-62 0 -116 -19zM197 273q-18 61 -18 123q0 84 35 146q39 66 112 87q30 8 57 8
q82 0 147 -69q57 -60 87 -155q22 -69 22 -141q0 -83 -31 -138q-34 -63 -105 -83q-35 -9 -65 -9q-87 0 -152 68q-59 61 -89 163zM486 746q8 -5 14 -5q13 0 13 11q0 7 -9 18q-26 31 -43.5 50t-25.5 27q-20 20 -34 18t-21 -22q-4 -13 17 -30z" />
    <glyph glyph-name="Oacute" unicode="&#xd3;" horiz-adv-x="773" 
d="M288 676q-114 -38 -175 -123q-62 -86 -62 -194q0 -74 28 -146q40 -106 139 -170q94 -59 204 -59q63 0 121 20q103 37 164 131q59 92 59 201q0 66 -23 129q-39 106 -134 168t-205 62q-62 0 -116 -19zM197 273q-18 61 -18 123q0 84 35 146q39 66 112 87q30 8 57 8
q82 0 147 -69q57 -60 87 -155q22 -69 22 -141q0 -83 -31 -138q-34 -63 -105 -83q-35 -9 -65 -9q-87 0 -152 68q-59 61 -89 163zM267 770q-9 -11 -9 -18q0 -11 12 -11q7 0 15 5l89 67q21 17 17 30q-7 20 -21 22t-34 -18q-22 -23 -39 -42.5t-30 -34.5z" />
    <glyph glyph-name="Ocircumflex" unicode="&#xd4;" horiz-adv-x="773" 
d="M288 676q-114 -38 -175 -123q-62 -86 -62 -194q0 -74 28 -146q40 -106 139 -170q94 -59 204 -59q63 0 121 20q103 37 164 131q59 92 59 201q0 66 -23 129q-39 106 -134 168t-205 62q-62 0 -116 -19zM197 273q-18 61 -18 123q0 84 35 146q39 66 112 87q30 8 57 8
q82 0 147 -69q57 -60 87 -155q22 -69 22 -141q0 -83 -31 -138q-34 -63 -105 -83q-35 -9 -65 -9q-87 0 -152 68q-59 61 -89 163zM502 744q25 -7 25 5q0 7 -12 16q-40 27 -64 40q-16 10 -25 10q-10 0 -41 -20q-13 -8 -25.5 -16.5t-24.5 -16.5t-12 -14t10 -6q6 0 15 3
q28 9 47 15t30 9z" />
    <glyph glyph-name="Otilde" unicode="&#xd5;" horiz-adv-x="773" 
d="M288 676q-114 -38 -175 -123q-62 -86 -62 -194q0 -74 28 -146q40 -106 139 -170q94 -59 204 -59q63 0 121 20q103 37 164 131q59 92 59 201q0 66 -23 129q-39 106 -134 168t-205 62q-62 0 -116 -19zM197 273q-18 61 -18 123q0 84 35 146q39 66 112 87q30 8 57 8
q82 0 147 -69q57 -60 87 -155q22 -69 22 -141q0 -83 -31 -138q-34 -63 -105 -83q-35 -9 -65 -9q-87 0 -152 68q-59 61 -89 163zM533 777q5 3 3 8q0 5 -5 5q-3 0 -16 -6.5t-27 -6.5q-13 0 -31 5l-13 4q-29 9 -53 9q-51 0 -82 -36q-4 -4 -2 -9q3 -4 8 -1q24 12 42 12
q9 0 31 -5q32 -9 44 -11.5t22 -2.5q41 0 79 35z" />
    <glyph glyph-name="Odieresis" unicode="&#xd6;" horiz-adv-x="773" 
d="M288 676q-114 -38 -175 -123q-62 -86 -62 -194q0 -74 28 -146q40 -106 139 -170q94 -59 204 -59q63 0 121 20q103 37 164 131q59 92 59 201q0 66 -23 129q-39 106 -134 168t-205 62q-62 0 -116 -19zM197 273q-18 61 -18 123q0 84 35 146q39 66 112 87q30 8 57 8
q82 0 147 -69q57 -60 87 -155q22 -69 22 -141q0 -83 -31 -138q-34 -63 -105 -83q-35 -9 -65 -9q-87 0 -152 68q-59 61 -89 163zM296 780q0 -16 11 -27.5t27 -11.5t27.5 11t11.5 27t-11 27t-27 11q-15 0 -27 -11t-12 -26zM433 780q0 -16 10.5 -27.5t26.5 -11.5t27.5 11
t11.5 27t-10.5 27t-26.5 11t-27.5 -10.5t-11.5 -26.5z" />
    <glyph glyph-name="multiply" unicode="&#xd7;" horiz-adv-x="584" 
d="M504 201l-153 153l152 153l-58 59l-153 -153l-153 153l-60 -59l153 -153l-153 -154l59 -59l154 153l153 -153z" />
    <glyph glyph-name="Oslash" unicode="&#xd8;" horiz-adv-x="773" 
d="M173 66l-39 -61q-7 -15 -7 -30q0 -19 14 -27q7 -4 17 -4q21 0 41 26l34 52q75 -42 166 -42q57 0 114 16q184 51 236 238q13 43 13 97q0 137 -78 233q-26 32 -66 61l30 46q10 14 10 27q0 15 -17 29q-11 9 -23 9q-23 -2 -39 -25l-31 -48q-68 28 -182 28q-54 0 -117 -26
q-96 -40 -150 -125q-49 -76 -49 -162q0 -83 15 -138q28 -98 108 -174zM505 594l-274 -437q-54 99 -54 239q0 17 1 32.5t3 29.5q18 131 124 168q33 12 65 12q77 0 135 -44zM556 537q79 -119 79 -269q0 -47 -10 -83q-18 -65 -72 -105q-53 -39 -120 -39q-90 0 -148 64z" />
    <glyph glyph-name="Ugrave" unicode="&#xd9;" horiz-adv-x="638" 
d="M560 201v366q0 36 20 47q2 1 11.5 3.5t26.5 6.5q20 5 20 24q0 17 -19 21q-4 1 -34 1h-123q-32 0 -36 -1q-19 -4 -19 -21q0 -19 20 -24q17 -4 26.5 -6.5t11.5 -3.5q20 -11 20 -47v-337q0 -61 -7 -88q-14 -52 -53 -75q-28 -17 -62 -17q-35 0 -61 16q-44 26 -54 71
q-4 17 -4 82v348q0 36 20 47q2 2 37 10q20 5 20 24q0 17 -19 21q-4 1 -35 1h-164q-32 0 -36 -1q-19 -4 -19 -21q0 -19 20 -24q17 -4 26.5 -6.5t11.5 -3.5q20 -11 20 -47v-366q0 -72 14 -108q21 -52 82 -86q50 -28 122 -28q70 0 118 27q60 33 83 91q15 37 15 104zM408 745
q8 -5 14 -5q12 0 12 10q0 7 -9 18q-26 31 -43.5 50t-25.5 27q-20 19 -33 18q-14 -2 -21 -22q-4 -13 17 -30z" />
    <glyph glyph-name="Uacute" unicode="&#xda;" horiz-adv-x="638" 
d="M560 201v366q0 36 20 47q2 1 11.5 3.5t26.5 6.5q20 5 20 24q0 17 -19 21q-4 1 -34 1h-123q-32 0 -36 -1q-19 -4 -19 -21q0 -19 20 -24q17 -4 26.5 -6.5t11.5 -3.5q20 -11 20 -47v-337q0 -61 -7 -88q-14 -52 -53 -75q-28 -17 -62 -17q-35 0 -61 16q-44 26 -54 71
q-4 17 -4 82v348q0 36 20 47q2 2 37 10q20 5 20 24q0 17 -19 21q-4 1 -35 1h-164q-32 0 -36 -1q-19 -4 -19 -21q0 -19 20 -24q17 -4 26.5 -6.5t11.5 -3.5q20 -11 20 -47v-366q0 -72 14 -108q21 -52 82 -86q50 -28 122 -28q70 0 118 27q60 33 83 91q15 37 15 104zM283 775
q-13 -14 -13 -27q0 -8 7 -8t23 11l89 66q22 16 17 30q-5 21 -21 22q-13 1 -33 -17q-22 -23 -39 -42.5t-30 -34.5z" />
    <glyph glyph-name="Ucircumflex" unicode="&#xdb;" horiz-adv-x="638" 
d="M560 201v366q0 36 20 47q2 1 11.5 3.5t26.5 6.5q20 5 20 24q0 17 -19 21q-4 1 -34 1h-123q-32 0 -36 -1q-19 -4 -19 -21q0 -19 20 -24q17 -4 26.5 -6.5t11.5 -3.5q20 -11 20 -47v-337q0 -61 -7 -88q-14 -52 -53 -75q-28 -17 -62 -17q-35 0 -61 16q-44 26 -54 71
q-4 17 -4 82v348q0 36 20 47q2 2 37 10q20 5 20 24q0 17 -19 21q-4 1 -35 1h-164q-32 0 -36 -1q-19 -4 -19 -21q0 -19 20 -24q17 -4 26.5 -6.5t11.5 -3.5q20 -11 20 -47v-366q0 -72 14 -108q21 -52 82 -86q50 -28 122 -28q70 0 118 27q60 33 83 91q15 37 15 104zM438 743
q8 -2 12 -2q13 0 13 8q0 6 -12 15q-40 27 -64 40q-16 10 -26 10q-11 0 -39 -18q-14 -8 -26.5 -17t-24.5 -17q-11 -8 -11 -14t9 -6q7 0 16 3q28 8 47 14t30 9z" />
    <glyph glyph-name="Udieresis" unicode="&#xdc;" horiz-adv-x="638" 
d="M560 201v366q0 36 20 47q2 1 11.5 3.5t26.5 6.5q20 5 20 24q0 17 -19 21q-4 1 -34 1h-123q-32 0 -36 -1q-19 -4 -19 -21q0 -19 20 -24q17 -4 26.5 -6.5t11.5 -3.5q20 -11 20 -47v-337q0 -61 -7 -88q-14 -52 -53 -75q-28 -17 -62 -17q-35 0 -61 16q-44 26 -54 71
q-4 17 -4 82v348q0 36 20 47q2 2 37 10q20 5 20 24q0 17 -19 21q-4 1 -35 1h-164q-32 0 -36 -1q-19 -4 -19 -21q0 -19 20 -24q17 -4 26.5 -6.5t11.5 -3.5q20 -11 20 -47v-366q0 -72 14 -108q21 -52 82 -86q50 -28 122 -28q70 0 118 27q60 33 83 91q15 37 15 104zM263 780
q0 -16 10.5 -27.5t26.5 -11.5t27.5 11t11.5 27t-10.5 27t-26.5 11t-27.5 -10.5t-11.5 -26.5zM399 780q0 -16 10.5 -27.5t26.5 -11.5t27.5 11t11.5 27t-10.5 27t-26.5 11t-27.5 -10.5t-11.5 -26.5z" />
    <glyph glyph-name="Yacute" unicode="&#xdd;" horiz-adv-x="591" 
d="M402 103v202l173 301q10 16 10 31q0 33 -56 33h-79q-32 0 -37 23q-4 23 -18 25q-19 1 -27 -13q-11 -29 -21 -56.5t-18 -53.5q-4 -8 -4 -15q0 -15 28 -15h80q33 0 33 -10q0 -7 -21 -43l-78 -137q-8 20 -16.5 41t-16.5 41q-32 78 -79 139q-61 79 -121 85q-28 3 -55 -35
q-5 -3 -30 -36q-29 -36 -27 -44q1 -22 25 -22q4 0 11.5 2.5t15 5.5t15 5.5t12.5 2.5q10 0 17 -4q52 -25 105 -118q46 -81 62 -156v-179q0 -36 -20 -47q-2 -1 -11.5 -3.5t-26.5 -6.5q-20 -5 -20 -24q0 -17 19 -21q4 -1 36 -1h164q31 0 35 1q19 4 19 21q0 19 -20 24
q-35 8 -38 9q-20 12 -20 48zM234 768q-9 -11 -9 -18q0 -10 12 -10q6 0 14 5l89 66q22 16 17 30q-5 21 -21 22q-14 1 -33 -18q-22 -23 -39 -42.5t-30 -34.5z" />
    <glyph glyph-name="germandbls" unicode="&#xdf;" horiz-adv-x="544" 
d="M331 54q22 24 18 49q-2 11 -9.5 20t-15.5 13q-24 12 -45 -1q-17 -10 -23 -23.5t-7 -29.5q-1 -21 8.5 -37.5t29.5 -30.5q12 -8 29.5 -12.5t36.5 -5.5t36.5 0.5t29.5 6.5q48 17 73.5 45t35.5 70q6 27 5.5 49.5t-10 44t-28 45.5t-47.5 55l-16 17q-33 36 -51 56t-21 36.5
t8.5 35.5t36.5 52l10 13q34 44 43 79.5t-2 73.5q-11 33 -36 54t-54 30q-16 5 -35 7t-39 0t-40 -9t-37 -19q-31 -21 -48.5 -51t-26.5 -61.5t-11.5 -61t-2.5 -49.5v-55q0 -18 -10.5 -25t-24 -9.5t-26.5 -3.5t-17 -6q-8 -11 -3 -24q4 -9 14.5 -12.5t23.5 -4.5t25 -0.5t18 0.5
v-228v-48q0 -21 -3.5 -30t-13.5 -16q-5 -3 -12.5 -4t-15 -1.5t-14.5 -3t-10 -9.5q-2 -5 -1.5 -13.5t3.5 -13.5q4 -5 12.5 -6.5t18.5 -1.5h21q11 0 18 -1q5 -1 14.5 -2t27.5 -6q17 -5 27.5 -7.5t18.5 2.5q12 7 10 25.5t-2 50.5v522v30q0 17 3.5 33.5t11 31.5t22.5 26
q14 10 31.5 11.5t31.5 -3.5q23 -8 35 -27t17 -37q6 -23 5 -43.5t-9 -40.5t-23.5 -42t-38.5 -47l-12 -13q-20 -21 -27.5 -38.5t-6.5 -37.5q1 -18 9 -33.5t21 -30t29.5 -29.5t33.5 -31l28 -27q32 -31 48 -58.5t13 -59.5q-2 -20 -11 -38.5t-31 -30.5q-9 -5 -19.5 -7.5
t-19.5 -1.5q-2 0 -7 1t-11 2.5t-11 4.5t-6 6z" />
    <glyph glyph-name="agrave" unicode="&#xe0;" horiz-adv-x="509" 
d="M346 53q0 -65 9 -69q8 -5 50 9q7 2 19 4t29 4q8 1 17 1.5t18 1.5q15 2 22 12t0 19q-3 6 -17 9q-20 5 -28 10q-17 10 -22 30q-1 5 -1 53v123q0 55 -6 79q-10 48 -50 77q-34 25 -97 25q-65 0 -111 -21q-84 -38 -90 -77q-5 -26 18 -43q16 -13 39 -5q16 6 33 26q7 8 13 16
t13 16q25 28 60 37q40 11 66 -14q23 -22 16 -51q-9 -35 -55 -57q-12 -6 -69 -24l-32 -10q-62 -20 -90 -43q-34 -27 -38 -76q-7 -73 59 -110q31 -16 68 -16q74 0 157 64zM295 212q31 11 52 31q0 -73 -4 -93q-12 -57 -56 -84q-23 -14 -52 -14q-23 0 -40 11q-32 21 -29 60
q1 33 37 53q12 7 77 29zM316 474q8 -5 15 -5q11 0 11 10q0 7 -8 18q-53 63 -69 78q-20 18 -34 17q-14 -2 -21 -22q-4 -13 17 -30z" />
    <glyph glyph-name="aacute" unicode="&#xe1;" horiz-adv-x="509" 
d="M346 53q0 -65 9 -69q8 -5 50 9q7 2 19 4t29 4q8 1 17 1.5t18 1.5q15 2 22 12t0 19q-3 6 -17 9q-20 5 -28 10q-17 10 -22 30q-1 5 -1 53v123q0 55 -6 79q-10 48 -50 77q-34 25 -97 25q-65 0 -111 -21q-84 -38 -90 -77q-5 -26 18 -43q16 -13 39 -5q16 6 33 26q7 8 13 16
t13 16q25 28 60 37q40 11 66 -14q23 -22 16 -51q-9 -35 -55 -57q-12 -6 -69 -24l-32 -10q-62 -20 -90 -43q-34 -27 -38 -76q-7 -73 59 -110q31 -16 68 -16q74 0 157 64zM295 212q31 11 52 31q0 -73 -4 -93q-12 -57 -56 -84q-23 -14 -52 -14q-23 0 -40 11q-32 21 -29 60
q1 33 37 53q12 7 77 29zM205 496q-9 -11 -9 -18q0 -10 12 -10q6 0 14 5l89 66q21 17 17 30q-7 20 -21 22q-13 1 -33 -17q-44 -48 -69 -78z" />
    <glyph glyph-name="acircumflex" unicode="&#xe2;" horiz-adv-x="509" 
d="M346 53q0 -65 9 -69q8 -5 50 9q7 2 19 4t29 4q8 1 17 1.5t18 1.5q15 2 22 12t0 19q-3 6 -17 9q-20 5 -28 10q-17 10 -22 30q-1 5 -1 53v123q0 55 -6 79q-10 48 -50 77q-34 25 -97 25q-65 0 -111 -21q-84 -38 -90 -77q-5 -26 18 -43q16 -13 39 -5q16 6 33 26q7 8 13 16
t13 16q25 28 60 37q40 11 66 -14q23 -22 16 -51q-9 -35 -55 -57q-12 -6 -69 -24l-32 -10q-62 -20 -90 -43q-34 -27 -38 -76q-7 -73 59 -110q31 -16 68 -16q74 0 157 64zM295 212q31 11 52 31q0 -73 -4 -93q-12 -57 -56 -84q-23 -14 -52 -14q-23 0 -40 11q-32 21 -29 60
q1 33 37 53q12 7 77 29zM353 470q25 -7 25 5q0 7 -13 16q-21 14 -36.5 23.5t-26.5 16.5q-17 11 -27 11q-11 0 -40 -20q-13 -8 -25 -17t-25 -17q-11 -8 -11 -14t10 -6q6 0 15 3q28 9 47 15t30 9z" />
    <glyph glyph-name="atilde" unicode="&#xe3;" horiz-adv-x="509" 
d="M346 53q0 -65 9 -69q8 -5 50 9q7 2 19 4t29 4q8 1 17 1.5t18 1.5q15 2 22 12t0 19q-3 6 -17 9q-20 5 -28 10q-17 10 -22 30q-1 5 -1 53v123q0 55 -6 79q-10 48 -50 77q-34 25 -97 25q-65 0 -111 -21q-84 -38 -90 -77q-5 -26 18 -43q16 -13 39 -5q16 6 33 26q7 8 13 16
t13 16q25 28 60 37q40 11 66 -14q23 -22 16 -51q-9 -35 -55 -57q-12 -6 -69 -24l-32 -10q-62 -20 -90 -43q-34 -27 -38 -76q-7 -73 59 -110q31 -16 68 -16q74 0 157 64zM295 212q31 11 52 31q0 -73 -4 -93q-12 -57 -56 -84q-23 -14 -52 -14q-23 0 -40 11q-32 21 -29 60
q1 33 37 53q12 7 77 29zM385 505q3 3 3 8q-2 5 -6 5q-2 0 -15.5 -7.5t-28.5 -7.5q-13 0 -29 6l-14 5q-26 10 -51 10q-52 -2 -83 -38q-4 -4 -2 -9t7 -1q25 12 43 12q9 0 31 -5q31 -9 45 -12q5 -1 10 -1.5t10 -0.5q39 0 80 36z" />
    <glyph glyph-name="adieresis" unicode="&#xe4;" horiz-adv-x="509" 
d="M346 53q0 -65 9 -69q8 -5 50 9q7 2 19 4t29 4q8 1 17 1.5t18 1.5q15 2 22 12t0 19q-3 6 -17 9q-20 5 -28 10q-17 10 -22 30q-1 5 -1 53v123q0 55 -6 79q-10 48 -50 77q-34 25 -97 25q-65 0 -111 -21q-84 -38 -90 -77q-5 -26 18 -43q16 -13 39 -5q16 6 33 26q7 8 13 16
t13 16q25 28 60 37q40 11 66 -14q23 -22 16 -51q-9 -35 -55 -57q-12 -6 -69 -24l-32 -10q-62 -20 -90 -43q-34 -27 -38 -76q-7 -73 59 -110q31 -16 68 -16q74 0 157 64zM295 212q31 11 52 31q0 -73 -4 -93q-12 -57 -56 -84q-23 -14 -52 -14q-23 0 -40 11q-32 21 -29 60
q1 33 37 53q12 7 77 29zM162 507q0 -16 10.5 -27.5t26.5 -11.5t27.5 11t11.5 27t-10.5 27.5t-26.5 11.5t-27.5 -11t-11.5 -27zM298 507q0 -16 11 -27.5t26 -11.5q16 0 28 11t12 27t-11 27.5t-27 11.5t-27.5 -11t-11.5 -27z" />
    <glyph glyph-name="aring" unicode="&#xe5;" horiz-adv-x="509" 
d="M346 53q0 -65 9 -69q8 -5 50 9q7 2 19 4t29 4q8 1 17 1.5t18 1.5q15 2 22 12t0 19q-3 6 -17 9q-20 5 -28 10q-17 10 -22 30q-1 5 -1 53v123q0 55 -6 79q-10 48 -50 77q-34 25 -97 25q-65 0 -111 -21q-84 -38 -90 -77q-5 -26 18 -43q16 -13 39 -5q16 6 33 26q7 8 13 16
t13 16q25 28 60 37q40 11 66 -14q23 -22 16 -51q-9 -35 -55 -57q-12 -6 -69 -24l-32 -10q-62 -20 -90 -43q-34 -27 -38 -76q-7 -73 59 -110q31 -16 68 -16q74 0 157 64zM295 212q31 11 52 31q0 -73 -4 -93q-12 -57 -56 -84q-23 -14 -52 -14q-23 0 -40 11q-32 21 -29 60
q1 33 37 53q12 7 77 29zM222 521q0 -22 16 -37.5t38 -15.5t38 16.5t16 39.5q0 21 -16.5 36t-38.5 15t-37.5 -16t-15.5 -38zM275 489q-32 0 -32 33t32 33q33 0 33 -33t-33 -33z" />
    <glyph glyph-name="ae" unicode="&#xe6;" horiz-adv-x="703" 
d="M481 225q-19 -8 -46 -33q-2 13 -3.5 26.5t-1.5 29.5q0 72 26.5 103t71.5 31q37 0 61 -37q19 -29 8 -51q-11 -23 -45 -39q-6 -4 -54 -23zM333 243q0 -140 -60 -177q-23 -14 -52 -14q-23 0 -40 11q-31 20 -29 60q1 33 36 51q20 8 39 15.5t38 15.5l16 7q35 15 52 31z
M405 380q-21 27 -33 36q-34 25 -97 25q-65 0 -111 -21q-85 -37 -90 -77q0 -25 13 -38q19 -20 44 -10q15 6 32 26q7 8 13 16t13 16q25 28 60 37q39 10 66 -14q24 -21 17 -51q-9 -35 -55 -57q-13 -6 -70 -24l-32 -10q-62 -20 -90 -43q-34 -27 -38 -76q-7 -73 59 -110
q28 -15 69 -15q25 0 52 6t52.5 17t47.5 26.5t38 33.5q37 -51 88 -73q38 -16 80 -16q65 0 127 41q41 29 41 52q0 18 -12 18q-8 0 -33 -15l-27 -13.5t-16 -7.5q-33 -11 -57 -11q-39 0 -67 25t-28 59q3 27 35 47q8 5 22.5 10.5t36.5 12.5l40 13q50 16 70 29q33 22 33 64t-27 74
q-44 51 -129 51h-14q-6 0 -13 -1q-42 0 -91 -37q-12 -8 -19 -15z" />
    <glyph glyph-name="ccedilla" unicode="&#xe7;" horiz-adv-x="435" 
d="M215 -11q35 -4 63 -1q39 4 78 23q44 23 57 49q6 11 0 22q-11 11 -21 7q-17 -8 -30.5 -15.5t-32.5 -12.5q-32 -8 -63 -1q-36 8 -68 44q-54 64 -54 147q0 60 28 94q34 41 81 34q31 -4 52 -24q12 -8 27 -25q10 -10 26 -15q12 -4 23.5 -1.5t20 10t12.5 19t1 24.5
q-8 39 -60 57q-35 11 -72 11q-85 0 -149 -50q-88 -70 -88 -187q0 -142 148 -208l-8 -25q-4 -12 -4 -26l5 -4q22 9 33 18q16 4 30 -9q17 -19 10 -50q-6 -27 -25 -34q-11 -5 -20 0q-15 4 -13 15q11 8 11 17q0 7 -7 14t-19 3q-11 -5 -13 -20q-4 -18 14 -33q24 -19 61 -9
q50 15 50 69q0 25 -15.5 41.5t-39.5 16.5q-15 0 -34 -6z" />
    <glyph glyph-name="egrave" unicode="&#xe8;" horiz-adv-x="421" 
d="M233 432q-46 -4 -91 -37q-51 -38 -77 -109q-22 -57 -17 -109q12 -128 123 -177q36 -16 79 -16q67 0 128 41q36 25 41 52q3 16 -12 18q-7 0 -33 -14q-16 -9 -27 -14.5t-16 -7.5q-33 -11 -57 -11q-38 0 -66 25q-32 29 -29 59q3 28 35 46q15 9 60 24l39 13q53 18 70 29
q33 22 33 63q0 43 -27 75q-44 51 -128 51h-14t-14 -1zM199 225q-18 -8 -45 -33q-6 25 -6 58q0 69 26.5 101.5t71.5 30.5q36 -1 61 -37q12 -17 12 -33q0 -10 -4 -18q-10 -23 -44 -40q-14 -5 -27.5 -11t-27.5 -11zM300 472q8 -5 14 -5q12 0 12 10q0 7 -9 18q-53 61 -69 78
q-20 18 -33 17q-16 -1 -21 -22q-5 -14 17 -30z" />
    <glyph glyph-name="eacute" unicode="&#xe9;" horiz-adv-x="421" 
d="M233 432q-46 -4 -91 -37q-51 -38 -77 -109q-22 -57 -17 -109q12 -128 123 -177q36 -16 79 -16q67 0 128 41q36 25 41 52q3 16 -12 18q-7 0 -33 -14q-16 -9 -27 -14.5t-16 -7.5q-33 -11 -57 -11q-38 0 -66 25q-32 29 -29 59q3 28 35 46q15 9 60 24l39 13q53 18 70 29
q33 22 33 63q0 43 -27 75q-44 51 -128 51h-14t-14 -1zM199 225q-18 -8 -45 -33q-6 25 -6 58q0 69 26.5 101.5t71.5 30.5q36 -1 61 -37q12 -17 12 -33q0 -10 -4 -18q-10 -23 -44 -40q-14 -5 -27.5 -11t-27.5 -11zM177 496q-9 -11 -9 -18q0 -11 12 -11q7 0 15 6l89 66
q21 17 17 30q-7 20 -21 22q-14 1 -34 -17q-44 -47 -69 -78z" />
    <glyph glyph-name="ecircumflex" unicode="&#xea;" horiz-adv-x="421" 
d="M233 432q-46 -4 -91 -37q-51 -38 -77 -109q-22 -57 -17 -109q12 -128 123 -177q36 -16 79 -16q67 0 128 41q36 25 41 52q3 16 -12 18q-7 0 -33 -14q-16 -9 -27 -14.5t-16 -7.5q-33 -11 -57 -11q-38 0 -66 25q-32 29 -29 59q3 28 35 46q15 9 60 24l39 13q53 18 70 29
q33 22 33 63q0 43 -27 75q-44 51 -128 51h-14t-14 -1zM199 225q-18 -8 -45 -33q-6 25 -6 58q0 69 26.5 101.5t71.5 30.5q36 -1 61 -37q12 -17 12 -33q0 -10 -4 -18q-10 -23 -44 -40q-14 -5 -27.5 -11t-27.5 -11zM322 470q8 -2 12 -2q13 0 13 8q0 6 -12 15q-40 27 -64 40
q-17 11 -26 11q-11 0 -40 -20l-50 -34q-11 -8 -11 -14t9 -6q6 0 15 3q28 9 47 15t30 9z" />
    <glyph glyph-name="edieresis" unicode="&#xeb;" horiz-adv-x="421" 
d="M233 432q-46 -4 -91 -37q-51 -38 -77 -109q-22 -57 -17 -109q12 -128 123 -177q36 -16 79 -16q67 0 128 41q36 25 41 52q3 16 -12 18q-7 0 -33 -14q-16 -9 -27 -14.5t-16 -7.5q-33 -11 -57 -11q-38 0 -66 25q-32 29 -29 59q3 28 35 46q15 9 60 24l39 13q53 18 70 29
q33 22 33 63q0 43 -27 75q-44 51 -128 51h-14t-14 -1zM199 225q-18 -8 -45 -33q-6 25 -6 58q0 69 26.5 101.5t71.5 30.5q36 -1 61 -37q12 -17 12 -33q0 -10 -4 -18q-10 -23 -44 -40q-14 -5 -27.5 -11t-27.5 -11zM131 507q0 -16 10.5 -27.5t26.5 -11.5t27.5 11t11.5 27
t-10.5 27.5t-26.5 11.5t-27.5 -11t-11.5 -27zM267 507q0 -16 11 -27.5t27 -11.5q15 0 27 11.5t12 26.5q0 16 -11 27.5t-27 11.5t-27.5 -11t-11.5 -27z" />
    <glyph glyph-name="igrave" unicode="&#xec;" horiz-adv-x="302" 
d="M103 0h146q32 0 36 1q19 4 19 21q0 19 -20 24q-18 4 -27.5 6.5t-11.5 3.5q-20 11 -20 47v278q0 15 3 32.5t3 20.5q0 13 -11 19q-10 4 -22 0q-32 -18 -66 -19q-8 -1 -19 -0.5t-26 1.5q-33 1 -33 -21t29 -27q22 -3 30 -9q13 -10 13 -35v-240q0 -36 -20 -47
q-2 -1 -11.5 -3.5t-26.5 -6.5q-20 -5 -20 -24q0 -17 19 -21q4 -1 36 -1zM184 473q8 -5 14 -5q12 0 12 10q0 7 -9 18q-53 61 -69 78q-20 18 -34 17q-15 -2 -21 -22q-5 -14 18 -30z" />
    <glyph glyph-name="iacute" unicode="&#xed;" horiz-adv-x="302" 
d="M103 0h146q32 0 36 1q19 4 19 21q0 19 -20 24q-18 4 -27.5 6.5t-11.5 3.5q-20 11 -20 47v278q0 15 3 32.5t3 20.5q0 13 -11 19q-10 4 -22 0q-32 -18 -66 -19q-8 -1 -19 -0.5t-26 1.5q-33 1 -33 -21t29 -27q22 -3 30 -9q13 -10 13 -35v-240q0 -36 -20 -47
q-2 -1 -11.5 -3.5t-26.5 -6.5q-20 -5 -20 -24q0 -17 19 -21q4 -1 36 -1zM120 497q-9 -11 -9 -18q0 -10 12 -10q6 0 14 5l89 66q22 16 18 30q-6 20 -21 22q-14 1 -34 -17q-44 -47 -69 -78z" />
    <glyph glyph-name="icircumflex" unicode="&#xee;" horiz-adv-x="302" 
d="M103 0h146q32 0 36 1q19 4 19 21q0 19 -20 24q-18 4 -27.5 6.5t-11.5 3.5q-20 11 -20 47v278q0 15 3 32.5t3 20.5q0 13 -11 19q-10 4 -22 0q-32 -18 -66 -19q-8 -1 -19 -0.5t-26 1.5q-33 1 -33 -21t29 -27q22 -3 30 -9q13 -10 13 -35v-240q0 -36 -20 -47
q-2 -1 -11.5 -3.5t-26.5 -6.5q-20 -5 -20 -24q0 -17 19 -21q4 -1 36 -1zM231 470q8 -2 12 -2q13 0 13 8q0 6 -12 15q-40 27 -64 40q-17 11 -26 11q-11 0 -40 -20l-50 -34q-11 -8 -11 -14t9 -6q6 0 15 3q55 18 78 24z" />
    <glyph glyph-name="idieresis" unicode="&#xef;" horiz-adv-x="302" 
d="M103 0h146q32 0 36 1q19 4 19 21q0 19 -20 24q-18 4 -27.5 6.5t-11.5 3.5q-20 11 -20 47v278q0 15 3 32.5t3 20.5q0 13 -11 19q-10 4 -22 0q-32 -18 -66 -19q-8 -1 -19 -0.5t-26 1.5q-33 1 -33 -21t29 -27q22 -3 30 -9q13 -10 13 -35v-240q0 -36 -20 -47
q-2 -1 -11.5 -3.5t-26.5 -6.5q-20 -5 -20 -24q0 -17 19 -21q4 -1 36 -1zM67 507q0 -16 11 -27.5t27 -11.5q15 0 27 11.5t12 26.5q0 16 -11 27.5t-27 11.5t-27.5 -11t-11.5 -27zM204 507q0 -16 10.5 -27.5t26.5 -11.5t27.5 11t11.5 27t-10.5 27.5t-26.5 11.5t-27.5 -11
t-11.5 -27z" />
    <glyph glyph-name="ntilde" unicode="&#xf1;" horiz-adv-x="564" 
d="M495 299q0 45 -15 78t-61 51q-42 17 -94.5 2t-99.5 -50q0 29 4.5 43.5t-3.5 24.5q-11 13 -28 5q-9 -5 -28 -11.5t-38 -7.5q-14 -1 -24 -0.5t-21 1.5q-16 1 -24.5 -5t-8.5 -16q0 -14 7.5 -19.5t21.5 -7.5q8 -1 16 -2.5t14 -6t9.5 -13t3.5 -22.5v-240q0 -32 -11.5 -41.5
t-25 -12t-24.5 -6t-11 -21.5q0 -10 5.5 -14.5t13.5 -6t17 -1.5h18h135h17q10 0 18 1.5t13 6t5 14.5q0 18 -11 21t-24.5 6t-24.5 12.5t-11 41.5v115v42t4.5 39.5t14.5 34t30 27.5q18 11 41.5 10.5t38.5 -8.5q17 -9 25.5 -23t12 -30.5t3.5 -34.5v-33v-139q0 -33 -9 -42.5
t-19.5 -12t-19 -5t-8.5 -21.5q0 -10 5.5 -14.5t13.5 -6t18 -1.5h18h105h19q10 0 17.5 1.5t12.5 6t5 14.5q0 18 -9 20t-20 4.5t-20 13t-9 43.5v196zM464 505q5 4 2.5 10.5t-15.5 -1.5q-8 -6 -23.5 -10t-39.5 5l-13 5q-41 16 -76 8.5t-59 -36.5q-5 -5 -2.5 -9t7.5 -1
q18 9 30.5 11t24.5 0t26.5 -6.5t37.5 -9.5q51 -11 100 34z" />
    <glyph glyph-name="ograve" unicode="&#xf2;" horiz-adv-x="520" 
d="M168 153q-17 51 -17 97q0 99 73 124q18 6 37 6q43 0 80 -31q40 -34 61 -94q14 -42 14 -83q0 -100 -69 -128q-21 -9 -43 -9q-43 0 -80.5 32t-55.5 86zM280 436q-101 0 -168 -67q-66 -66 -64 -163q2 -92 66 -155q67 -67 176 -67q97 0 164 65q66 66 65 165q-2 101 -68 161
q-65 61 -171 61zM354 473q8 -5 14 -5q12 0 12 10q0 7 -9 18q-53 61 -69 78q-20 18 -34 17q-15 -2 -21 -22q-5 -14 18 -30z" />
    <glyph glyph-name="oacute" unicode="&#xf3;" horiz-adv-x="520" 
d="M168 153q-17 51 -17 97q0 99 73 124q18 6 37 6q43 0 80 -31q40 -34 61 -94q14 -42 14 -83q0 -100 -69 -128q-21 -9 -43 -9q-43 0 -80.5 32t-55.5 86zM280 436q-101 0 -168 -67q-66 -66 -64 -163q2 -92 66 -155q67 -67 176 -67q97 0 164 65q66 66 65 165q-2 101 -68 161
q-65 61 -171 61zM152 499q-9 -11 -9 -18q0 -11 12 -11q6 0 14 5l89 67q22 16 17 30q-5 21 -20 22q-14 2 -34 -18q-22 -23 -39 -42.5t-30 -34.5z" />
    <glyph glyph-name="ocircumflex" unicode="&#xf4;" horiz-adv-x="520" 
d="M168 153q-17 51 -17 97q0 99 73 124q18 6 37 6q43 0 80 -31q40 -34 61 -94q14 -42 14 -83q0 -100 -69 -128q-21 -9 -43 -9q-43 0 -80.5 32t-55.5 86zM280 436q-101 0 -168 -67q-66 -66 -64 -163q2 -92 66 -155q67 -67 176 -67q97 0 164 65q66 66 65 165q-2 101 -68 161
q-65 61 -171 61zM365 470q26 -8 26 5q0 7 -13 16q-21 14 -36.5 23.5t-26.5 16.5q-17 11 -27 11q-11 0 -40 -20q-13 -8 -25 -17t-25 -17q-11 -8 -11 -14t9 -6q7 0 16 3q28 9 47 15t30 9z" />
    <glyph glyph-name="otilde" unicode="&#xf5;" horiz-adv-x="520" 
d="M168 153q-17 51 -17 97q0 99 73 124q18 6 37 6q43 0 80 -31q40 -34 61 -94q14 -42 14 -83q0 -100 -69 -128q-21 -9 -43 -9q-43 0 -80.5 32t-55.5 86zM280 436q-101 0 -168 -67q-66 -66 -64 -163q2 -92 66 -155q67 -67 176 -67q97 0 164 65q66 66 65 165q-2 101 -68 161
q-65 61 -171 61zM399 505q3 3 3 8q0 6 -5 6q-6 0 -11 -4q-16 -10 -34 -10q-11 0 -28 5l-14 5q-26 10 -52 10q-50 0 -83 -38q-4 -4 -1 -9q2 -5 7 -1q24 12 42 12q9 0 31 -5q32 -9 44 -11.5t22 -2.5q39 0 79 35z" />
    <glyph glyph-name="odieresis" unicode="&#xf6;" horiz-adv-x="520" 
d="M168 153q-17 51 -17 97q0 99 73 124q18 6 37 6q43 0 80 -31q40 -34 61 -94q14 -42 14 -83q0 -100 -69 -128q-21 -9 -43 -9q-43 0 -80.5 32t-55.5 86zM280 436q-101 0 -168 -67q-66 -66 -64 -163q2 -92 66 -155q67 -67 176 -67q97 0 164 65q66 66 65 165q-2 101 -68 161
q-65 61 -171 61zM195 507q0 -16 10.5 -27.5t26.5 -11.5t27.5 11t11.5 27t-10.5 27.5t-26.5 11.5t-27.5 -11t-11.5 -27zM331 507q0 -16 10.5 -27.5t26.5 -11.5t27.5 11t11.5 27t-10.5 27.5t-26.5 11.5t-27.5 -11t-11.5 -27z" />
    <glyph glyph-name="divide" unicode="&#xf7;" horiz-adv-x="549" 
d="M324 450v100h-100v-100h100zM511 312v82h-473v-82h473zM324 156v100h-100v-100h100z" />
    <glyph glyph-name="oslash" unicode="&#xf8;" horiz-adv-x="520" 
d="M183 122q-11 15 -15 31q-17 48 -17 94q0 102 73 127q24 9 45 9q39 0 71 -29zM347 44q-19 -8 -39 -8q-43 0 -80 28l158 231q2 -5 6.5 -15t9.5 -25q14 -42 14 -83q0 -100 -69 -128zM48 206q1 -94 80 -167q-8 -13 -13.5 -22t-9.5 -15q-1 -1 -1 -4q0 -5 4 -10.5t10.5 -10.5
t14.5 -8.5t15 -3.5t12 5q21 29 25 33q50 -19 105 -19q96 0 163 65q67 66 66 165q-1 100 -75 169l22 32q2 4 2 7q0 11 -15.5 22.5t-30.5 11.5q-10 0 -14 -6l-23 -32q-48 18 -105 18q-101 0 -168 -67q-66 -66 -64 -163z" />
    <glyph glyph-name="ugrave" unicode="&#xf9;" horiz-adv-x="572" 
d="M200 -2q27 -13 61 -13q67 0 134 53q0 -53 6 -57q7 -5 15 -5q12 0 41 12q46 12 66 12q31 0 35 1q18 4 18 21q0 19 -20 24q-35 8 -38 9q-20 12 -20 48v278q0 15 3 32.5t3 20.5q0 13 -11 19q-10 4 -22 0q-32 -18 -66 -19q-8 -1 -19 -0.5t-26 1.5q-34 1 -34 -21t29 -27
q23 -3 32 -9q14 -11 14 -35v-151q0 -62 -4 -74q-8 -29 -45 -51q-23 -14 -46 -14q-22 0 -39 10q-30 17 -39 61q-3 18 -3 72v185q0 15 3 32.5t3 20.5q0 13 -11 19q-10 4 -22 0q-32 -18 -66 -19q-8 -1 -19 -0.5t-26 1.5q-33 1 -33 -21t29 -27q22 -3 30 -9q13 -10 13 -35v-178
q0 -74 7 -95q14 -48 67 -72zM371 474q8 -5 14 -5q12 0 12 10q0 7 -9 18q-53 61 -69 78q-20 18 -34 17q-15 -1 -20 -22q-5 -14 17 -30z" />
    <glyph glyph-name="uacute" unicode="&#xfa;" horiz-adv-x="572" 
d="M200 -2q27 -13 61 -13q67 0 134 53q0 -53 6 -57q7 -5 15 -5q12 0 41 12q46 12 66 12q31 0 35 1q18 4 18 21q0 19 -20 24q-35 8 -38 9q-20 12 -20 48v278q0 15 3 32.5t3 20.5q0 13 -11 19q-10 4 -22 0q-32 -18 -66 -19q-8 -1 -19 -0.5t-26 1.5q-34 1 -34 -21t29 -27
q23 -3 32 -9q14 -11 14 -35v-151q0 -62 -4 -74q-8 -29 -45 -51q-23 -14 -46 -14q-22 0 -39 10q-30 17 -39 61q-3 18 -3 72v185q0 15 3 32.5t3 20.5q0 13 -11 19q-10 4 -22 0q-32 -18 -66 -19q-8 -1 -19 -0.5t-26 1.5q-33 1 -33 -21t29 -27q22 -3 30 -9q13 -10 13 -35v-178
q0 -74 7 -95q14 -48 67 -72zM250 497q-9 -11 -9 -18q0 -10 12 -10q6 0 14 5l89 66q22 16 18 30q-6 20 -21 22q-14 1 -34 -17q-44 -47 -69 -78z" />
    <glyph glyph-name="ucircumflex" unicode="&#xfb;" horiz-adv-x="572" 
d="M200 -2q27 -13 61 -13q67 0 134 53q0 -53 6 -57q7 -5 15 -5q12 0 41 12q46 12 66 12q31 0 35 1q18 4 18 21q0 19 -20 24q-35 8 -38 9q-20 12 -20 48v278q0 15 3 32.5t3 20.5q0 13 -11 19q-10 4 -22 0q-32 -18 -66 -19q-8 -1 -19 -0.5t-26 1.5q-34 1 -34 -21t29 -27
q23 -3 32 -9q14 -11 14 -35v-151q0 -62 -4 -74q-8 -29 -45 -51q-23 -14 -46 -14q-22 0 -39 10q-30 17 -39 61q-3 18 -3 72v185q0 15 3 32.5t3 20.5q0 13 -11 19q-10 4 -22 0q-32 -18 -66 -19q-8 -1 -19 -0.5t-26 1.5q-33 1 -33 -21t29 -27q22 -3 30 -9q13 -10 13 -35v-178
q0 -74 7 -95q14 -48 67 -72zM376 471q25 -7 25 5q0 6 -12 15q-40 27 -64 40q-17 11 -26 11q-11 0 -40 -20l-50 -34q-11 -8 -11 -14t9 -6q7 0 16 3q28 9 47 15t30 9z" />
    <glyph glyph-name="udieresis" unicode="&#xfc;" horiz-adv-x="572" 
d="M200 -2q27 -13 61 -13q67 0 134 53q0 -53 6 -57q7 -5 15 -5q12 0 41 12q46 12 66 12q31 0 35 1q18 4 18 21q0 19 -20 24q-35 8 -38 9q-20 12 -20 48v278q0 15 3 32.5t3 20.5q0 13 -11 19q-10 4 -22 0q-32 -18 -66 -19q-8 -1 -19 -0.5t-26 1.5q-34 1 -34 -21t29 -27
q23 -3 32 -9q14 -11 14 -35v-151q0 -62 -4 -74q-8 -29 -45 -51q-23 -14 -46 -14q-22 0 -39 10q-30 17 -39 61q-3 18 -3 72v185q0 15 3 32.5t3 20.5q0 13 -11 19q-10 4 -22 0q-32 -18 -66 -19q-8 -1 -19 -0.5t-26 1.5q-33 1 -33 -21t29 -27q22 -3 30 -9q13 -10 13 -35v-178
q0 -74 7 -95q14 -48 67 -72zM212 507q0 -16 10.5 -27.5t26.5 -11.5t27.5 11t11.5 27t-10.5 27.5t-26.5 11.5t-27.5 -11t-11.5 -27zM348 507q0 -16 11 -27.5t26 -11.5q16 0 28 11t12 27t-11 27.5t-27 11.5t-27.5 -11t-11.5 -27z" />
    <glyph glyph-name="yacute" unicode="&#xfd;" horiz-adv-x="504" 
d="M125 319l101 -186q31 -57 39 -69q-15 -32 -25.5 -55t-17.5 -38q-45 -99 -45 -138q0 -48 41 -57q31 -7 46.5 10.5t17.5 45.5q-1 -8 -1 5v44v13q0 82 59 197l143 279q0 2 19 33q8 16 8 23q0 6 -4 10q-10 13 -28 5t-33 -13t-27 -6q-9 -1 -20 -0.5t-24 1.5q-34 3 -34 -21
q0 -25 29 -27q35 -3 35 -23q0 -9 -7 -22l-82 -158l-86 151q-5 18 -5 27q0 17 22 24t21 26q0 16 -19 20q-4 1 -12 1.5t-22 0.5h-111q-26 0 -36 -2q-19 -4 -19 -20q0 -17 4 -17q1 0 4.5 1t7.5 1q25 0 61 -66zM235 496q-9 -11 -9 -17q0 -11 13 -11q6 0 14 5l89 66q21 17 17 30
q-7 20 -21 22q-13 1 -33 -17q-22 -24 -39.5 -43.5t-30.5 -34.5z" />
    <glyph glyph-name="ydieresis" unicode="&#xff;" horiz-adv-x="504" 
d="M125 319l101 -186q31 -57 39 -69q-15 -32 -25.5 -55t-17.5 -38q-45 -99 -45 -138q0 -48 41 -57q31 -7 46.5 10.5t17.5 45.5q-1 -8 -1 5v44v13q0 82 59 197l143 279q0 2 19 33q8 16 8 23q0 6 -4 10q-10 13 -28 5t-33 -13t-27 -6q-9 -1 -20 -0.5t-24 1.5q-34 3 -34 -21
q0 -25 29 -27q35 -3 35 -23q0 -9 -7 -22l-82 -158l-86 151q-5 18 -5 27q0 17 22 24t21 26q0 16 -19 20q-4 1 -12 1.5t-22 0.5h-111q-26 0 -36 -2q-19 -4 -19 -20q0 -17 4 -17q1 0 4.5 1t7.5 1q25 0 61 -66zM197 476q0 -16 11 -27.5t27 -11.5q15 0 27 11.5t12 26.5
q0 16 -11 27.5t-27 11.5t-27.5 -11t-11.5 -27zM334 476q0 -16 10.5 -27.5t26.5 -11.5t27.5 11.5t11.5 26.5q0 16 -10.5 27.5t-26.5 11.5t-27.5 -11t-11.5 -27z" />
    <glyph glyph-name="longs" unicode="&#xe000;" horiz-adv-x="324" 
d="M225 -57v642q0 90 22 106q23 18 48 8q10 -4 35 -28q27 -24 39 -27t23.5 1t19 11.5t11.5 18t1 22.5q-8 34 -60 53q-26 9 -54 9q-57 0 -103 -35q-50 -39 -69 -114q-12 -51 -12 -137v-52h-49q-32 0 -32 -24t33 -24h48v-482q0 -30 -13 -49q-8 -11 -30 -30q-14 -11 -1 -25
q11 -14 28 -4l154 82q19 9 20 21q2 17 -7 22t-22 1q-30 -9 -30 34z" />
    <glyph glyph-name="DST" unicode="&#xe001;" horiz-adv-x="1448" 
d="M1426 -37v837h-1404v-837h1404zM1401 561q0 -14 -6 -26.5t-16 -22.5t-23 -15.5t-28 -5.5h-146q-35 0 -35 -45v-302q0 -32 19 -42v-56q-72 16 -72 86v321q0 97 115 97q16 0 48 -3q17 -1 29 -1.5t20 -0.5q41 0 41 21q0 19 -42 19q-8 0 -20 -0.5t-28 -1.5t-27.5 -1.5
t-19.5 -0.5q-116 0 -116 89v130h57v-130q0 -36 37 -36h148q27 0 46 -20.5t19 -52.5zM1014 136q0 -40 -23.5 -64t-62.5 -24h-282q-30 0 -50 20t-20 50q0 32 18 52.5t47 20.5h279v-53h-270q-20 0 -20 -18q0 -21 22 -21h250q61 0 61 45v76q0 45 -45 45h-250q-42 0 -67 25
t-25 67v89q0 45 26.5 73.5t71.5 28.5h246q76 0 89 -76h-50q-20 21 -43 21h-244q-41 0 -41 -43v-95q0 -37 41 -37h246q45 0 70.5 -23t25.5 -65v-94zM507 800l-1 -684q0 -30 -21.5 -52t-51.5 -22q-32 0 -52 22t-20 55q0 62 -0.5 104t-1.5 65q-2 10 -87 93l-96 93
q-14 14 -26 14q-10 0 -17 -6q-8 -27 -8 -32v-310q0 -43 35 -43h81q13 7 25 21h53q-14 -72 -77 -72h-82q-88 0 -88 96v330q0 31 24 49.5t58 18.5q33 0 52 -19l179 -177q31 -31 31 -74v-152q0 -21 19 -21q6 0 12 7.5t6 13.5l-2 682h56z" />
  </font>
</defs>
</svg>
