{
  "accessors": [
    {
      "bufferView": 2,
      "componentType": 5126,
      "count": 3693,
      "max": [
        52.67177963256836,
        22.656600952148438,
        -15.03528881072998
      ],
      "min": [
        7.326097011566162,
        -22.635356903076172,
        -65.07252502441406
      ],
      "type": "VEC3"
    },
    {
      "bufferView": 2,
      "byteOffset": 44316,
      "componentType": 5126,
      "count": 3693,
      "max": [
        0.999276876449585,
        0.9986122250556946,
        0.9999719262123108
      ],
      "min": [
        -0.9998669624328613,
        -0.9987918138504028,
        -0.9996616244316101
      ],
      "type": "VEC3"
    },
    {
      "bufferView": 1,
      "componentType": 5126,
      "count": 3693,
      "max": [
        7.838563919067383,
        1.0
      ],
      "min": [
        -7.614545822143555,
        -12.146634101867676
      ],
      "type": "VEC2"
    },
    {
      "bufferView": 0,
      "componentType": 5125,
      "count": 20964,
      "type": "SCALAR"
    }
  ],
  "asset": {
    "extras": {
      "author": "XRchaeology Team (https://sketchfab.com/XRchaeology)",
      "license": "COPYRIGHT TO XRchaeology Team",
      "source": "https://sketchfab.com/3d-models/17-17a884d0615943b289d4a132f6ab71ba",
      "title": "17"
    },
    "generator": "Sketchfab-10.48.0",
    "version": "2.0"
  },
  "bufferViews": [
    {
      "buffer": 0,
      "byteLength": 83856,
      "name": "floatBufferViews",
      "target": 34963
    },
    {
      "buffer": 0,
      "byteLength": 29544,
      "byteOffset": 83856,
      "byteStride": 8,
      "name": "floatBufferViews",
      "target": 34962
    },
    {
      "buffer": 0,
      "byteLength": 88632,
      "byteOffset": 113400,
      "byteStride": 12,
      "name": "floatBufferViews",
      "target": 34962
    }
  ],
  "buffers": [
    {
      "byteLength": 202032,
      "uri": "scene.bin"
    }
  ],
  "images": [
    {
      "uri": "textures/Steel_-_Satin.013_baseColor.jpeg"
    }
  ],
  "materials": [
    {
      "doubleSided": true,
      "name": "Steel_-_Satin.013",
      "pbrMetallicRoughness": {
        "baseColorTexture": {
          "index": 0
        },
        "metallicFactor": 0.0,
        "roughnessFactor": 0.5
      }
    }
  ],
  "meshes": [
    {
      "name": "Object_0",
      "primitives": [
        {
          "attributes": {
            "NORMAL": 1,
            "POSITION": 0,
            "TEXCOORD_0": 2
          },
          "indices": 3,
          "material": 0,
          "mode": 4
        }
      ]
    }
  ],
  "nodes": [
    {
      "children": [
        1
      ],
      "matrix": [
        1.0,
        0.0,
        0.0,
        0.0,
        0.0,
        2.220446049250313e-16,
        -1.0,
        0.0,
        0.0,
        1.0,
        2.220446049250313e-16,
        0.0,
        0.0,
        0.0,
        0.0,
        1.0
      ],
      "name": "Sketchfab_model"
    },
    {
      "children": [
        2
      ],
      "name": "root"
    },
    {
      "children": [
        3
      ],
      "matrix": [
        1.0,
        0.0,
        0.0,
        0.0,
        0.0,
        2.220446049250313e-16,
        1.0,
        0.0,
        0.0,
        -1.0,
        2.220446049250313e-16,
        0.0,
        0.0,
        0.0,
        0.0,
        1.0
      ],
      "name": "GLTF_SceneRootNode"
    },
    {
      "children": [
        4
      ],
      "matrix": [
        1.0,
        0.0,
        0.0,
        0.0,
        0.0,
        -1.685873969314855e-07,
        0.9999999999999858,
        0.0,
        0.0,
        -0.9999999999999858,
        -1.685873969314855e-07,
        0.0,
        0.0,
        0.0,
        0.0,
        1.0
      ],
      "name": "16 4 v1_1"
    },
    {
      "mesh": 0,
      "name": "Object_4"
    }
  ],
  "samplers": [
    {
      "magFilter": 9729,
      "minFilter": 9987,
      "wrapS": 10497,
      "wrapT": 10497
    }
  ],
  "scene": 0,
  "scenes": [
    {
      "name": "Sketchfab_Scene",
      "nodes": [
        0
      ]
    }
  ],
  "textures": [
    {
      "sampler": 0,
      "source": 0
    }
  ]
}
