{
  "accessors": [
    {
      "bufferView": 2,
      "componentType": 5126,
      "count": 65534,
      "max": [
        0.097896002233028412,
        -39.710731506347656,
        -0.61592298746109009
      ],
      "min": [
        -1.702551007270813,
        -40.553356170654297,
        -1.9015179872512817
      ],
      "type": "VEC3"
    },
    {
      "bufferView": 2,
      "byteOffset": 786408,
      "componentType": 5126,
      "count": 65534,
      "max": [
        0.99962151050567627,
        1,
        0.99994742870330811
      ],
      "min": [
        -0.99993419647216797,
        -1,
        -0.99999624490737915
      ],
      "type": "VEC3"
    },
    {
      "bufferView": 3,
      "componentType": 5126,
      "count": 65534,
      "max": [
        0.99607843160629272,
        0.99215686321258545,
        0.93725490570068359,
        1
      ],
      "min": [
        0.28235295414924622,
        0.21176470816135406,
        0.14509804546833038,
        1
      ],
      "type": "VEC4"
    },
    {
      "bufferView": 1,
      "componentType": 5126,
      "count": 65534,
      "max": [
        0.99846899509429932,
        0.99999397993087769
      ],
      "min": [
        0.00014699999883305281,
        0.0037889999803155661
      ],
      "type": "VEC2"
    },
    {
      "bufferView": 0,
      "componentType": 5125,
      "count": 137391,
      "max": [
        65533
      ],
      "min": [
        0
      ],
      "type": "SCALAR"
    },
    {
      "bufferView": 2,
      "byteOffset": 1572816,
      "componentType": 5126,
      "count": 65532,
      "max": [
        0.47336301207542419,
        -39.2210693359375,
        -0.10509400069713593
      ],
      "min": [
        -1.5250949859619141,
        -40.433811187744141,
        -1.8355640172958374
      ],
      "type": "VEC3"
    },
    {
      "bufferView": 2,
      "byteOffset": 2359200,
      "componentType": 5126,
      "count": 65532,
      "max": [
        0.99998831748962402,
        1,
        0.99989312887191772
      ],
      "min": [
        -0.99995297193527222,
        -1,
        -0.99994796514511108
      ],
      "type": "VEC3"
    },
    {
      "bufferView": 3,
      "byteOffset": 1048544,
      "componentType": 5126,
      "count": 65532,
      "max": [
        0.99607843160629272,
        0.99607843160629272,
        0.99607843160629272,
        1
      ],
      "min": [
        0.090196080505847931,
        0.050980392843484879,
        0.019607843831181526,
        1
      ],
      "type": "VEC4"
    },
    {
      "bufferView": 1,
      "byteOffset": 524272,
      "componentType": 5126,
      "count": 65532,
      "max": [
        0.9984930157661438,
        1
      ],
      "min": [
        0.00015700000221841037,
        0.0026130001060664654
      ],
      "type": "VEC2"
    },
    {
      "bufferView": 0,
      "byteOffset": 549564,
      "componentType": 5125,
      "count": 122397,
      "max": [
        65531
      ],
      "min": [
        0
      ],
      "type": "SCALAR"
    },
    {
      "bufferView": 2,
      "byteOffset": 3145584,
      "componentType": 5126,
      "count": 65533,
      "max": [
        0.4880949854850769,
        -39.174373626708984,
        0.19968199729919434
      ],
      "min": [
        -0.53527301549911499,
        -39.740947723388672,
        -0.79107099771499634
      ],
      "type": "VEC3"
    },
    {
      "bufferView": 2,
      "byteOffset": 3931980,
      "componentType": 5126,
      "count": 65533,
      "max": [
        0.99993133544921875,
        1,
        0.99971330165863037
      ],
      "min": [
        -0.99993550777435303,
        -1,
        -0.99998891353607178
      ],
      "type": "VEC3"
    },
    {
      "bufferView": 3,
      "byteOffset": 2097056,
      "componentType": 5126,
      "count": 65533,
      "max": [
        0.99607843160629272,
        0.99607843160629272,
        0.98823529481887817,
        1
      ],
      "min": [
        0.12156862765550613,
        0.11764705926179886,
        0.098039217293262482,
        1
      ],
      "type": "VEC4"
    },
    {
      "bufferView": 1,
      "byteOffset": 1048528,
      "componentType": 5126,
      "count": 65533,
      "max": [
        0.99856102466583252,
        1
      ],
      "min": [
        0.00019200000679120421,
        0.0021490000654011965
      ],
      "type": "VEC2"
    },
    {
      "bufferView": 0,
      "byteOffset": 1039152,
      "componentType": 5125,
      "count": 101877,
      "max": [
        65532
      ],
      "min": [
        0
      ],
      "type": "SCALAR"
    },
    {
      "bufferView": 2,
      "byteOffset": 4718376,
      "componentType": 5126,
      "count": 65532,
      "max": [
        0.50258100032806396,
        -39.076522827148438,
        0.36916300654411316
      ],
      "min": [
        -0.32387900352478027,
        -39.705684661865234,
        -0.58337098360061646
      ],
      "type": "VEC3"
    },
    {
      "bufferView": 2,
      "byteOffset": 5504760,
      "componentType": 5126,
      "count": 65532,
      "max": [
        0.99999308586120605,
        1,
        0.99998670816421509
      ],
      "min": [
        -0.99999690055847168,
        -1,
        -0.99969393014907837
      ],
      "type": "VEC3"
    },
    {
      "bufferView": 3,
      "byteOffset": 3145584,
      "componentType": 5126,
      "count": 65532,
      "max": [
        0.99607843160629272,
        0.99607843160629272,
        0.99607843160629272,
        1
      ],
      "min": [
        0.078431375324726105,
        0.070588238537311554,
        0.050980392843484879,
        1
      ],
      "type": "VEC4"
    },
    {
      "bufferView": 1,
      "byteOffset": 1572792,
      "componentType": 5126,
      "count": 65532,
      "max": [
        0.99810600280761719,
        1
      ],
      "min": [
        0.00026000000070780516,
        0.0024590000975877047
      ],
      "type": "VEC2"
    },
    {
      "bufferView": 0,
      "byteOffset": 1446660,
      "componentType": 5125,
      "count": 110667,
      "max": [
        65531
      ],
      "min": [
        0
      ],
      "type": "SCALAR"
    },
    {
      "bufferView": 2,
      "byteOffset": 6291144,
      "componentType": 5126,
      "count": 5511,
      "max": [
        0.37203499674797058,
        -39.054294586181641,
        0.37117099761962891
      ],
      "min": [
        0.069844000041484833,
        -39.327186584472656,
        0.14067499339580536
      ],
      "type": "VEC3"
    },
    {
      "bufferView": 2,
      "byteOffset": 6357276,
      "componentType": 5126,
      "count": 5511,
      "max": [
        0.99996930360794067,
        1,
        0.99936121702194214
      ],
      "min": [
        -0.99972981214523315,
        -1,
        -0.99992597103118896
      ],
      "type": "VEC3"
    },
    {
      "bufferView": 3,
      "byteOffset": 4194096,
      "componentType": 5126,
      "count": 5511,
      "max": [
        0.99215686321258545,
        0.94901961088180542,
        0.90196079015731812,
        1
      ],
      "min": [
        0.27450981736183167,
        0.19607843458652496,
        0.11764705926179886,
        1
      ],
      "type": "VEC4"
    },
    {
      "bufferView": 1,
      "byteOffset": 2097048,
      "componentType": 5126,
      "count": 5511,
      "max": [
        0.99724501371383667,
        0.99975800514221191
      ],
      "min": [
        0.0011010000016540289,
        0.13819999992847443
      ],
      "type": "VEC2"
    },
    {
      "bufferView": 0,
      "byteOffset": 1889328,
      "componentType": 5125,
      "count": 7983,
      "max": [
        5510
      ],
      "min": [
        0
      ],
      "type": "SCALAR"
    }
  ],
  "asset": {
    "extras": {
      "author": "XRchaeology Team (https://sketchfab.com/XRchaeology)",
      "license": "CC-BY-4.0 (http://creativecommons.org/licenses/by/4.0/)",
      "source": "https://sketchfab.com/3d-models/mochica-pottery-dog-df71fdd722e94452918a6ed05abf9495",
      "title": "Mochica Pottery Dog"
    },
    "generator": "Sketchfab-9.55.0",
    "version": "2.0"
  },
  "bufferViews": [
    {
      "buffer": 0,
      "byteLength": 1921260,
      "byteOffset": 0,
      "name": "floatBufferViews",
      "target": 34963
    },
    {
      "buffer": 0,
      "byteLength": 2141136,
      "byteOffset": 1921260,
      "byteStride": 8,
      "name": "floatBufferViews",
      "target": 34962
    },
    {
      "buffer": 0,
      "byteLength": 6423408,
      "byteOffset": 4062396,
      "byteStride": 12,
      "name": "floatBufferViews",
      "target": 34962
    },
    {
      "buffer": 0,
      "byteLength": 4282272,
      "byteOffset": 10485804,
      "byteStride": 16,
      "name": "floatBufferViews",
      "target": 34962
    }
  ],
  "buffers": [
    {
      "byteLength": 14768076,
      "uri": "scene.bin"
    }
  ],
  "images": [
    {
      "uri": "textures/obj_10-192-4_baseColor.jpeg"
    }
  ],
  "materials": [
    {
      "doubleSided": true,
      "emissiveFactor": [
        0,
        0,
        0
      ],
      "name": "obj_10-192-4",
      "pbrMetallicRoughness": {
        "baseColorFactor": [
          1,
          1,
          1,
          1
        ],
        "baseColorTexture": {
          "index": 0,
          "texCoord": 0
        },
        "metallicFactor": 0,
        "roughnessFactor": 1
      }
    }
  ],
  "meshes": [
    {
      "primitives": [
        {
          "attributes": {
            "COLOR_0": 2,
            "NORMAL": 1,
            "POSITION": 0,
            "TEXCOORD_0": 3
          },
          "indices": 4,
          "material": 0,
          "mode": 4
        }
      ]
    },
    {
      "primitives": [
        {
          "attributes": {
            "COLOR_0": 7,
            "NORMAL": 6,
            "POSITION": 5,
            "TEXCOORD_0": 8
          },
          "indices": 9,
          "material": 0,
          "mode": 4
        }
      ]
    },
    {
      "primitives": [
        {
          "attributes": {
            "COLOR_0": 12,
            "NORMAL": 11,
            "POSITION": 10,
            "TEXCOORD_0": 13
          },
          "indices": 14,
          "material": 0,
          "mode": 4
        }
      ]
    },
    {
      "primitives": [
        {
          "attributes": {
            "COLOR_0": 17,
            "NORMAL": 16,
            "POSITION": 15,
            "TEXCOORD_0": 18
          },
          "indices": 19,
          "material": 0,
          "mode": 4
        }
      ]
    },
    {
      "primitives": [
        {
          "attributes": {
            "COLOR_0": 22,
            "NORMAL": 21,
            "POSITION": 20,
            "TEXCOORD_0": 23
          },
          "indices": 24,
          "material": 0,
          "mode": 4
        }
      ]
    }
  ],
  "nodes": [
    {
      "children": [
        1
      ],
      "name": "RootNode (gltf orientation matrix)",
      "rotation": [
        -0.70710678118654746,
        -0,
        -0,
        0.70710678118654757
      ]
    },
    {
      "children": [
        2
      ],
      "matrix": [
        -0.21018059551715851,
        -0.94551992416381836,
        -0.2486286461353302,
        0,
        -0.63655948638916016,
        0.32536804676055908,
        -0.69923359155654907,
        0,
        0.7420351505279541,
        0.011301587335765362,
        -0.67026573419570923,
        0,
        -25.495832443237305,
        -27.411611557006836,
        -29.259422302246094,
        1
      ],
      "name": "RootNode (model correction matrix)"
    },
    {
      "children": [
        3,
        4,
        5,
        6,
        7
      ],
      "name": "obj_10-192-4.obj.cleaner.materialmerger.gles"
    },
    {
      "mesh": 0,
      "name": ""
    },
    {
      "mesh": 1,
      "name": ""
    },
    {
      "mesh": 2,
      "name": ""
    },
    {
      "mesh": 3,
      "name": ""
    },
    {
      "mesh": 4,
      "name": ""
    }
  ],
  "samplers": [
    {
      "magFilter": 9729,
      "minFilter": 9987,
      "wrapS": 10497,
      "wrapT": 10497
    }
  ],
  "scene": 0,
  "scenes": [
    {
      "name": "OSG_Scene",
      "nodes": [
        0
      ]
    }
  ],
  "textures": [
    {
      "sampler": 0,
      "source": 0
    }
  ]
}

