{
  "accessors": [
    {
      "bufferView": 2,
      "componentType": 5126,
      "count": 4129,
      "max": [
        21.17039680480957,
        11.162918090820313,
        30.0
      ],
      "min": [
        -1.1713550090789795,
        -11.152450561523438,
        -3.22461199760437
      ],
      "type": "VEC3"
    },
    {
      "bufferView": 2,
      "byteOffset": 49548,
      "componentType": 5126,
      "count": 4129,
      "max": [
        0.9999942183494568,
        0.998792827129364,
        0.9971994161605835
      ],
      "min": [
        -0.9999987483024597,
        -0.9987895488739014,
        -0.9991713166236877
      ],
      "type": "VEC3"
    },
    {
      "bufferView": 1,
      "componentType": 5126,
      "count": 4129,
      "max": [
        4.684885025024414,
        1.0
      ],
      "min": [
        -4.430298805236816,
        -4.876222133636475
      ],
      "type": "VEC2"
    },
    {
      "bufferView": 0,
      "componentType": 5125,
      "count": 23490,
      "type": "SCALAR"
    }
  ],
  "asset": {
    "extras": {
      "author": "XRchaeology Team (https://sketchfab.com/XRchaeology)",
      "license": "COPYRIGHT TO XRchaeology Team",
      "source": "https://sketchfab.com/3d-models/13-61adfe0de78c40938e4a97bfbb441a9e",
      "title": "13"
    },
    "generator": "Sketchfab-10.48.0",
    "version": "2.0"
  },
  "bufferViews": [
    {
      "buffer": 0,
      "byteLength": 93960,
      "name": "floatBufferViews",
      "target": 34963
    },
    {
      "buffer": 0,
      "byteLength": 33032,
      "byteOffset": 93960,
      "byteStride": 8,
      "name": "floatBufferViews",
      "target": 34962
    },
    {
      "buffer": 0,
      "byteLength": 99096,
      "byteOffset": 126992,
      "byteStride": 12,
      "name": "floatBufferViews",
      "target": 34962
    }
  ],
  "buffers": [
    {
      "byteLength": 226088,
      "uri": "scene.bin"
    }
  ],
  "images": [
    {
      "uri": "textures/Cherry_baseColor.jpeg"
    }
  ],
  "materials": [
    {
      "doubleSided": true,
      "name": "Cherry",
      "pbrMetallicRoughness": {
        "baseColorTexture": {
          "index": 0
        },
        "metallicFactor": 0.0,
        "roughnessFactor": 0.5
      }
    }
  ],
  "meshes": [
    {
      "name": "Object_0",
      "primitives": [
        {
          "attributes": {
            "NORMAL": 1,
            "POSITION": 0,
            "TEXCOORD_0": 2
          },
          "indices": 3,
          "material": 0,
          "mode": 4
        }
      ]
    }
  ],
  "nodes": [
    {
      "children": [
        1
      ],
      "matrix": [
        1.0,
        0.0,
        0.0,
        0.0,
        0.0,
        2.220446049250313e-16,
        -1.0,
        0.0,
        0.0,
        1.0,
        2.220446049250313e-16,
        0.0,
        0.0,
        0.0,
        0.0,
        1.0
      ],
      "name": "Sketchfab_model"
    },
    {
      "children": [
        2
      ],
      "name": "root"
    },
    {
      "children": [
        3
      ],
      "matrix": [
        1.0,
        0.0,
        0.0,
        0.0,
        0.0,
        2.220446049250313e-16,
        1.0,
        0.0,
        0.0,
        -1.0,
        2.220446049250313e-16,
        0.0,
        0.0,
        0.0,
        0.0,
        1.0
      ],
      "name": "GLTF_SceneRootNode"
    },
    {
      "children": [
        4
      ],
      "matrix": [
        1.0,
        0.0,
        0.0,
        0.0,
        0.0,
        -1.685873969314855e-07,
        0.9999999999999858,
        0.0,
        0.0,
        -0.9999999999999858,
        -1.685873969314855e-07,
        0.0,
        0.0,
        0.0,
        0.0,
        1.0
      ],
      "name": "pot 4 v2_1"
    },
    {
      "mesh": 0,
      "name": "Object_4"
    }
  ],
  "samplers": [
    {
      "magFilter": 9729,
      "minFilter": 9987,
      "wrapS": 10497,
      "wrapT": 10497
    }
  ],
  "scene": 0,
  "scenes": [
    {
      "name": "Sketchfab_Scene",
      "nodes": [
        0
      ]
    }
  ],
  "textures": [
    {
      "sampler": 0,
      "source": 0
    }
  ]
}
